<svg width="162" height="123" viewBox="0 0 162 123" fill="none" xmlns="http://www.w3.org/2000/svg">
<path d="M0.460449 13H161.54V81.8842C161.54 98.4527 148.108 111.884 131.54 111.884H30.4605C13.8919 111.884 0.460449 98.4527 0.460449 81.8842V13Z" fill="white"/>
<path d="M23.2392 86.5178V71.7947C23.2392 70.4724 22.821 68.9534 22.2675 67.8525H30.0165C29.4692 68.9534 29.0448 70.4663 29.0448 71.7947V86.5178C29.0448 87.84 29.463 89.3591 30.0165 90.4599H22.2675C22.8149 89.3591 23.2392 87.8462 23.2392 86.5178Z" fill="#092B54"/>
<path d="M33.5712 86.5178V71.7947C33.5712 70.4724 33.153 68.9534 32.5995 67.8525H40.3485C39.8011 68.9534 39.3768 70.4663 39.3768 71.7947V76.7024H47.1565V71.7947C47.1565 70.4724 46.7383 68.9534 46.1848 67.8525H53.9338C53.3865 68.9534 52.9621 70.4663 52.9621 71.7947V86.5178C52.9621 87.84 53.3803 89.3591 53.9338 90.4599H46.1848C46.7322 89.3591 47.1565 87.8462 47.1565 86.5178V81.5424H39.3768V86.5178C39.3768 87.84 39.795 89.3591 40.3485 90.4599H32.5995C33.1468 89.3591 33.5712 87.8462 33.5712 86.5178Z" fill="#092B54"/>
<path d="M69.5364 90.6872C68.5647 90.6872 67.47 90.7855 65.9202 90.7855C57.6546 90.7855 55.2315 84.3896 55.2315 80.1276V78.1596C55.2315 73.9284 57.6546 67.5385 65.9202 67.5385C74.1858 67.5385 68.5709 67.637 69.5364 67.637C70.502 67.637 71.2461 67.5386 72.1194 67.2188L73.9952 74.322C72.347 73.2888 68.6324 71.8005 66.0186 72.2556C62.2056 72.9014 61.3692 76.8435 61.3692 78.1965V80.1338C61.3692 81.4929 62.304 85.4289 66.0186 86.0746C68.6324 86.5298 72.347 85.0415 73.9952 84.0083L72.1194 91.1115C71.2461 90.7856 70.4712 90.6933 69.5364 90.6933V90.6872Z" fill="#092B54"/>
<path d="M76.5105 87.1632L81.7072 71.5053C82.0639 70.1154 81.8056 68.8916 81.289 67.8584H91.3627C90.8154 68.9592 90.5878 70.2815 91.0429 71.8005L96.1474 87.1694C96.5349 88.3317 97.2114 89.4941 98.343 90.4658H89.9482C90.4956 89.3649 90.0466 88.3686 89.7207 87.1694L89.3332 85.718H83.3247L82.9372 87.1694C82.6174 88.3625 82.1623 89.3649 82.7097 90.4658H74.3149C75.4465 89.4941 76.123 88.3317 76.5105 87.1694V87.1632ZM88.0048 80.9333L86.3259 74.894L84.6469 80.9333H88.0048Z" fill="#092B54"/>
<path d="M98.6628 83.6457C100.409 84.7096 104.801 85.872 107.802 85.872C110.803 85.872 110.969 85.423 110.84 84.2914C110.52 81.1611 99.0564 82.6432 99.0564 74.4084C99.0564 66.1735 103.029 67.5327 107.937 67.5327C112.845 67.5327 110.588 67.6311 111.553 67.6311C112.519 67.6311 113.263 67.5327 114.136 67.2129L116.012 74.3161C114.364 73.2829 110.686 72.2497 108.035 72.2497C105.385 72.2497 104.837 72.7356 104.905 74.0578C105.102 76.8684 116.688 75.3801 116.688 83.9409C116.688 92.5017 112.943 90.7858 108.035 90.7858C103.128 90.7858 104.776 90.6567 103.515 90.6567C102.254 90.6567 101.51 90.7551 100.545 91.1118L98.669 83.6518L98.6628 83.6457Z" fill="#092B54"/>
<path d="M118.872 87.1632L124.068 71.5053C124.425 70.1154 124.167 68.8916 123.65 67.8584H133.724C133.177 68.9592 132.949 70.2815 133.404 71.8005L138.509 87.1694C138.896 88.3317 139.573 89.4941 140.704 90.4658H132.309C132.857 89.3649 132.408 88.3686 132.082 87.1694L131.694 85.718H125.686L125.298 87.1694C124.973 88.3625 124.524 89.3649 125.071 90.4658H116.676C117.808 89.4941 118.484 88.3317 118.872 87.1694V87.1632ZM130.366 80.9333L128.687 74.894L127.008 80.9333H130.366Z" fill="#092B54"/>
<path d="M101.449 40.3318C101.449 40.3133 101.449 40.2887 101.443 40.2703C101.43 40.2211 101.393 40.178 101.35 40.1596C101.147 40.0304 100.895 39.9812 100.662 39.9443C100.52 39.9197 100.385 39.9074 100.243 39.9259C100.096 39.9443 99.9543 39.9812 99.8067 40.0058C99.7021 39.9997 99.5976 39.9874 99.493 39.9874C99.3823 39.9874 99.2532 39.9997 99.1548 40.0612C99.1056 40.0919 99.081 40.135 99.0748 40.1842C99.0687 40.2334 99.0748 40.2949 99.124 40.3318C99.2101 40.3994 99.2962 40.4486 99.3885 40.4978C99.3885 40.4978 99.3885 40.5101 99.3946 40.5163C99.4008 40.5286 99.4069 40.5409 99.4192 40.547C99.4315 40.5593 99.4377 40.5655 99.45 40.5716C99.4561 40.5716 99.4623 40.5716 99.4684 40.5778C99.4746 40.5778 99.4869 40.5839 99.493 40.5839C99.5053 40.5839 99.5176 40.5839 99.5361 40.5839C99.5484 40.5839 99.5545 40.5839 99.5668 40.5839C99.5484 40.6147 99.5299 40.6516 99.5176 40.6885C99.4992 40.7561 99.4992 40.8361 99.5176 40.9037C99.5422 40.996 99.6099 41.0329 99.6898 41.0513C99.8743 41.0882 100.065 41.0821 100.243 41.0452C100.422 41.0083 100.618 40.9222 100.698 40.7561C100.723 40.7008 100.735 40.6577 100.717 40.5962C100.711 40.5655 100.698 40.5409 100.686 40.5163C100.729 40.5101 100.766 40.504 100.809 40.4917C100.84 40.4855 100.871 40.4609 100.889 40.4363C101 40.4486 101.11 40.4671 101.221 40.4794C101.283 40.4978 101.356 40.4794 101.4 40.424C101.4 40.424 101.4 40.424 101.4 40.4179C101.4 40.4179 101.406 40.4056 101.412 40.3994C101.418 40.3871 101.424 40.3748 101.43 40.3625C101.43 40.3625 101.43 40.3564 101.43 40.3502C101.43 40.3441 101.43 40.3379 101.43 40.3318H101.449ZM100.299 40.6823C100.299 40.6823 100.293 40.6823 100.286 40.6823C100.286 40.6823 100.299 40.6823 100.299 40.6762C100.299 40.6762 100.311 40.6762 100.317 40.67C100.317 40.67 100.305 40.67 100.299 40.6762V40.6823ZM100.09 40.7315C100.108 40.7315 100.108 40.7315 100.09 40.7315V40.7315ZM100.391 40.6147C100.391 40.6147 100.391 40.6085 100.397 40.6024C100.397 40.6024 100.397 40.6024 100.397 40.6085L100.391 40.6147Z" fill="#BC0000"/>
<path d="M67.5869 37.6138C67.2117 37.6138 66.8366 37.6384 66.4676 37.6815C66.4676 37.6261 66.4553 37.5708 66.4184 37.5339C66.4307 37.5339 66.4368 37.5216 66.4491 37.5154C66.5352 37.4601 66.5721 37.3186 66.486 37.2448C66.24 37.0357 65.7849 37.128 65.502 37.1895C65.3114 37.2264 65.0654 37.294 64.8993 37.4232C64.887 37.4293 64.8747 37.4416 64.8686 37.4539C64.8132 37.5031 64.7702 37.5646 64.7394 37.6323C64.5857 37.8414 64.4135 38.032 64.2413 38.2227C63.7616 38.5794 63.4664 39.1267 63.122 39.6187C63.0236 39.7602 63.2204 39.9508 63.3557 39.8524C63.5648 39.7048 63.7554 39.5449 63.9276 39.3666C63.9522 39.3973 63.983 39.4158 64.0199 39.4281C64.2782 39.5019 64.4934 39.219 64.6287 39.0468C64.6472 39.0222 64.6656 38.9914 64.6841 38.9668C64.6841 38.9668 64.6902 38.9668 64.6964 38.9607C64.6964 39.0283 64.7271 39.096 64.7825 39.1513C64.8624 39.2313 64.9793 39.2682 65.09 39.2805C65.2191 39.2989 65.3421 39.2989 65.4651 39.2805C65.582 39.262 65.6927 39.2067 65.7972 39.1575C66.1109 39.0099 66.4307 38.7516 66.3938 38.3641C66.3815 38.2719 66.32 38.1919 66.2216 38.1919C66.1232 38.1919 66.0371 38.2719 66.0494 38.3641C66.0494 38.3949 66.0494 38.4318 66.0494 38.4625C66.0494 38.4625 66.0494 38.4871 66.0432 38.4933C66.0432 38.5056 66.0248 38.5425 66.0309 38.5363C66.0309 38.524 66.0186 38.5609 66.0125 38.5671C66.0063 38.5794 65.994 38.5917 65.9879 38.6101C65.9879 38.6101 65.9756 38.6224 65.9694 38.6286C65.9571 38.6409 65.9448 38.6593 65.9264 38.6716C65.8772 38.7208 65.8403 38.7454 65.7726 38.7823C65.7788 38.77 65.7911 38.7639 65.7972 38.7516C65.8772 38.6409 65.9387 38.5056 65.9387 38.3703C65.9387 38.3641 65.9387 38.358 65.9387 38.3518C65.951 38.2719 65.9387 38.1981 65.8956 38.1243C66.4614 38.0259 67.0272 37.9644 67.6053 37.9582C67.8267 37.9582 67.8267 37.6138 67.6053 37.6138H67.5869ZM65.4836 38.7577C65.4836 38.7577 65.4897 38.7577 65.4959 38.7516C65.4959 38.7516 65.4959 38.7516 65.4836 38.7639V38.7577Z" fill="#BC0000"/>
<path d="M84.9791 35.1408C86.4735 37.0842 87.3653 39.5134 87.3653 42.1518C87.3653 48.4924 82.2054 53.6523 75.8648 53.6523C69.5241 53.6523 72.2609 53.2279 70.6619 52.4161C71.4614 52.3854 72.1686 52.3485 72.7221 52.3239C73.3002 52.2993 73.7676 52.2747 74.0997 52.2562C74.7393 52.2255 75.0899 52.207 75.3051 51.8196L76.7873 49.8208C77.0702 49.4395 76.9902 48.8983 76.6089 48.6154C76.2276 48.3325 75.6864 48.4125 75.4035 48.7938L74.1182 50.5281C71.9288 50.6449 62.4332 51.0754 60.0224 50.8171C59.844 50.7987 59.6595 50.8417 59.5058 50.9278C59.5058 50.9278 59.4935 50.9278 59.4935 50.934C57.2918 52.2193 55.6989 51.6535 55.4406 51.223C55.3361 51.0447 55.1639 50.9032 54.9671 50.8356C53.9831 50.5035 52.79 49.9131 52.7039 49.009C52.5809 47.6683 54.6042 45.8848 55.1454 45.5835C55.6374 45.3067 56.7075 43.9968 58.3311 41.6967C58.7309 41.1309 60.7358 38.2527 61.0617 37.281C61.074 37.2441 61.0863 37.2072 61.0925 37.1703C61.5045 35.0547 63.4602 34.3167 64.0506 34.1383C65.5266 33.6955 67.7037 30.8419 68.3433 29.9748C68.4848 29.7841 68.5401 29.5381 68.4971 29.3044C68.454 29.0707 68.3126 28.8555 68.1096 28.7325C66.4737 27.6808 65.8218 25.7374 65.5697 24.2922C65.4405 23.5726 65.3975 22.9023 65.3975 22.3365C67.9989 25.8297 72.3162 29.4274 73.497 30.3192L73.823 30.5652C73.9952 30.6943 74.2104 30.7558 74.4318 30.7374L74.7147 30.7066C75.1022 30.6697 75.5019 30.6451 75.8894 30.6451C78.8475 30.6451 81.5535 31.7706 83.5953 33.6156C84.0012 33.1912 84.4809 32.8407 85.016 32.5824C82.6421 30.3192 79.4256 28.9231 75.8955 28.9231C72.3654 28.9231 75.0284 28.9416 74.5979 28.9846L74.5425 28.9416C73.3125 28.0129 67.9005 23.4742 65.8157 19.8396C65.5574 19.3906 65.1269 19.2799 64.8194 19.3291C64.0814 19.446 63.903 20.2824 63.8415 20.596C63.4418 22.4964 63.6263 27.1458 66.4553 29.6242C65.3913 30.9772 64.1244 32.3179 63.5709 32.4778C62.753 32.7238 60.047 33.7509 59.4258 36.7705C58.9953 37.8898 55.0716 43.4925 54.2906 44.0952C53.6756 44.458 50.7728 46.7089 51.0065 49.1689C51.1356 50.5711 52.2057 51.6535 54.1799 52.3792C55.0778 53.4186 57.3594 54.0828 60.1454 52.5576C61.4307 52.656 63.983 52.6437 67.7406 52.5207C67.7898 52.5822 67.8452 52.6375 67.9067 52.6867C70.2191 54.4456 72.9804 55.3681 75.8955 55.3681C83.1894 55.3681 89.1242 49.4334 89.1242 42.1395C89.1242 34.8456 88.1463 36.4384 86.492 34.2306C85.9077 34.3782 85.3973 34.698 85.0098 35.1346L84.9791 35.1408Z" fill="#BC0000"/>
<path d="M111.037 44.3048C111.018 41.8264 110.784 41.6665 110.483 41.4697C110.046 41.1745 109.542 41.359 109.278 41.4512C109.038 41.5373 108.749 41.5004 108.515 41.3528C107.943 40.9961 107.131 40.6087 106.104 40.2028C103.94 39.3479 103.527 38.4193 103.005 37.2508C102.956 37.1462 102.912 37.0417 102.863 36.9371C102.63 36.4267 102.377 36.0577 102.138 35.7932C102.562 35.4058 102.956 34.9753 103.325 34.514C104.438 33.1057 105.262 31.4206 105.772 29.5141C105.785 29.4772 105.791 29.4464 105.797 29.4218C105.883 29.1143 105.797 28.7822 105.563 28.5608C105.176 28.1857 104.788 28.3087 104.155 28.5178C103.503 28.7269 102.304 29.1143 100.465 29.5817C100.569 29.3296 100.68 29.0651 100.778 28.7945C101.553 26.7281 101.596 25.5166 100.92 24.8647C100.034 24.0098 98.669 24.7786 98.22 25.0307C97.8572 25.2337 94.5854 27.4292 92.808 29.182C92.7281 29.1451 92.642 29.1266 92.5497 29.1143C92.1069 29.0713 91.6518 29.0467 91.1967 29.0467C83.9028 29.0467 77.9681 34.9814 77.9681 42.2753C77.9681 49.5692 78.9521 47.9887 80.6064 50.1965C81.0738 50.1043 81.5166 49.8952 81.8979 49.5815C81.984 49.5139 82.064 49.4401 82.1378 49.3601C80.6064 47.4044 79.6901 44.9444 79.6901 42.2753C79.6901 36.1438 84.5178 31.1131 90.5756 30.7933C90.6309 30.8056 90.6924 30.8117 90.7478 30.8117C91.0368 30.8117 92.3345 30.9532 92.9556 31.027C93.2324 31.0577 93.503 30.9532 93.6875 30.7502C95.1389 29.1574 98.7182 26.7343 99.0564 26.5436C99.3393 26.3837 99.5423 26.2976 99.6714 26.2546C99.6468 26.9372 99.0872 28.5731 98.3307 30.1106C94.9544 31.0516 93.2139 33.8006 93.1401 33.9236C92.888 34.3295 93.0171 34.8584 93.4169 35.1106C93.8228 35.3627 94.3517 35.2397 94.6038 34.8338C94.6161 34.8092 96.1659 32.3554 99.1118 31.6912C101.147 31.2361 102.63 30.8117 103.632 30.5104C103.208 31.6112 102.648 32.6014 101.959 33.4685C100.12 35.7932 97.5374 37.0048 94.2779 37.0601C93.8043 37.0663 93.423 37.4599 93.4292 37.9396C93.4353 38.4131 93.8228 38.7883 94.2902 38.7883C94.7576 38.7883 94.3025 38.7883 94.3086 38.7883C96.7625 38.7452 98.9457 38.0995 100.76 36.9002C100.84 36.9617 101.043 37.1524 101.289 37.6813C101.338 37.7797 101.381 37.8842 101.424 37.9826C101.996 39.268 102.648 40.7194 105.465 41.8325C106.621 42.2876 107.261 42.632 107.593 42.8411C108.103 43.1609 108.693 43.2962 109.265 43.2347C109.29 43.6222 109.308 44.1203 109.302 44.6492C109.296 45.5287 109.235 46.1006 109.167 46.445L108.638 46.2667C108.214 46.1252 107.746 46.3343 107.568 46.7464C107.47 46.9801 107.334 47.2445 107.23 47.4106C106.695 47.3921 106.486 47.3614 106.424 47.3552C106.35 47.3306 106.277 47.3183 106.203 47.3183C106.19 47.3183 106.184 47.3183 106.172 47.3183C106.16 47.3183 106.141 47.3183 106.129 47.3183C105.785 47.3183 105.459 47.509 105.317 47.8472C104.001 50.9591 101.006 52.7426 97.0946 52.7426C93.1832 52.7426 92.5989 51.8755 90.9138 50.3072C90.5633 49.9813 90.0221 49.9997 89.6961 50.3503C89.3702 50.7008 89.3886 51.242 89.7392 51.568C90.6924 52.4597 91.7933 53.1608 92.9741 53.6467C92.3837 53.7389 91.7871 53.7881 91.1783 53.7881C88.2509 53.7881 85.5756 52.6873 83.54 50.8792C83.4354 50.9837 83.3247 51.0883 83.2017 51.1867C82.8573 51.4757 82.4822 51.7094 82.0824 51.8878C84.4563 54.1325 87.6543 55.5163 91.1721 55.5163C94.6899 55.5163 94.5362 55.1965 96.1044 54.5692C96.1844 54.5384 96.2582 54.4954 96.3197 54.44C96.5718 54.4585 96.8301 54.4708 97.0884 54.4708C101.48 54.4708 104.911 52.5274 106.621 49.1203C106.848 49.1387 107.131 49.151 107.5 49.1572C107.507 49.1572 107.519 49.1572 107.525 49.1572C107.869 49.1572 108.3 49.0157 108.792 48.1486L109.149 48.2654C109.591 48.413 110.231 48.3146 110.6 47.5705C110.889 46.9862 111.024 45.8977 111.018 44.3356L111.037 44.3048Z" fill="#BC0000"/>
</svg>
