<svg width="1440" height="400" viewBox="0 0 1440 400" fill="none" xmlns="http://www.w3.org/2000/svg">
<g clip-path="url(#clip0_194_4192)">
<rect width="1441" height="400" fill="#F2F2F7"/>
<path d="M1360.75 199.717C1356.84 199.717 1352.94 199.978 1349.03 200.434C1349.03 199.913 1348.9 199.327 1348.51 198.871C1348.57 198.871 1348.7 198.741 1348.83 198.676C1349.75 198.09 1350.14 196.657 1349.23 195.811C1346.62 193.663 1341.87 194.574 1338.94 195.225C1336.92 195.616 1334.38 196.332 1332.62 197.699C1332.49 197.764 1332.36 197.894 1332.3 198.025C1331.71 198.545 1331.26 199.197 1330.93 199.913C1329.37 202.061 1327.55 204.145 1325.72 206.098C1320.71 209.874 1317.65 215.538 1314 220.681C1312.96 222.114 1315.05 224.197 1316.48 223.155C1318.69 221.593 1320.71 219.965 1322.47 218.077C1322.73 218.403 1323.05 218.598 1323.44 218.728C1326.11 219.509 1328.39 216.58 1329.82 214.757C1330.02 214.496 1330.21 214.171 1330.41 213.91C1330.41 213.91 1330.47 213.91 1330.54 213.845C1330.54 214.561 1330.87 215.278 1331.45 215.798C1332.3 216.645 1333.47 216.97 1334.64 217.166C1335.94 217.361 1337.25 217.361 1338.61 217.166C1339.85 216.97 1340.96 216.384 1342.06 215.863C1345.32 214.301 1348.7 211.632 1348.25 207.595C1348.12 206.619 1347.47 205.772 1346.43 205.772C1345.38 205.772 1344.54 206.619 1344.6 207.595C1344.6 207.921 1344.6 208.311 1344.6 208.637C1344.6 208.637 1344.6 208.897 1344.54 208.962C1344.54 209.093 1344.34 209.483 1344.41 209.418C1344.41 209.288 1344.28 209.678 1344.21 209.744C1344.15 209.874 1344.02 210.004 1343.95 210.199C1343.95 210.199 1343.82 210.329 1343.82 210.395C1343.69 210.525 1343.56 210.72 1343.37 210.85C1342.84 211.371 1342.45 211.566 1341.74 212.022C1341.8 211.892 1341.87 211.827 1342 211.697C1342.78 210.525 1343.43 209.158 1343.5 207.725C1343.5 207.66 1343.5 207.595 1343.5 207.53C1343.63 206.684 1343.5 205.902 1343.04 205.186C1348.96 204.145 1354.89 203.493 1360.88 203.493C1363.22 203.493 1363.22 199.848 1360.88 199.913L1360.75 199.717ZM1338.81 211.697C1338.81 211.697 1338.87 211.697 1338.94 211.632C1338.94 211.632 1338.94 211.632 1338.81 211.762V211.697Z" fill="#BC0000"/>
<path d="M1542.65 173.805C1558.28 194.118 1567.65 219.509 1567.65 247.114C1567.65 313.456 1513.68 367.428 1447.34 367.428C1381 367.428 1409.64 363.001 1392.91 354.472C1401.24 354.146 1408.67 353.821 1414.46 353.56C1420.45 353.3 1425.4 353.039 1428.85 352.844C1435.55 352.519 1439.27 352.323 1441.48 348.287L1456.97 327.388C1459.97 323.417 1459.12 317.753 1455.09 314.758C1451.11 311.763 1445.45 312.609 1442.46 316.646L1429.04 334.81C1406.19 335.982 1306.84 340.539 1281.58 337.805C1279.76 337.61 1277.81 338 1276.18 338.912C1276.18 338.912 1276.05 338.912 1276.05 338.977C1253.07 352.453 1236.4 346.529 1233.66 342.037C1232.56 340.149 1230.73 338.651 1228.72 337.935C1218.43 334.419 1205.93 328.3 1205.02 318.859C1203.72 304.797 1224.87 286.177 1230.54 283.052C1235.68 280.122 1246.88 266.45 1263.81 242.361C1267.97 236.436 1288.94 206.293 1292.39 196.136C1292.52 195.746 1292.65 195.355 1292.71 194.965C1297.01 172.829 1317.45 165.081 1323.64 163.258C1339.07 158.636 1361.86 128.818 1368.5 119.703C1369.99 117.685 1370.51 115.146 1370.06 112.672C1369.6 110.198 1368.11 107.984 1366.02 106.682C1348.9 95.6795 1342.13 75.3667 1339.46 60.2624C1338.16 52.7102 1337.64 45.744 1337.7 39.8194C1364.92 76.3433 1410.03 113.974 1422.4 123.349L1425.79 125.888C1427.61 127.255 1429.89 127.906 1432.17 127.646L1435.1 127.32C1439.2 126.93 1443.3 126.669 1447.4 126.669C1478.39 126.669 1506.65 138.453 1528 157.725C1532.24 153.297 1537.25 149.586 1542.85 146.917C1517.98 123.219 1484.38 108.635 1447.4 108.635C1410.42 108.635 1438.35 108.831 1433.86 109.286L1433.28 108.831C1420.45 99.13 1363.81 51.6034 1342 13.6472C1339.26 8.95964 1334.84 7.78776 1331.52 8.3086C1323.77 9.5456 1321.95 18.2697 1321.3 21.59C1317.13 41.447 1319.02 90.0804 1348.64 115.992C1337.51 130.185 1324.23 144.183 1318.5 145.875C1309.9 148.415 1281.65 159.222 1275.14 190.733C1270.64 202.452 1229.63 260.981 1221.42 267.296C1214.98 271.072 1184.64 294.64 1187.05 320.357C1188.42 335.07 1199.55 346.334 1220.25 353.886C1229.69 364.758 1253.52 371.725 1282.62 355.774C1296.1 356.816 1322.73 356.685 1362.05 355.383C1362.57 356.034 1363.16 356.62 1363.81 357.141C1388.03 375.501 1416.87 385.201 1447.34 385.201C1523.64 385.201 1585.69 323.156 1585.69 246.853C1585.69 170.55 1575.47 187.217 1558.15 164.105C1552.03 165.602 1546.69 168.988 1542.65 173.545V173.805Z" fill="#BC0000"/>
<path d="M1426.5 295.812C1426.5 298.677 1425.33 301.476 1423.38 303.69C1421.43 305.903 1418.63 307.857 1415.57 308.963C1411.92 310.266 1408.08 310.786 1404.24 311.047C1399.94 311.307 1395.64 311.437 1391.35 311.633C1373.51 312.349 1355.74 313.065 1337.9 313.781C1327.94 314.172 1317.91 314.562 1307.95 314.953C1306.52 314.953 1305.34 316.125 1305.34 317.557C1305.34 318.99 1306.52 320.227 1307.95 320.161C1326.44 319.445 1344.86 318.664 1363.35 317.948C1372.6 317.557 1381.91 317.232 1391.15 316.841C1395.51 316.646 1399.94 316.581 1404.3 316.255C1408.54 315.995 1412.83 315.474 1416.87 314.042C1424.68 311.242 1431.84 304.536 1431.78 295.747C1431.78 292.362 1426.5 292.362 1426.57 295.747L1426.5 295.812Z" fill="#BC0000"/>
<path d="M1414.33 290.995C1413.35 293.403 1410.88 294.706 1408.54 295.357C1405.54 296.268 1402.42 296.398 1399.36 296.594C1391.22 297.18 1383.08 297.831 1374.88 298.416C1370.25 298.742 1365.63 299.133 1361.01 299.458C1356.39 299.784 1359.32 302.193 1361.01 302.062C1369.73 301.411 1378.46 300.76 1387.18 300.109C1391.48 299.784 1395.84 299.458 1400.14 299.133C1403.33 298.872 1406.65 298.677 1409.71 297.635C1412.83 296.594 1415.5 294.706 1416.8 291.58C1417.07 290.929 1416.48 290.148 1415.89 289.953C1415.31 289.758 1414.53 290.213 1414.27 290.864L1414.33 290.995Z" fill="#BC0000"/>
<path d="M1395.45 357.792C1397.14 358.834 1398.83 359.81 1400.53 360.852C1401.57 361.438 1402.94 361.178 1403.59 360.266C1404.24 359.355 1404.37 357.857 1403.39 357.141C1400.92 355.188 1398.44 353.235 1395.97 351.347C1395.19 352.649 1394.41 354.016 1393.63 355.318C1401.18 357.922 1408.8 360.526 1416.35 363.131C1418.89 363.977 1420.58 360.006 1418.17 358.769C1416.67 358.052 1415.24 357.271 1413.74 356.555C1412.96 357.922 1412.12 359.289 1411.34 360.657C1413.94 361.763 1416.48 362.805 1419.08 363.912C1420.25 364.433 1421.62 364.237 1422.34 363.066C1423.05 361.894 1422.66 360.396 1421.49 359.81C1418.3 358.183 1415.11 356.49 1411.92 354.862C1410.75 354.276 1409.32 354.537 1408.67 355.709C1408.01 356.881 1408.41 358.313 1409.51 358.964C1411.73 360.201 1413.94 361.438 1416.09 362.675C1416.67 361.243 1417.32 359.745 1417.91 358.313C1413.68 357.336 1409.38 356.36 1405.15 355.448C1402.61 354.862 1400.85 358.443 1403.33 359.81C1406.65 361.633 1409.9 363.521 1413.22 365.344C1414.33 365.995 1415.83 365.605 1416.48 364.498C1417.13 363.391 1416.67 362.024 1415.63 361.243C1412.12 358.573 1408.67 355.904 1405.15 353.3C1404.56 354.732 1403.91 356.23 1403.33 357.662C1408.93 359.42 1414.46 361.243 1420.06 363C1422.21 363.717 1424.29 360.526 1422.4 359.029C1420.71 357.662 1419.08 356.36 1417.39 354.993C1416.61 356.295 1415.83 357.662 1415.05 358.964C1418.3 359.941 1421.49 360.917 1424.75 361.959C1427.29 362.74 1429.04 358.834 1426.57 357.597C1423.7 356.099 1420.91 354.602 1418.04 353.17C1417.45 354.602 1416.8 356.099 1416.22 357.532C1420.65 359.159 1425.07 360.722 1429.5 362.349C1429.69 360.787 1429.96 359.224 1430.15 357.662C1425.27 357.206 1420.45 356.75 1415.57 356.295C1414.4 356.164 1413.35 357.271 1413.22 358.378C1413.09 359.615 1413.81 360.592 1414.92 360.982C1417.85 362.089 1420.84 363.131 1423.77 364.237L1425.07 359.615C1421.43 358.573 1417.78 357.532 1414.07 356.49C1411.07 355.644 1409.9 360.136 1412.77 361.112C1420.19 363.521 1427.68 365.995 1435.1 368.404C1437.64 369.251 1439.46 365.149 1436.92 364.042C1431.32 361.438 1425.66 358.899 1420.06 356.295C1419.47 357.727 1418.82 359.224 1418.24 360.657C1432.95 365.605 1448.9 366.646 1464.14 363.912C1468.43 363.131 1472.6 362.089 1476.77 360.722C1477.87 360.331 1478.65 359.289 1478.46 358.118C1478.26 356.946 1477.29 355.969 1476.11 356.034C1460.88 357.271 1445.65 358.508 1430.48 359.745C1429.3 359.81 1428.26 360.592 1428.13 361.829C1428 363.066 1428.65 364.172 1429.82 364.433C1450.59 369.511 1472.53 369.185 1493.17 363.717C1499.03 362.154 1504.7 360.136 1510.23 357.792C1512.38 356.881 1511.34 353.039 1508.99 353.3C1491.74 355.513 1474.55 357.792 1457.3 360.006C1452.42 360.657 1447.53 361.243 1442.72 361.894C1441.54 362.024 1440.5 362.675 1440.37 363.977C1440.24 365.279 1440.89 366.386 1442.06 366.581C1454.3 368.599 1466.74 368.404 1478.91 366.06C1490.96 363.782 1502.68 359.355 1513.29 353.104C1519.28 349.589 1524.88 345.422 1530.02 340.735C1532.04 338.912 1529.44 335.526 1527.09 336.958C1512.18 346.464 1495.58 352.909 1478.2 356.23C1461.08 359.55 1443.3 359.745 1426.11 356.75C1416.28 355.058 1406.65 352.258 1397.47 348.547C1396.3 348.026 1394.86 349.068 1394.54 350.24C1394.21 351.412 1394.99 352.714 1396.23 353.17C1412.96 360.006 1431.06 363.456 1449.16 363.652C1467.13 363.847 1485.23 360.787 1502.09 354.602C1511.66 351.086 1520.91 346.594 1529.57 341.125C1528.59 339.888 1527.61 338.651 1526.64 337.349C1518.04 345.162 1508.02 351.412 1497.21 355.709C1486.4 360.006 1474.75 362.61 1463.03 363.131C1456.45 363.391 1449.88 363 1443.37 361.959C1443.17 363.521 1442.91 365.084 1442.72 366.646C1459.97 364.433 1477.16 362.154 1494.41 359.941C1499.29 359.289 1504.17 358.704 1508.99 358.053C1508.6 356.555 1508.21 355.058 1507.76 353.56C1489.01 361.503 1468.17 364.498 1447.92 362.61C1442.19 362.089 1436.6 361.112 1431 359.745C1430.8 361.308 1430.54 362.87 1430.35 364.433C1445.58 363.196 1460.81 361.959 1475.98 360.722C1475.79 359.159 1475.53 357.597 1475.33 356.034C1461.34 360.722 1446.17 361.829 1431.58 359.159C1427.42 358.378 1423.31 357.336 1419.34 355.969C1416.8 355.123 1415.05 359.224 1417.52 360.331C1423.12 362.935 1428.78 365.474 1434.38 368.079C1434.97 366.646 1435.62 365.149 1436.21 363.717C1428.78 361.308 1421.3 358.834 1413.87 356.425C1413.42 357.987 1413.03 359.485 1412.57 361.047C1416.22 362.089 1419.86 363.131 1423.57 364.172C1424.81 364.498 1426.18 363.717 1426.5 362.48C1426.83 361.243 1426.05 360.006 1424.81 359.55C1421.88 358.443 1418.89 357.401 1415.96 356.295L1415.31 360.982C1420.19 361.438 1425.01 361.894 1429.89 362.349C1431.06 362.48 1432.1 361.373 1432.23 360.266C1432.36 359.029 1431.65 358.052 1430.54 357.662C1426.11 356.034 1421.69 354.472 1417.26 352.844C1414.72 351.933 1413.03 355.969 1415.44 357.206C1418.3 358.704 1421.1 360.201 1423.97 361.633C1424.55 360.201 1425.2 358.704 1425.79 357.271C1422.53 356.295 1419.34 355.318 1416.09 354.276C1413.94 353.625 1411.86 356.75 1413.74 358.248C1415.44 359.615 1417.06 360.917 1418.76 362.284C1419.54 360.982 1420.32 359.615 1421.1 358.313C1415.5 356.555 1409.97 354.732 1404.37 352.974C1403.26 352.584 1401.96 353.3 1401.57 354.342C1401.18 355.383 1401.57 356.555 1402.55 357.336C1406.06 360.006 1409.51 362.675 1413.03 365.279L1415.44 361.178C1412.12 359.355 1408.86 357.467 1405.54 355.644C1404.95 357.076 1404.3 358.573 1403.72 360.006C1407.95 360.982 1412.25 361.959 1416.48 362.87C1420.71 363.782 1420.78 359.875 1418.3 358.508C1416.09 357.271 1413.87 356.034 1411.73 354.797C1410.94 356.164 1410.1 357.532 1409.32 358.899C1412.51 360.526 1415.7 362.219 1418.89 363.847C1419.67 362.48 1420.51 361.112 1421.3 359.745C1418.69 358.638 1416.15 357.597 1413.55 356.49C1412.38 355.969 1411.01 356.164 1410.29 357.336C1409.58 358.508 1409.97 360.006 1411.14 360.592C1412.64 361.308 1414.07 362.089 1415.57 362.805L1417.39 358.443C1409.84 355.839 1402.22 353.235 1394.67 350.631C1393.69 350.305 1392.45 350.826 1391.93 351.737C1391.41 352.649 1391.48 354.016 1392.32 354.667C1394.8 356.62 1397.27 358.573 1399.75 360.461C1400.72 359.224 1401.7 357.987 1402.68 356.685C1400.98 355.644 1399.29 354.667 1397.6 353.625C1394.93 351.998 1392.52 356.164 1395.19 357.727L1395.45 357.792Z" fill="#BC0000"/>
<path d="M1426.18 369.316C1435.36 370.097 1444.54 370.814 1453.72 371.595C1455.02 371.725 1456.13 370.423 1456.13 369.186C1456.13 367.949 1455.02 366.972 1453.72 366.777C1441.74 365.345 1429.7 363.912 1417.72 362.48V367.298C1421.43 367.428 1425.14 367.493 1428.78 367.623C1431.84 367.689 1431.84 362.936 1428.78 362.806C1425.07 362.675 1421.36 362.61 1417.72 362.48C1414.07 362.35 1415.31 363.587 1415.31 364.889C1415.31 366.191 1416.41 367.103 1417.72 367.298C1429.7 368.73 1441.74 370.163 1453.72 371.595V366.777C1444.54 365.996 1435.36 365.28 1426.18 364.498C1424.88 364.368 1423.77 365.67 1423.77 366.907C1423.77 368.144 1424.88 369.186 1426.18 369.316Z" fill="#BC0000"/>
<path d="M1406.13 356.36C1412.57 359.55 1418.95 362.741 1425.4 365.931C1426.57 366.517 1428 366.256 1428.65 365.084C1429.3 363.912 1428.98 362.415 1427.81 361.829C1421.36 358.639 1414.98 355.449 1408.54 352.259C1407.36 351.673 1405.93 351.933 1405.28 353.105C1404.7 354.147 1404.96 355.774 1406.13 356.36Z" fill="#BC0000"/>
<path d="M1412.05 357.727C1413.81 359.68 1415.5 361.568 1417.26 363.521C1419.02 365.475 1419.8 364.433 1420.65 363.521C1421.56 362.545 1421.56 361.113 1420.65 360.136C1418.89 358.183 1416.54 353.756 1414.79 351.868C1413.94 350.956 1408.21 350.696 1407.36 351.607C1406.45 352.584 1411.14 356.751 1412.05 357.727Z" fill="#BC0000"/>
<path d="M1415.05 359.29C1433.41 365.931 1453.39 367.623 1472.66 364.563C1478.13 363.717 1483.47 362.415 1488.75 360.787C1491.68 359.876 1490.44 355.253 1487.44 356.165C1469.54 361.829 1450.27 362.806 1431.84 359.095C1426.57 357.988 1421.36 356.555 1416.28 354.732C1415.05 354.277 1413.68 355.253 1413.35 356.425C1413.03 357.597 1413.81 358.899 1415.05 359.355V359.29Z" fill="#BC0000"/>
<path d="M1366.48 121.006C1367.19 122.243 1367.91 123.545 1368.69 124.782C1369.93 126.931 1373.77 126.149 1373.57 123.48C1373.38 121.071 1371.23 119.248 1368.82 120.225C1366.87 120.941 1366.02 123.61 1367.26 125.368V122.699C1366.35 124.196 1365.44 125.694 1364.53 127.126C1366.15 127.582 1367.78 128.038 1369.41 128.428C1369.67 124.522 1369.86 120.616 1370.12 116.774C1368.63 117.36 1367.13 118.011 1365.63 118.597C1367.13 120.42 1368.56 122.308 1370.06 124.131C1371.88 126.41 1375.85 123.415 1374.16 120.941C1372.6 118.662 1370.97 116.384 1369.41 114.105C1368.04 115.147 1366.67 116.188 1365.31 117.295C1368.82 120.876 1372.34 124.522 1375.79 128.103C1376.18 126.67 1376.57 125.173 1376.96 123.741C1368.43 126.019 1359.9 128.298 1351.44 130.577C1351.89 132.269 1352.35 133.962 1352.81 135.655C1357.17 133.962 1361.53 132.334 1365.89 130.642C1367 130.251 1367.85 129.34 1367.85 128.103C1367.85 126.866 1367.06 125.824 1365.89 125.564C1365.7 125.564 1365.24 125.303 1365.7 125.564C1366.15 125.824 1365.7 125.564 1365.57 125.433C1365.83 125.889 1365.57 125.238 1365.63 125.564C1365.7 125.889 1365.57 125.238 1365.5 125.108C1365.44 124.782 1365.63 125.498 1365.5 125.043C1365.37 124.587 1365.5 125.498 1365.5 124.847V124.652C1365.5 124.978 1365.5 124.978 1365.57 124.652C1365.44 124.782 1364.98 125.108 1365.44 124.847H1362.77C1363.55 125.368 1364.33 125.889 1365.11 126.41C1366.74 127.517 1369.15 126.084 1369.08 124.131C1369.08 122.308 1368.95 120.485 1368.89 118.728C1367.39 119.313 1365.89 119.965 1364.39 120.55C1367.72 123.22 1371.1 125.889 1374.42 128.558C1375.01 127.061 1375.66 125.564 1376.24 124.066C1364.72 125.564 1353.91 130.316 1345.12 137.933C1344.15 138.78 1344.15 140.407 1344.93 141.384C1345.77 142.491 1347.08 142.621 1348.31 142.035C1355.67 138.585 1363.09 135.134 1370.45 131.683C1369.54 130.186 1368.69 128.689 1367.78 127.191C1366.02 128.363 1364.26 129.535 1362.57 130.642C1361.47 131.358 1360.94 132.66 1361.53 133.897C1361.99 135.004 1363.35 135.85 1364.59 135.394C1367.91 134.157 1371.23 132.92 1374.55 131.749C1375.85 131.228 1376.76 129.991 1376.37 128.558C1375.98 127.191 1374.55 126.345 1373.18 126.735C1354.56 131.879 1342.26 147.96 1325.66 156.814C1321.23 159.158 1316.41 160.981 1311.46 161.567C1310.03 161.762 1308.86 162.673 1308.86 164.171C1308.86 165.668 1310.1 166.97 1311.46 166.775C1321.23 165.603 1329.89 160.981 1337.77 155.317C1345.45 149.783 1352.48 143.337 1360.49 138.259C1364.92 135.46 1369.54 133.116 1374.62 131.683C1374.16 129.991 1373.7 128.298 1373.25 126.605C1369.93 127.842 1366.61 129.079 1363.29 130.251C1363.94 131.879 1364.66 133.441 1365.31 135.069C1367.06 133.897 1368.82 132.725 1370.51 131.618C1373.38 129.73 1370.91 125.694 1367.85 127.126C1360.49 130.577 1353.07 134.027 1345.71 137.478C1346.75 138.845 1347.79 140.212 1348.9 141.579C1356.52 134.939 1366.22 130.512 1376.31 129.209C1377.35 129.079 1378.26 128.689 1378.72 127.582C1379.17 126.475 1378.98 125.368 1378.2 124.717C1374.88 122.048 1371.49 119.379 1368.17 116.709C1364.85 114.04 1366.35 115.733 1365.31 116.188C1364.39 116.579 1363.68 117.556 1363.68 118.597C1363.68 120.42 1363.81 122.243 1363.87 124.001C1365.18 123.22 1366.48 122.504 1367.85 121.722C1367.06 121.202 1366.28 120.681 1365.5 120.16C1364.72 119.639 1363.61 119.704 1362.83 120.16C1358.86 122.569 1359.64 129.47 1364.39 130.446V125.368C1360.03 127.061 1355.67 128.689 1351.31 130.381C1350.01 130.902 1349.1 132.139 1349.49 133.571C1349.88 134.939 1351.31 135.785 1352.68 135.394C1361.2 133.116 1369.73 130.837 1378.2 128.558C1380.15 128.038 1380.74 125.564 1379.37 124.196C1375.85 120.616 1372.34 116.97 1368.89 113.389C1366.87 111.306 1363.03 114.04 1364.79 116.579C1366.35 118.858 1367.98 121.136 1369.54 123.415C1370.91 122.373 1372.27 121.332 1373.64 120.225C1372.14 118.402 1370.71 116.514 1369.21 114.691C1368.56 113.91 1367.19 113.78 1366.35 114.17C1365.37 114.626 1364.79 115.472 1364.72 116.579C1364.46 120.485 1364.26 124.392 1364 128.233C1363.74 132.074 1367.59 131.618 1368.89 129.535C1369.8 128.038 1370.71 126.54 1371.62 125.108C1372.08 124.392 1372.14 123.155 1371.62 122.439C1371.3 123.22 1370.97 124.066 1370.64 124.847H1369.28L1368.56 124.327C1368.43 123.871 1368.3 123.415 1368.24 123.024V123.285C1369.86 122.829 1371.49 122.373 1373.12 121.983C1372.4 120.746 1371.69 119.444 1370.91 118.207C1369.21 115.277 1364.72 117.946 1366.41 120.876L1366.48 121.006Z" fill="#BC0000"/>
<path d="M1359.06 112.346C1362.83 115.797 1366.61 119.248 1370.38 122.698C1371.36 123.544 1372.79 123.74 1373.83 122.893C1374.81 122.112 1375.27 120.615 1374.49 119.508C1372.21 116.188 1369.93 112.867 1367.58 109.482C1366.41 110.654 1365.18 111.891 1364 113.063C1369.15 116.513 1373.51 121.07 1376.83 126.279C1378.65 129.143 1382.88 126.669 1381.32 123.61C1377.94 116.904 1372.53 111.24 1365.96 107.594C1364.85 106.943 1363.35 107.203 1362.57 108.245C1361.86 109.221 1361.73 110.849 1362.77 111.695C1367.91 115.797 1372.21 120.81 1375.33 126.604C1376.76 129.209 1380.93 127.451 1380.15 124.586C1378.39 118.466 1374.29 113.193 1368.82 109.937C1366.54 108.57 1363.94 111.24 1365.24 113.518C1366.87 116.318 1368.56 119.117 1370.19 121.982C1371.04 123.414 1371.88 124.847 1372.73 126.279C1373.05 126.865 1373.51 127.451 1373.77 128.037C1374.1 128.753 1373.77 128.362 1374.1 128.102C1373.9 128.102 1374.42 127.841 1374.1 128.102C1374.29 128.102 1373.64 128.232 1373.51 128.232C1373.31 128.232 1373.31 128.232 1373.51 128.232H1373.25C1372.99 128.232 1372.73 128.232 1372.4 128.232C1370.91 128.232 1369.34 128.102 1367.85 128.037C1364.59 127.841 1361.27 127.711 1358.01 127.516C1358.27 129.209 1358.47 130.966 1358.73 132.659C1363.29 131.878 1367.85 131.097 1372.4 130.315C1373.51 130.12 1374.68 129.925 1375.79 129.729C1376.89 129.534 1376.63 129.534 1377.09 129.534C1376.63 129.534 1377.81 129.534 1377.81 129.534C1377.68 129.534 1377.61 129.534 1377.48 129.469C1376.83 129.013 1376.7 128.427 1377.03 127.711L1377.22 127.581C1377.09 127.516 1376.37 127.581 1376.18 127.581C1375.59 127.581 1375.01 127.386 1374.49 127.321C1365.5 125.953 1356.52 124.586 1347.47 123.284C1346.1 123.089 1344.67 123.61 1344.28 125.107C1343.95 126.344 1344.67 128.102 1346.1 128.297C1354.69 129.599 1363.22 130.901 1371.82 132.138C1373.9 132.464 1376.18 133.115 1378.33 132.659C1380.48 132.203 1382.17 130.38 1382.1 128.232C1382.1 125.888 1380.02 124.391 1377.81 124.261C1375.59 124.13 1373.77 124.781 1371.82 125.107C1367 125.953 1362.12 126.8 1357.3 127.581C1356.06 127.776 1355.21 129.274 1355.41 130.446C1355.61 131.748 1356.65 132.659 1358.01 132.724C1361.86 132.92 1365.7 133.115 1369.54 133.31C1372.53 133.44 1376.37 133.961 1378.33 131.097C1380.67 127.711 1377.35 123.805 1375.72 120.94C1373.7 117.555 1371.75 114.169 1369.73 110.849C1368.56 112.021 1367.32 113.258 1366.15 114.43C1370.45 116.969 1373.7 121.136 1375.07 125.953C1376.7 125.302 1378.26 124.586 1379.89 123.935C1376.57 117.815 1372.01 112.281 1366.54 107.984C1365.5 109.352 1364.46 110.719 1363.35 112.086C1369.21 115.341 1373.83 120.224 1376.83 126.214C1378.33 125.302 1379.82 124.456 1381.32 123.544C1377.55 117.49 1372.53 112.411 1366.67 108.44C1364.52 107.008 1361.6 109.872 1363.09 112.021C1365.37 115.341 1367.65 118.662 1369.99 122.047C1371.36 121.005 1372.73 119.964 1374.1 118.857C1370.32 115.406 1366.54 111.956 1362.77 108.505C1358.99 105.055 1360.1 107.463 1359.06 108.505C1358.08 109.482 1358.01 111.24 1359.06 112.216V112.346Z" fill="#BC0000"/>
<path d="M1206.78 308.378C1213.03 312.415 1214.39 321.334 1209.38 327.063C1210.88 327.649 1212.38 328.3 1213.87 328.886C1213.74 327.649 1213.61 326.477 1213.42 325.24C1213.16 323.027 1210.75 321.725 1208.92 323.417C1208.99 323.352 1209.06 323.417 1209.19 323.352C1208.92 323.483 1208.92 323.352 1208.92 323.352C1208.92 323.417 1208.73 323.222 1208.99 323.352C1209.25 323.483 1209.38 323.678 1208.99 323.287C1208.4 324.785 1207.75 326.282 1207.17 327.779C1211.59 327.649 1214.52 323.873 1215.37 319.837C1215.83 317.688 1215.76 315.54 1215.63 313.326C1215.5 311.243 1215.37 308.899 1216.28 306.946C1216.93 305.709 1216.61 304.081 1215.37 303.365C1214.2 302.714 1212.44 303.04 1211.79 304.277C1210.75 306.36 1210.36 308.573 1210.36 310.852C1210.36 313.131 1210.62 315.019 1210.49 317.102C1210.36 319.186 1210.03 319.706 1209.38 320.878C1209.25 321.074 1209.12 321.269 1208.99 321.464C1209.12 321.269 1208.99 321.464 1208.92 321.594C1208.79 321.725 1208.21 322.246 1208.47 322.05C1208.34 322.18 1208.21 322.246 1208.01 322.311C1207.62 322.571 1208.01 322.311 1207.82 322.441C1207.62 322.571 1207.49 322.571 1207.3 322.571C1206.84 322.636 1207.88 322.571 1207.04 322.571C1204.76 322.571 1203.59 325.436 1205.21 327.063C1207.23 329.147 1210.49 329.082 1212.64 327.128C1211.14 326.542 1209.64 325.891 1208.14 325.305C1208.27 326.542 1208.4 327.714 1208.6 328.951C1208.79 330.188 1209.19 330.904 1210.23 331.36C1211.14 331.751 1212.38 331.621 1213.09 330.839C1216.67 326.738 1218.3 321.399 1217.45 315.995C1216.67 311.047 1213.61 306.62 1209.45 303.886C1208.27 303.105 1206.58 303.625 1205.86 304.797C1205.15 305.969 1205.6 307.597 1206.78 308.378Z" fill="#BC0000"/>
<path d="M1212.64 304.667C1213.16 304.797 1213.55 305.123 1213.87 305.644C1214.2 306.165 1214.13 306.034 1214.2 306.49C1214.2 306.23 1214.2 307.402 1214.2 307.141C1215.89 307.402 1217.65 307.597 1219.34 307.857C1219.08 303.756 1214.91 300.5 1210.88 301.803C1211.92 302.389 1213.03 303.04 1214.07 303.625C1213.55 302.323 1213.03 301.021 1212.51 299.784C1211.98 298.482 1210.75 297.571 1209.32 297.961C1208.01 298.352 1207.04 299.849 1207.49 301.152C1208.86 305.253 1212.05 308.443 1216.22 309.68C1215.63 309.094 1214.98 308.443 1214.39 307.857C1215.83 312.74 1217.26 317.558 1218.76 322.441C1220.45 321.985 1222.14 321.529 1223.83 321.074C1223.05 318.535 1222.27 315.995 1221.49 313.391C1220.64 310.657 1216.22 311.047 1216.35 314.107C1216.41 316.842 1216.41 319.641 1216.61 322.376C1216.8 325.045 1217.13 327.714 1217.39 330.384C1217.52 329.928 1217.65 329.472 1217.71 329.082C1217.06 329.993 1216.41 330.97 1215.76 331.881C1217.39 332.076 1218.95 332.272 1220.58 332.532C1220.12 330.384 1219.67 328.235 1219.21 326.087C1218.76 324.003 1215.3 323.352 1214.39 325.436C1213.48 327.519 1213.09 328.561 1212.38 330.123C1214 330.774 1215.57 331.49 1217.19 332.141C1217.45 330.514 1217.65 328.951 1217.91 327.324C1216.28 327.519 1214.72 327.714 1213.09 327.975C1213.74 329.472 1214.46 330.904 1215.11 332.402C1215.57 333.313 1216.8 333.769 1217.71 333.639C1218.82 333.444 1219.54 332.793 1219.86 331.751C1220.25 330.644 1220.71 329.537 1221.1 328.431C1219.47 328.626 1217.91 328.821 1216.28 329.082C1217.06 330.384 1217.78 331.621 1218.56 332.923C1219.34 334.29 1221.56 334.746 1222.66 333.444C1223.38 332.597 1224.16 331.751 1224.88 330.904C1224.03 331.1 1223.18 331.36 1222.34 331.556C1227.09 332.662 1230.6 337.155 1230.6 341.972C1232.23 341.517 1233.86 341.061 1235.49 340.67C1232.04 333.378 1228.59 326.087 1225.14 318.73C1224.16 320.032 1223.18 321.269 1222.21 322.571C1231.06 325.305 1237.96 333.053 1239.78 342.168C1240.37 345.032 1245.19 344.446 1244.93 341.452C1244.8 340.28 1244.73 339.108 1244.6 337.871C1244.47 336.569 1243.69 335.462 1242.32 335.267C1240.96 335.071 1239.65 335.852 1239.46 337.155C1239.2 338.717 1238.94 340.345 1238.68 341.907H1243.76C1243.04 340.084 1242.32 338.261 1241.61 336.438C1240.89 334.615 1240.57 334.681 1239.46 334.55C1238.48 334.42 1237.31 334.876 1236.85 335.787C1236.01 337.48 1235.23 339.108 1234.38 340.8C1236.01 340.996 1237.57 341.191 1239.2 341.452C1238.35 337.415 1237.51 333.444 1236.66 329.407C1235.03 330.058 1233.47 330.774 1231.84 331.425C1233.53 334.355 1235.23 337.35 1236.92 340.28C1238.29 339.238 1239.65 338.196 1241.02 337.089C1238.87 334.941 1236.66 332.793 1234.51 330.644C1232.36 328.496 1229.43 330.644 1230.15 333.183C1231.19 336.959 1232.23 340.735 1233.27 344.511C1234.06 347.246 1238.68 346.855 1238.42 343.795C1237.51 332.141 1226.96 322.311 1215.17 322.636C1212.31 322.701 1211.53 327.063 1214.46 327.779C1217.32 328.431 1221.16 329.212 1222.53 331.946C1222.34 331.556 1222.6 332.337 1222.66 332.467C1222.66 332.793 1222.73 332.597 1222.66 332.467C1222.66 332.662 1222.66 332.793 1222.66 332.988C1222.66 333.183 1222.6 333.964 1222.66 333.509C1222.66 333.834 1222.53 334.16 1222.4 334.42C1222.27 334.681 1222.27 334.681 1222.4 334.42C1222.34 334.55 1222.27 334.681 1222.21 334.811C1222.01 335.201 1222.34 334.746 1222.21 334.941C1222.08 335.136 1222.01 335.136 1221.88 335.267C1221.62 335.527 1222.21 335.071 1221.88 335.267C1221.56 335.462 1221.42 335.462 1221.69 335.397C1221.95 335.332 1221.56 335.397 1221.49 335.397C1221.1 335.397 1222.14 335.397 1221.36 335.397C1222.14 336.699 1222.86 338.001 1223.64 339.368C1224.35 337.871 1225.14 336.438 1225.85 334.941C1226.37 333.899 1226.31 332.597 1225.46 331.751C1224.68 330.97 1223.25 330.644 1222.27 331.36C1220.58 332.532 1218.95 333.769 1217.26 334.941C1216.09 335.787 1215.57 337.22 1216.35 338.522C1217.06 339.759 1218.69 340.149 1219.93 339.433C1221.62 338.522 1223.25 337.61 1224.94 336.699C1223.64 335.918 1222.34 335.201 1220.97 334.42C1220.77 336.959 1222.21 339.108 1224.16 340.54C1226.18 341.972 1228.65 342.428 1231.06 342.363C1233.27 342.233 1236.27 341.517 1238.09 341.907C1239.91 342.298 1239.65 342.363 1240.24 342.754C1240.11 342.623 1240.57 343.014 1240.63 343.079L1240.83 343.274C1240.7 343.144 1240.7 343.144 1240.83 343.274C1240.89 343.405 1241.09 343.795 1240.96 343.47C1240.96 343.535 1241.09 344.251 1241.09 343.86C1242.58 343.274 1244.08 342.623 1245.58 342.037C1243.3 340.149 1241.02 338.326 1238.74 336.438C1237.7 337.806 1236.66 339.173 1235.55 340.54C1244.6 346.985 1256.52 349.004 1267.26 346.074C1268.63 345.683 1269.47 344.186 1269.08 342.884C1268.69 341.451 1267.26 340.735 1265.89 341.061C1260.03 342.298 1254.17 343.47 1248.31 344.707C1245.45 345.293 1246.03 350.176 1249.03 349.85C1262.64 348.483 1275.79 343.535 1286.73 335.397C1287.83 334.55 1288.42 333.118 1287.64 331.816C1286.99 330.709 1285.23 330.058 1284.06 330.904C1282.69 331.881 1281.26 332.923 1279.89 333.899C1279.17 334.42 1278.72 334.746 1277.87 335.006C1277.02 335.267 1276.24 335.462 1275.4 335.722C1276.24 337.155 1277.09 338.652 1277.94 340.084C1279.76 338.131 1281.58 336.178 1283.34 334.225H1279.63C1281.91 336.243 1284.19 338.261 1286.46 340.28C1287.51 341.191 1289.13 341.321 1290.18 340.28C1291.15 339.303 1291.22 337.545 1290.18 336.569C1288.22 334.876 1286.33 333.183 1284.38 331.425C1283.53 332.858 1282.69 334.355 1281.84 335.787C1293.43 338.522 1305.02 341.256 1316.61 344.056C1316.87 342.363 1317.06 340.605 1317.32 338.912C1304.95 337.936 1292.58 336.829 1280.21 335.983C1267.84 335.136 1257.1 335.983 1245.9 339.173C1239.72 340.931 1233.73 343.405 1228 346.465C1225.79 347.636 1226.7 351.543 1229.3 351.347C1235.49 350.957 1241.74 350.501 1247.92 350.11C1254.11 349.72 1250.53 349.004 1250.53 347.506C1250.53 346.009 1249.35 344.772 1247.92 344.902C1241.74 345.293 1235.49 345.748 1229.3 346.139C1229.76 347.767 1230.21 349.394 1230.6 351.022C1240.11 345.944 1250.66 342.623 1261.33 341.452C1273.12 340.149 1284.97 341.647 1296.75 342.558C1308.54 343.47 1310.42 343.665 1317.32 344.186C1320.25 344.446 1320.84 339.694 1318.04 339.043C1306.45 336.308 1294.86 333.574 1283.27 330.774C1280.87 330.188 1278.65 333.313 1280.74 335.136C1282.82 336.959 1284.58 338.522 1286.53 340.28C1287.77 339.043 1289 337.806 1290.24 336.569C1287.96 334.55 1285.68 332.532 1283.4 330.514C1282.36 329.602 1280.74 329.407 1279.69 330.514C1277.87 332.467 1276.05 334.42 1274.29 336.373C1272.53 338.326 1274.29 341.517 1276.83 340.735L1279.5 339.954C1280.54 339.629 1281.32 339.238 1282.17 338.652C1283.67 337.545 1285.23 336.504 1286.73 335.397C1285.81 333.899 1284.97 332.402 1284.06 330.904C1273.83 338.522 1261.66 343.405 1248.96 344.642C1249.22 346.334 1249.42 348.092 1249.68 349.785C1255.54 348.548 1261.4 347.376 1267.26 346.139C1266.8 344.446 1266.35 342.754 1265.89 341.061C1256.45 343.665 1246.23 341.712 1238.22 336.048C1235.81 334.355 1232.75 338.261 1235.03 340.149C1237.31 342.037 1239.59 343.86 1241.87 345.748C1242.71 346.399 1243.69 346.725 1244.73 346.269C1245.64 345.879 1246.43 344.902 1246.36 343.86C1245.9 338.652 1240.7 336.308 1236.01 336.569C1234.64 336.634 1233.34 336.894 1231.97 336.959C1231.32 336.959 1230.6 337.024 1229.95 337.024C1229.3 337.024 1229.3 337.024 1228.85 336.894C1228.07 336.699 1227.41 336.373 1226.89 335.852C1226.37 335.332 1226.5 335.462 1226.37 335.201C1226.44 335.397 1226.24 334.811 1226.24 334.746C1226.24 335.201 1226.24 334.355 1226.24 334.29C1226.44 332.207 1223.9 331.165 1222.27 332.011C1220.58 332.923 1218.95 333.834 1217.26 334.746C1218.17 336.243 1219.02 337.741 1219.93 339.238C1221.62 338.066 1223.25 336.829 1224.94 335.657C1223.77 334.485 1222.53 333.248 1221.36 332.076C1220.64 333.574 1219.86 335.006 1219.15 336.504C1218.43 338.001 1219.34 340.475 1221.42 340.475C1226.37 340.475 1228.91 334.941 1227.74 330.644C1226.37 325.501 1220.58 323.613 1215.96 322.506C1215.7 324.199 1215.5 325.957 1215.24 327.649C1224.03 327.389 1232.56 334.811 1233.21 343.535C1234.9 343.274 1236.66 343.079 1238.35 342.819C1237.31 339.043 1236.27 335.267 1235.23 331.49C1233.79 332.337 1232.3 333.183 1230.87 334.03C1233.01 336.178 1235.23 338.326 1237.38 340.475C1239.46 342.558 1242.97 339.889 1241.48 337.285C1239.98 334.681 1238.09 331.36 1236.4 328.431C1234.71 325.501 1231 327.584 1231.58 330.449C1232.43 334.485 1233.27 338.457 1234.12 342.493C1234.58 344.642 1237.96 345.097 1238.94 343.144C1239.78 341.451 1240.57 339.824 1241.41 338.131C1239.78 337.936 1238.22 337.741 1236.59 337.48C1237.31 339.303 1238.03 341.126 1238.74 342.949C1239.2 344.056 1240.04 344.902 1241.28 344.902C1242.52 344.902 1243.63 344.121 1243.82 342.949C1244.08 341.386 1244.34 339.759 1244.6 338.196C1242.91 337.936 1241.15 337.741 1239.46 337.48C1239.59 338.652 1239.65 339.824 1239.78 341.061L1244.93 340.345C1242.71 329.472 1234.25 320.357 1223.7 317.102C1213.16 313.847 1219.8 318.99 1220.77 320.943C1224.22 328.235 1227.67 335.527 1231.13 342.884C1232.3 345.293 1236.01 343.991 1236.01 341.582C1236.01 334.42 1230.87 327.779 1223.9 326.152C1223.05 325.957 1221.95 326.152 1221.36 326.803C1220.64 327.649 1219.86 328.496 1219.15 329.342C1220.51 329.537 1221.88 329.667 1223.25 329.863C1222.47 328.561 1221.75 327.324 1220.97 326.022C1219.73 323.938 1216.93 324.589 1216.15 326.673C1215.37 328.756 1215.3 328.886 1214.91 329.993C1216.54 329.798 1218.1 329.602 1219.73 329.342C1219.08 327.845 1218.36 326.412 1217.71 324.915C1216.8 322.962 1213.22 323.352 1212.9 325.566C1212.64 327.194 1212.44 328.756 1212.18 330.384C1211.92 332.011 1212.38 332.923 1213.68 333.444C1214.98 333.964 1216.41 333.574 1216.93 332.402C1217.58 330.839 1218.23 329.277 1218.95 327.714C1217.32 327.519 1215.76 327.324 1214.13 327.063C1214.59 329.212 1215.04 331.36 1215.5 333.509C1215.96 335.657 1216.74 335.267 1217.65 335.397C1218.76 335.527 1219.6 335.071 1220.25 334.16L1221.75 332.076C1222.4 331.165 1222.6 330.319 1222.53 329.212C1222.34 327.519 1222.21 325.826 1222.01 324.134C1221.69 320.683 1221.62 317.232 1221.56 313.782C1219.86 314.042 1218.1 314.238 1216.41 314.498C1217.19 317.037 1217.97 319.576 1218.76 322.18C1219.54 324.785 1224.75 324.003 1223.83 320.813C1222.47 316.191 1221.1 311.503 1219.67 306.881C1219.41 306.099 1219.21 305.383 1218.56 304.928C1217.91 304.472 1217.52 304.407 1216.93 304.211C1216.54 304.081 1215.63 303.495 1215.24 303.235C1213.94 302.258 1213.03 300.956 1212.57 299.589C1210.88 300.045 1209.19 300.5 1207.49 300.956C1208.01 302.258 1208.53 303.56 1209.05 304.797C1209.58 306.034 1210.81 307.141 1212.25 306.62C1212.25 306.62 1212.96 306.425 1212.7 306.49C1212.44 306.555 1213.03 306.555 1212.83 306.49C1212.64 306.425 1213.22 306.62 1213.29 306.62C1212.96 306.49 1213.48 306.751 1213.55 306.816C1213.55 306.816 1214 307.271 1213.87 307.141C1213.87 307.206 1214.07 307.532 1214 307.271C1214 307.337 1214.13 308.053 1214.13 307.662C1214.2 308.964 1215.04 310.071 1216.41 310.266C1217.65 310.396 1219.02 309.68 1219.28 308.378C1220.06 304.472 1217.91 300.631 1214 299.459C1210.75 298.482 1209.38 303.56 1212.64 304.537V304.667Z" fill="#BC0000"/>
<path d="M1226.31 327.649C1226.31 329.277 1226.31 330.904 1226.31 332.532C1226.31 333.964 1227.48 335.136 1228.91 335.136C1230.34 335.136 1231.45 333.964 1231.52 332.532C1231.58 331.1 1232.95 328.951 1233.01 327.519C1231.25 327.519 1228.26 328.235 1226.5 328.235C1226.5 331.621 1226.44 335.006 1226.37 338.457C1228.06 338.196 1229.82 338.001 1231.52 337.74C1231.39 337.024 1231.19 336.308 1231.06 335.592C1230.54 333.378 1227.35 333.053 1226.24 334.941C1225.13 336.894 1224.09 338.782 1222.99 340.735C1224.61 341.191 1226.24 341.647 1227.87 342.037C1228 340.67 1228.19 339.303 1228.33 337.936C1226.83 338.522 1225.33 339.173 1223.83 339.759C1231.65 349.134 1244.93 355.644 1257.3 353.821C1261.14 353.235 1264.65 351.543 1267.58 349.004C1269.08 347.701 1268.3 345.032 1266.41 344.642C1262.83 343.795 1259.18 342.949 1255.6 342.102L1254.89 347.246C1257.95 347.246 1261.01 347.376 1264.07 347.376V342.168C1261.07 342.168 1258.08 342.037 1255.02 342.037V347.246C1257.62 347.246 1260.23 347.246 1262.83 347.246V342.037C1259.64 342.168 1256.45 342.233 1253.26 342.363V347.571C1259.77 347.246 1266.35 346.92 1272.86 346.595C1274.29 346.53 1275.46 345.423 1275.46 343.99C1275.46 342.558 1274.29 341.321 1272.86 341.386C1266.35 341.712 1259.77 342.037 1253.26 342.363C1251.83 342.428 1250.66 343.535 1250.66 344.967C1250.66 346.399 1251.83 347.636 1253.26 347.571C1256.45 347.441 1259.64 347.376 1262.83 347.246C1266.22 347.116 1266.22 342.037 1262.83 342.037C1260.23 342.037 1257.62 342.037 1255.02 342.037C1251.63 342.037 1251.63 347.246 1255.02 347.246C1258.01 347.246 1261.01 347.376 1264.07 347.376C1267.45 347.376 1267.45 342.168 1264.07 342.168C1261.01 342.168 1257.95 342.037 1254.89 342.037C1251.96 342.037 1251.31 346.464 1254.17 347.181C1257.75 348.027 1261.4 348.873 1264.98 349.72C1264.59 348.287 1264.2 346.79 1263.81 345.358C1258.27 350.175 1250.33 349.459 1243.82 347.311C1237.44 345.227 1231.78 341.256 1227.48 336.113C1226.83 335.332 1225.53 335.201 1224.61 335.592C1223.57 336.048 1223.12 336.894 1222.99 338.001C1222.86 339.368 1222.66 340.735 1222.53 342.102C1222.27 344.772 1226.24 345.553 1227.41 343.405C1228.52 341.451 1229.56 339.563 1230.67 337.61C1229.04 337.415 1227.48 337.22 1225.85 336.959C1225.98 337.675 1226.18 338.391 1226.31 339.108C1226.96 342.037 1231.39 341.321 1231.45 338.391C1231.45 335.006 1231.52 331.621 1231.58 328.17C1231.58 326.738 1230.34 325.566 1228.98 325.566C1227.61 325.566 1226.44 326.738 1226.37 328.17C1226.31 329.602 1226.24 331.035 1226.11 332.467H1231.32C1231.32 330.839 1231.32 329.212 1231.32 327.584C1231.32 324.199 1226.11 324.199 1226.11 327.584L1226.31 327.649Z" fill="#BC0000"/>
<path d="M1278.2 339.759C1269.86 338.782 1261.33 339.759 1253.46 342.754C1252.22 343.209 1251.44 344.381 1251.76 345.683C1252.09 346.985 1253.46 347.636 1254.69 347.376C1258.21 346.53 1261.72 345.683 1265.31 344.772C1264.52 343.47 1263.74 342.103 1262.96 340.8C1261.27 342.168 1259.05 342.363 1257.1 341.777C1256.91 343.34 1256.65 344.902 1256.45 346.465C1259.25 346.139 1262.05 345.814 1264.78 345.423C1266.09 345.293 1267.19 344.446 1267.19 343.014C1267.19 341.582 1266.09 340.475 1264.78 340.605C1261.98 340.931 1259.19 341.256 1256.45 341.647C1255.28 341.777 1254.24 342.428 1254.11 343.73C1253.98 345.032 1254.63 346.009 1255.8 346.334C1259.51 347.506 1263.35 346.53 1266.28 344.121C1267.06 343.47 1267.13 342.037 1266.67 341.191C1266.22 340.345 1264.98 339.824 1263.94 340.084C1260.42 340.931 1256.91 341.777 1253.33 342.688C1253.78 344.251 1254.17 345.748 1254.63 347.311C1262.18 344.511 1270.12 343.6 1278.13 344.511C1279.43 344.642 1280.54 343.274 1280.54 342.103C1280.54 340.931 1279.43 339.889 1278.13 339.694L1278.2 339.759Z" fill="#BC0000"/>
<path d="M1271.36 345.553C1275.2 346.724 1279.69 345.683 1282.49 342.753C1285.29 339.823 1286.27 335.331 1284.9 331.555C1283.73 332.467 1282.56 333.378 1281.39 334.289C1288.35 337.805 1295.25 341.256 1302.22 344.771C1303.39 345.357 1304.82 345.097 1305.48 343.925C1306.13 342.753 1305.8 341.256 1304.63 340.67C1297.66 337.154 1290.76 333.703 1283.8 330.188C1282.95 329.732 1281.91 329.732 1281.13 330.383C1280.34 331.034 1279.95 332.011 1280.28 332.922C1281.06 335.136 1280.8 337.675 1279.11 339.433C1277.41 341.191 1274.88 341.711 1272.66 340.995C1269.73 340.084 1268.43 344.706 1271.36 345.618V345.553Z" fill="#BC0000"/>
<path d="M1254.37 274.133C1247.34 279.667 1239.85 285.657 1236.01 293.99C1232.75 301.152 1232.82 309.876 1237.31 316.516C1239.65 320.032 1243.17 322.701 1247.4 323.483C1248.44 323.678 1249.49 323.483 1250.14 322.571C1250.79 321.66 1250.98 320.488 1250.33 319.641C1243.95 311.048 1242.71 299.133 1247.53 289.563C1248.18 288.326 1247.86 286.698 1246.62 285.982C1245.38 285.266 1243.69 285.657 1243.04 286.894C1238.16 296.464 1237.38 308.053 1241.35 318.079C1242.58 321.269 1246.88 320.032 1246.43 316.712C1244.15 301.672 1252.28 287.219 1261.33 275.891C1270.77 264.042 1282.3 254.016 1291.02 241.646C1295.84 234.875 1299.68 227.388 1301.57 219.25C1301.89 217.882 1301.11 216.385 1299.75 216.059C1298.44 215.669 1296.82 216.515 1296.56 217.882C1293.17 232.401 1283.27 243.989 1273.38 254.732C1262.77 266.19 1251.5 277.519 1245.25 292.037C1241.67 300.37 1239.98 309.16 1241.35 318.209C1243.04 317.753 1244.73 317.298 1246.43 316.842C1242.97 308.118 1243.3 298.092 1247.6 289.693C1246.1 288.782 1244.6 287.935 1243.1 287.024C1237.51 298.157 1238.48 312.285 1245.9 322.376C1246.88 321.074 1247.86 319.837 1248.83 318.535C1247.14 318.209 1246.29 317.949 1244.93 316.972C1244.73 316.842 1244.6 316.712 1244.41 316.582C1244.08 316.321 1244.67 316.777 1244.34 316.582C1244.02 316.386 1243.76 316.061 1243.5 315.8C1243.24 315.54 1243.04 315.345 1242.78 315.084C1242.52 314.824 1242.58 314.824 1242.45 314.693C1242.06 314.238 1242.52 314.824 1242.26 314.433C1241.35 313.196 1240.57 311.699 1240.18 310.592C1239.91 309.811 1239.65 309.029 1239.46 308.248C1239.39 307.923 1239.33 307.532 1239.26 307.141C1239.13 306.49 1239.2 306.816 1239.13 306.165C1238.81 302.779 1239.13 300.045 1240.57 296.855C1242.19 293.209 1244.6 290.019 1247.4 287.154C1250.72 283.769 1254.43 280.774 1258.14 277.909C1259.25 277.063 1259.06 275.11 1258.14 274.198C1257.23 273.287 1255.54 273.352 1254.43 274.198L1254.37 274.133Z" fill="#BC0000"/>
<path d="M1372.86 222.96C1365.76 237.088 1349.81 242.687 1335.16 244.705C1330.28 245.421 1325.33 245.747 1320.38 246.137C1318.69 246.268 1318.69 248.872 1320.38 248.742C1336.86 247.505 1354.69 245.877 1367.52 234.223C1370.65 231.424 1373.25 228.038 1375.14 224.262C1375.92 222.765 1373.64 221.463 1372.86 222.96Z" fill="#BC0000"/>
<path d="M1362.9 219.249C1357.1 227.322 1347.79 232.661 1337.9 233.507C1336.2 233.637 1336.2 236.241 1337.9 236.111C1348.77 235.2 1358.86 229.405 1365.18 220.551C1366.15 219.184 1363.87 217.882 1362.9 219.249Z" fill="#BC0000"/>
<path d="M1480.09 143.727C1463.68 140.016 1446.36 140.928 1430.48 146.462L1431.97 147.048C1424.29 134.938 1411.79 126.149 1397.73 123.089C1396.1 122.763 1395.38 125.237 1397.01 125.628C1410.36 128.558 1422.34 136.826 1429.69 148.35C1430.02 148.805 1430.61 149.131 1431.19 148.936C1446.62 143.532 1463.42 142.555 1479.44 146.201C1481.06 146.592 1481.78 144.053 1480.15 143.662L1480.09 143.727Z" fill="#BC0000"/>
<path d="M124.35 213.103C124.35 212.908 124.35 212.647 124.285 212.452C124.154 211.931 123.764 211.476 123.308 211.28C121.16 209.978 118.555 209.457 116.146 209.067C114.649 208.806 113.217 208.676 111.719 208.871C110.157 209.067 108.659 209.457 107.162 209.718C106.055 209.653 104.948 209.522 103.842 209.522C102.67 209.522 101.368 209.653 100.326 210.304C99.8702 210.629 99.5447 211.02 99.4796 211.606C99.4145 212.127 99.4795 212.778 100 213.103C100.847 213.819 101.823 214.34 102.8 214.861C102.8 214.861 102.8 214.991 102.865 215.056C102.93 215.187 102.995 215.317 103.125 215.382C103.256 215.512 103.321 215.577 103.451 215.642C103.516 215.642 103.581 215.642 103.646 215.707C103.711 215.707 103.842 215.773 103.907 215.773C104.037 215.773 104.167 215.773 104.362 215.773C104.493 215.773 104.558 215.773 104.688 215.773C104.493 216.098 104.297 216.424 104.167 216.814C103.972 217.53 103.972 218.312 104.167 219.028C104.428 219.939 105.144 220.395 105.99 220.59C107.878 220.981 109.896 220.916 111.784 220.525C113.607 220.135 115.691 219.223 116.537 217.465C116.797 216.879 116.928 216.424 116.732 215.773C116.667 215.447 116.537 215.187 116.407 214.926C116.798 214.861 117.253 214.796 117.644 214.666C117.969 214.601 118.295 214.34 118.49 214.08C119.662 214.21 120.769 214.405 121.941 214.536C122.592 214.731 123.373 214.536 123.829 213.95C123.829 213.95 123.829 213.95 123.829 213.884C123.829 213.884 123.894 213.754 123.959 213.689C124.024 213.559 124.089 213.429 124.154 213.299C124.154 213.299 124.154 213.233 124.154 213.168C124.154 213.103 124.154 213.038 124.154 212.973L124.35 213.103ZM112.305 216.814C112.305 216.814 112.24 216.814 112.175 216.814C112.175 216.814 112.24 216.814 112.305 216.749C112.305 216.749 112.435 216.749 112.501 216.684C112.501 216.684 112.37 216.684 112.305 216.749V216.814ZM110.157 217.335C110.352 217.335 110.352 217.335 110.157 217.335V217.335ZM113.282 216.163C113.282 216.163 113.282 216.098 113.347 216.033C113.347 216.033 113.347 216.033 113.347 216.098L113.282 216.163Z" fill="#BC0000"/>
<path d="M224.611 254.706C224.416 228.794 221.942 227.166 218.817 225.083C214.195 222.023 208.986 223.911 206.187 224.888C203.647 225.799 200.653 225.409 198.244 223.911C192.254 220.135 183.791 216.099 173.048 211.867C150.392 202.882 146.095 193.247 140.626 181.007C140.105 179.9 139.649 178.794 139.128 177.687C136.654 172.348 134.05 168.507 131.511 165.772C135.938 161.671 140.04 157.244 143.881 152.361C155.535 137.582 164.129 120.004 169.467 100.082C169.598 99.6909 169.663 99.3654 169.728 99.105C170.639 95.9149 169.728 92.3992 167.319 90.1205C163.217 86.2142 159.246 87.5163 152.605 89.6648C145.834 91.8783 133.269 95.9148 113.998 100.798C115.105 98.1935 116.212 95.394 117.318 92.5294C125.391 70.9145 125.847 58.2842 118.751 51.383C109.441 42.3986 95.1826 50.4716 90.4951 53.0758C86.6539 55.2242 52.4738 78.1412 33.9188 96.5008C33.0725 96.1102 32.161 95.9148 31.2496 95.7846C26.562 95.3289 21.8094 95.0685 17.1218 95.0685C-59.1812 95.0685 -121.226 157.114 -121.226 233.417C-121.226 309.72 -110.94 293.118 -93.6218 316.23C-88.7389 315.254 -84.0514 313.105 -80.08 309.785C-79.1685 309.069 -78.3872 308.287 -77.606 307.441C-93.6218 286.998 -103.192 261.281 -103.192 233.351C-103.192 169.223 -52.6707 116.618 10.6113 113.233C11.1973 113.363 11.7831 113.428 12.4342 113.428C15.429 113.428 29.036 114.925 35.5465 115.642C38.4111 115.967 41.2757 114.86 43.2289 112.777C58.3983 96.1102 95.8337 70.7843 99.3493 68.7661C102.344 67.0733 104.428 66.227 105.795 65.7712C105.599 72.9328 99.6749 90.0554 91.7972 106.071C56.5103 115.902 38.2809 144.678 37.4996 145.981C34.8954 150.212 36.1975 155.746 40.4293 158.416C44.6612 161.02 50.1951 159.718 52.8644 155.486C52.9946 155.225 69.2057 129.574 100 122.608C121.29 117.79 136.785 113.428 147.267 110.238C142.774 121.762 136.98 132.113 129.753 141.163C110.547 165.512 83.4638 178.142 49.4138 178.728C44.4008 178.793 40.4945 182.895 40.5596 187.908C40.6247 192.856 44.6612 196.762 49.544 196.762C54.4269 196.762 49.6743 196.762 49.6743 196.762C75.3257 196.307 98.1775 189.601 117.123 177.036C117.969 177.687 120.118 179.64 122.657 185.239C123.113 186.281 123.633 187.322 124.089 188.364C130.079 201.776 136.85 217.01 166.342 228.664C178.452 233.482 185.158 237.062 188.608 239.211C193.947 242.531 200.067 243.964 206.122 243.312C206.382 247.349 206.577 252.557 206.512 258.091C206.447 267.271 205.796 273.326 205.08 276.842L199.546 275.019C195.054 273.521 190.236 275.735 188.413 280.032C187.371 282.506 185.939 285.24 184.832 286.998C179.233 286.803 177.02 286.477 176.434 286.412C175.652 286.152 174.936 286.086 174.155 286.021C174.025 286.021 173.96 286.021 173.829 286.021C173.699 286.021 173.504 286.021 173.374 286.021C169.793 286.021 166.408 288.04 164.91 291.555C151.173 324.108 119.792 342.793 78.9064 342.793C38.0204 342.793 31.9006 333.743 14.2572 317.337C10.6113 313.951 4.88206 314.147 1.4966 317.793C-1.88885 321.438 -1.69357 327.168 1.95231 330.553C11.9785 339.863 23.437 347.22 35.7418 352.298C29.5568 353.275 23.3067 353.796 16.9915 353.796C-13.6078 353.796 -41.6029 342.272 -62.8922 323.392C-63.999 324.498 -65.1709 325.605 -66.4079 326.582C-69.9887 329.577 -73.9601 332.051 -78.0617 333.939C-53.2567 357.442 -19.7928 371.895 16.9915 371.895C53.7759 371.895 52.1483 368.574 68.5547 361.934C69.4011 361.608 70.1824 361.153 70.8334 360.632C73.5027 360.827 76.172 360.957 78.8413 360.957C124.74 360.957 160.678 340.644 178.582 304.967C180.926 305.162 183.921 305.292 187.762 305.358C187.827 305.358 187.957 305.358 188.022 305.358C191.603 305.358 196.16 303.925 201.304 294.811L205.015 296.048C209.637 297.61 216.343 296.568 220.184 288.756C223.179 282.636 224.611 271.243 224.546 254.901L224.611 254.706Z" fill="#BC0000"/>
<path d="M142.253 307.701C131.186 315.579 118.555 320.917 105.274 323.522C92.1876 326.061 78.3854 325.996 65.3644 323.066C57.9424 321.438 50.7809 318.899 44.0099 315.514C42.773 314.863 41.1453 315.188 40.4292 316.425C39.713 317.662 40.1037 319.355 41.3407 320.006C54.1012 326.451 68.229 329.967 82.487 330.488C96.4845 331.009 110.743 328.73 123.764 323.587C136.785 318.443 138.412 316.881 144.923 312.193C146.095 311.347 146.615 309.915 145.834 308.613C145.183 307.506 143.425 306.855 142.253 307.701Z" fill="#BC0000"/>
<path d="M140.886 233.677C146.095 239.601 152.67 244.419 159.962 247.609C163.608 249.237 167.384 250.474 171.355 251.255C173.439 251.646 175.522 251.906 177.606 252.167C179.494 252.362 181.447 252.622 183.27 253.273C184.962 253.924 185.874 254.706 186.655 256.203C187.436 257.7 186.46 255.682 186.785 256.463C186.85 256.659 186.915 256.919 186.981 257.115C187.046 257.31 187.111 257.7 187.046 257.44C186.981 257.18 187.046 257.831 187.046 257.896C187.046 258.091 187.046 258.221 187.046 258.417C187.111 257.896 186.915 258.677 186.915 258.742C186.915 258.612 187.111 258.351 186.915 258.807C186.915 258.872 186.46 259.458 186.72 259.133C185.809 260.174 185.679 261.802 186.72 262.844C187.697 263.82 189.52 263.885 190.431 262.844C193.361 259.523 192.645 254.901 189.975 251.646C187.111 248.065 182.293 247.349 177.996 246.893C169.858 245.982 162.045 243.442 155.144 239.015C151.238 236.476 147.722 233.416 144.662 229.901C143.751 228.859 141.928 228.924 140.951 229.901C139.975 230.877 140.04 232.57 140.951 233.612L140.886 233.677Z" fill="#BC0000"/>
<path d="M69.4013 163.884C88.2818 162.061 106.316 154.639 121.16 142.79C125.261 139.535 129.103 135.889 132.618 131.983C133.53 130.941 133.66 129.313 132.618 128.272C131.642 127.295 129.884 127.23 128.907 128.272C117.058 141.553 101.368 151.189 84.1802 155.876C79.3624 157.178 74.4144 158.155 69.4013 158.611C67.969 158.741 66.7971 159.717 66.7971 161.215C66.7971 162.712 67.969 163.949 69.4013 163.819V163.884Z" fill="#BC0000"/>
<path d="M70.7032 312.323C81.9664 316.75 94.8571 316.23 105.86 311.412C108.985 310.045 111.915 308.287 114.649 306.269C117.383 304.25 114.649 303.013 113.347 303.99C104.232 310.956 92.3181 314.016 80.9247 312.323C77.6695 311.868 74.4793 311.021 71.4193 309.784C69.8568 309.198 69.1407 311.672 70.7032 312.323Z" fill="#BC0000"/>
<path d="M124.415 301.19C126.108 301.19 126.108 298.586 124.415 298.586C122.722 298.586 122.722 301.19 124.415 301.19Z" fill="#BC0000"/>
<path d="M-13.087 148.324C-2.40976 143.05 10.2206 142.855 21.1582 147.347C22.4603 147.868 24.0229 146.761 24.3484 145.524C24.739 144.027 23.8275 142.855 22.5254 142.334C10.2857 137.256 -3.97227 137.972 -15.7563 143.832C-16.9933 144.483 -17.3839 146.241 -16.6678 147.412C-15.8865 148.715 -14.324 148.975 -13.087 148.324Z" fill="#BC0000"/>
<path d="M115.104 184.001C115.95 183.22 116.862 182.504 117.708 181.723C116.601 180.616 115.429 179.444 114.323 178.337C113.476 179.184 112.63 180.03 111.718 180.876C112.825 181.983 113.997 183.155 115.104 184.262C116.146 183.09 117.187 181.853 118.229 180.681C119.01 179.77 119.206 178.533 118.424 177.556C117.708 176.71 116.341 176.254 115.364 176.97C112.239 179.053 109.179 181.202 106.054 183.285C102.929 185.369 104.557 185.108 105.078 186.28C105.534 187.257 106.77 188.103 107.877 187.647C108.659 187.387 109.375 187.061 110.156 186.801C109.57 185.369 108.919 183.871 108.333 182.439C103.841 184.587 99.4137 186.736 94.9214 188.884C92.5125 190.056 94.2052 194.223 96.7443 193.246C100.52 191.814 104.296 190.317 108.073 188.884C107.487 187.452 106.836 185.955 106.25 184.522C102.213 186.345 98.1766 188.233 94.1401 190.056C94.9214 191.423 95.7678 192.791 96.549 194.158C100.455 192.27 104.427 190.382 108.333 188.494C112.239 186.606 109.83 186.28 109.179 185.238C108.463 184.001 107.096 183.871 105.924 184.392C101.041 186.541 96.0933 188.689 91.2104 190.837C91.9916 192.205 92.8381 193.572 93.6193 194.939C97.3954 193.181 101.237 191.358 105.013 189.6C103.841 188.689 102.669 187.778 101.497 186.866C101.106 188.689 99.9345 190.186 98.1767 190.772C98.7626 192.205 99.4136 193.702 99.9996 195.134C104.101 193.116 108.203 191.098 112.304 189.08C114.713 187.908 113.021 183.871 110.481 184.718C108.398 185.434 106.25 186.085 104.166 186.801C104.948 188.103 105.729 189.47 106.51 190.772C110.156 187.712 114.518 185.694 119.206 184.783C118.424 183.481 117.643 182.113 116.862 180.811C114.453 182.764 112.044 184.718 109.635 186.736C107.226 188.754 108.789 189.014 109.44 189.861C110.091 190.707 111.458 191.033 112.5 190.447C116.406 188.298 120.312 186.215 124.219 184.067C128.125 181.918 124.935 178.728 122.396 179.704C120.052 180.616 117.643 181.527 115.299 182.439C115.885 183.871 116.536 185.369 117.122 186.801C118.034 186.215 119.01 185.629 119.922 185.108C121.028 184.457 121.419 182.96 120.768 181.853C120.052 180.681 118.685 180.421 117.513 181.007C111.133 184.067 104.752 187.126 98.3068 190.186C99.0881 191.554 99.9344 192.921 100.716 194.288C102.083 193.377 103.45 192.4 104.817 191.488C105.794 190.837 106.315 189.666 105.794 188.494C105.273 187.322 104.166 186.736 102.994 187.126C99.9344 188.038 96.9396 188.884 93.8797 189.796C94.4656 191.228 95.1167 192.725 95.7026 194.158C97.5256 192.791 99.4136 191.488 101.237 190.121C102.213 189.405 102.734 188.298 102.213 187.126C101.692 185.955 100.52 185.369 99.4136 185.759C94.4656 187.387 89.5177 189.08 84.6348 190.707C83.3978 191.098 82.6166 192.335 82.9421 193.637C83.2676 194.874 84.6348 195.72 85.8718 195.33C89.9083 194.028 93.9448 192.726 97.9813 191.358C97.5256 189.796 97.135 188.298 96.6792 186.736C91.2755 188.559 85.8718 190.447 80.4681 192.27C77.6034 193.246 78.7102 197.673 81.7702 196.892C86.5879 195.655 91.3406 194.353 96.1583 193.116C95.7026 191.554 95.312 190.056 94.8562 188.494C88.8666 190.252 82.942 192.009 76.9524 193.702C77.4081 195.265 77.7987 196.762 78.2545 198.325C83.528 196.632 88.8015 195.004 94.075 193.311C99.3485 191.619 96.0933 191.619 95.7677 190.382C95.4422 189.145 94.075 188.298 92.838 188.689C87.5645 190.382 82.291 192.009 77.0175 193.702C74.0878 194.614 75.3248 199.171 78.3196 198.325C84.3093 196.567 90.2339 194.809 96.2235 193.116C99.1532 192.27 97.9162 187.712 94.9214 188.494L80.5332 192.27C80.9889 193.832 81.3795 195.33 81.8353 196.892C87.239 195.069 92.6427 193.181 98.0464 191.358C99.2834 190.968 100.065 189.731 99.7391 188.429C99.4136 187.126 98.0464 186.345 96.8094 186.736C92.7729 188.038 88.7364 189.34 84.6999 190.707C85.1556 192.27 85.5462 193.767 86.002 195.33C90.95 193.702 95.898 192.009 100.781 190.382C100.195 188.949 99.5438 187.452 98.9579 186.02C97.135 187.387 95.2469 188.689 93.424 190.056C92.4474 190.772 91.9266 191.879 92.4474 193.051C92.9031 194.093 94.075 194.809 95.2469 194.418C98.3069 193.507 101.302 192.66 104.362 191.749C103.776 190.317 103.125 188.819 102.539 187.387C101.171 188.298 99.8042 189.275 98.437 190.186C95.8979 191.944 98.0464 195.655 100.846 194.288C107.226 191.228 113.607 188.168 120.052 185.108L117.643 181.007C116.732 181.593 115.755 182.178 114.844 182.699C113.932 183.22 113.411 184.587 113.867 185.694C114.323 186.671 115.56 187.517 116.666 187.061C119.01 186.15 121.419 185.238 123.763 184.327C123.177 182.895 122.526 181.397 121.94 179.965C118.034 182.113 114.127 184.197 110.221 186.345C111.198 187.582 112.174 188.819 113.151 190.121C115.56 188.168 117.969 186.215 120.377 184.197C121.159 183.546 121.224 182.113 120.768 181.267C120.182 180.29 119.14 179.965 118.034 180.16C112.565 181.267 107.487 183.806 103.255 187.387C101.432 188.949 103.385 192.074 105.599 191.358C107.812 190.642 109.83 189.991 111.914 189.275C111.328 187.843 110.677 186.345 110.091 184.913C105.989 186.931 101.888 188.949 97.786 190.968C95.3771 192.14 97.0698 196.176 99.6089 195.33C102.929 194.223 105.533 191.554 106.25 188.103C106.705 185.955 104.622 184.522 102.734 185.369C98.9579 187.126 95.1167 188.949 91.3406 190.707C90.1688 191.228 89.8432 192.921 90.4942 193.963C91.2104 195.199 92.5776 195.33 93.7495 194.809C98.6324 192.66 103.58 190.512 108.463 188.363L106.054 184.262C102.148 186.15 98.1767 188.038 94.2704 189.926C93.0985 190.512 92.7729 192.14 93.424 193.181C94.075 194.223 95.5073 194.548 96.6792 194.028C100.716 192.205 104.752 190.317 108.789 188.494C111.198 187.387 109.505 183.155 106.966 184.132C103.19 185.564 99.4136 187.061 95.6376 188.494C96.2235 189.926 96.8745 191.423 97.4604 192.856C101.953 190.707 106.38 188.559 110.872 186.41C113.281 185.238 111.588 181.072 109.049 182.048C106.51 183.025 107.552 182.634 106.77 182.895C107.356 184.327 108.008 185.824 108.593 187.257C111.718 185.173 114.778 183.025 117.903 180.942C116.927 179.705 115.95 178.467 114.974 177.165C113.932 178.337 112.89 179.574 111.849 180.746C111.002 181.723 110.872 183.155 111.849 184.132C112.76 185.043 114.323 185.043 115.234 184.132C116.08 183.285 116.927 182.439 117.838 181.593C118.75 180.681 118.75 179.119 117.838 178.207C116.862 177.231 115.429 177.361 114.453 178.207C113.607 178.988 112.695 179.705 111.849 180.486C110.872 181.332 111.002 183.025 111.849 183.871C112.695 184.718 114.258 184.718 115.234 183.871L115.104 184.001Z" fill="#BC0000"/>
<path d="M94.857 187.973C92.5783 188.103 90.3648 188.299 88.0861 188.429C88.2815 189.991 88.5419 191.554 88.7372 193.116C90.1044 192.595 91.4065 192.009 92.7737 191.489C93.3596 191.228 93.8804 190.968 94.2059 190.382C94.5315 189.861 94.6617 189.145 94.4664 188.559C94.2711 187.973 93.9456 187.452 93.3596 187.127C92.7737 186.801 92.1226 186.671 91.5367 186.866C90.1695 187.387 88.8674 187.973 87.5002 188.494C86.9142 188.754 86.3934 189.015 86.0678 189.601C85.7423 190.187 85.7424 190.577 85.8075 191.098C85.9377 192.205 86.9793 193.246 88.1512 193.181L94.9222 192.726C95.5732 192.726 96.1591 192.465 96.6149 192.009C97.0706 191.554 97.331 190.903 97.331 190.317C97.331 189.08 96.2894 187.843 94.9222 187.908L94.857 187.973Z" fill="#BC0000"/>
<path d="M105.339 183.221C101.238 184.458 97.0708 185.694 92.9692 186.931C91.602 187.322 90.7556 188.754 91.1462 190.122C91.5369 191.489 92.9692 192.205 94.3364 191.945C99.0891 191.098 103.842 190.317 108.594 189.471C108.139 187.778 107.683 186.085 107.227 184.392C101.237 185.825 95.1827 187.192 89.1931 188.624C89.8441 190.252 90.5603 191.814 91.2113 193.442C99.5448 189.861 107.943 186.28 116.277 182.635C115.235 181.267 114.193 179.9 113.087 178.533C112.436 179.119 111.785 179.77 111.068 180.356C110.222 181.137 110.092 182.569 110.678 183.546C111.329 184.588 112.501 184.978 113.607 184.718C116.732 184.197 119.792 183.611 122.918 183.09C122.266 181.463 121.55 179.9 120.899 178.273C118.165 179.965 115.43 181.593 112.696 183.286C113.607 184.783 114.454 186.28 115.365 187.778C117.904 186.215 120.509 184.588 123.048 183.025C125.912 181.267 123.373 176.84 120.378 178.533C113.542 182.374 105.925 184.783 98.0473 185.434C94.6619 185.694 94.6619 190.382 98.0473 190.642C99.0239 190.708 100 190.838 100.977 190.903C100.717 189.21 100.521 187.452 100.261 185.76C93.3598 188.234 86.5238 190.773 79.6227 193.247C76.4325 194.419 77.6695 198.846 80.9899 198.325C84.1149 197.804 87.24 197.283 90.365 196.762C89.9093 195.07 89.4535 193.377 88.9977 191.684C83.5289 193.312 78.1252 194.874 72.6564 196.502C73.1121 198.195 73.5679 199.887 74.0236 201.58C77.7346 200.018 81.4456 198.455 85.1566 196.958C86.4587 196.437 87.3701 195.2 86.9795 193.767C86.5889 192.465 85.0914 191.489 83.7893 191.945C80.7294 192.986 77.6044 194.028 74.5445 195.07C73.1773 195.525 72.3309 196.893 72.7215 198.26C73.1121 199.627 74.5445 200.343 75.9117 200.083C84.0498 198.781 92.253 197.413 100.391 196.111C99.9354 194.419 99.4797 192.726 99.0239 191.033C96.4848 192.075 93.9458 193.116 91.4067 194.158C90.1046 194.679 89.1931 195.916 89.5837 197.348C89.9743 198.781 91.4067 199.497 92.7739 199.171C102.475 196.893 112.175 194.679 121.811 192.4C123.178 192.075 124.024 190.512 123.634 189.21C123.243 187.908 121.811 187.127 120.443 187.387C115.04 188.364 109.636 189.275 104.232 190.252L105.6 195.33C110.417 193.963 115.235 192.596 120.053 191.228C121.42 190.838 122.266 189.405 121.876 188.038C121.485 186.541 120.053 185.955 118.686 186.215C114.584 186.931 110.482 187.648 106.381 188.299C106.837 189.991 107.292 191.684 107.748 193.377C113.803 192.075 119.923 190.838 125.977 189.536C125.522 187.843 125.066 186.15 124.61 184.457C119.923 185.825 115.235 187.127 110.548 188.494L111.915 193.572C117.774 191.359 124.806 193.442 128.191 198.781C129.168 197.478 130.144 196.242 131.121 194.939C129.558 194.744 128.061 194.549 126.498 194.288C125.326 194.158 124.154 194.419 123.569 195.46C123.048 196.372 123.113 197.934 123.959 198.65C126.824 200.994 129.753 203.273 132.618 205.617C133.725 206.528 135.222 206.723 136.329 205.617C137.436 204.51 137.306 202.947 136.329 201.906C126.303 190.903 109.701 190.187 95.8989 191.294C79.2321 192.596 63.1511 197.153 47.2004 201.906C38.1508 204.64 29.1012 207.44 19.9214 209.783C18.5542 210.109 17.7079 211.671 18.0985 212.973C18.4891 214.471 19.9214 214.992 21.2886 214.796C40.2341 211.997 58.9193 207.635 77.0836 201.645C82.1618 199.952 87.2399 198.195 92.253 196.242C91.7973 194.549 91.3415 192.856 90.8858 191.163C80.4039 195.395 69.336 197.999 58.0729 198.781C58.3333 200.473 58.5287 202.231 58.7891 203.924L72.7867 201.124C74.1539 200.864 75.0002 199.171 74.6096 197.934C74.2189 196.502 72.7866 195.851 71.4194 196.111C66.7318 197.023 62.1094 197.999 57.4218 198.911C54.5572 199.497 55.1432 204.249 58.138 204.054C69.8569 203.273 81.4456 200.669 92.3182 196.307C93.6203 195.786 94.5317 194.549 94.1411 193.116C93.8155 191.879 92.253 190.773 90.9509 191.294C73.1121 198.13 54.6223 203.403 35.8721 207.114C30.5986 208.156 25.3251 209.067 19.9865 209.848C20.4422 211.541 20.898 213.234 21.3537 214.927C37.1091 210.89 52.539 205.486 68.3595 201.515C76.107 199.562 83.9847 197.934 91.9275 197.023C99.0239 196.241 106.576 195.851 113.607 196.827C120.769 197.804 127.735 200.343 132.683 205.747C133.92 204.51 135.157 203.273 136.394 202.036C133.53 199.692 130.6 197.413 127.735 195.07C126.889 196.502 126.043 197.999 125.196 199.432C126.759 199.627 128.256 199.822 129.819 200.083C130.86 200.213 131.902 200.083 132.553 199.171C133.139 198.325 133.334 197.153 132.748 196.242C128.191 189.08 118.555 185.564 110.548 188.624C109.245 189.145 108.334 190.382 108.725 191.814C109.115 193.182 110.613 194.028 111.915 193.637C116.602 192.27 121.29 190.968 125.977 189.601C129.233 188.689 127.865 183.872 124.61 184.523C118.555 185.825 112.436 187.062 106.381 188.364C105.014 188.624 104.167 190.252 104.558 191.554C104.948 193.051 106.381 193.637 107.748 193.377C111.85 192.661 115.951 191.945 120.053 191.294C119.597 189.601 119.141 187.908 118.686 186.215C113.868 187.583 109.05 188.95 104.232 190.317C99.4146 191.684 102.019 192.14 102.409 193.507C102.8 195.005 104.232 195.59 105.6 195.33C111.003 194.353 116.407 193.442 121.811 192.465C121.355 190.773 120.899 189.08 120.443 187.387C110.743 189.666 101.042 191.879 91.4067 194.158C91.8624 195.851 92.3181 197.544 92.7739 199.236C95.313 198.195 97.852 197.153 100.391 196.111C101.693 195.59 102.605 194.353 102.214 192.921C101.823 191.424 100.391 190.838 99.0239 191.098C90.8858 192.4 82.6826 193.767 74.5445 195.07C75.0002 196.762 75.4559 198.455 75.9117 200.148C78.9716 199.106 82.0967 198.064 85.1566 197.023C84.7009 195.33 84.2451 193.637 83.7893 191.945C80.0784 193.507 76.3674 195.07 72.6564 196.567C68.9454 198.064 70.4429 198.325 70.8335 199.757C71.2241 201.189 72.7215 201.971 74.0236 201.58C79.4924 199.952 84.8962 198.39 90.365 196.762C91.7322 196.372 92.5785 194.939 92.1879 193.572C91.7973 192.075 90.3649 191.489 88.9977 191.749C85.8727 192.27 82.7477 192.791 79.6227 193.312C80.0784 195.005 80.5341 196.697 80.9899 198.39C87.891 195.916 94.727 193.377 101.628 190.903C104.428 189.861 103.907 186.02 100.912 185.76C99.9354 185.694 98.9588 185.564 97.9823 185.499V190.708C106.771 189.991 115.235 187.452 122.918 183.09C122.006 181.593 121.16 180.095 120.248 178.598C117.709 180.161 115.105 181.788 112.566 183.351C109.701 185.109 112.305 189.666 115.235 187.843C117.969 186.15 120.704 184.523 123.438 182.83C124.545 182.179 125.066 180.746 124.48 179.575C123.894 178.403 122.722 177.817 121.42 178.077C118.295 178.598 115.235 179.184 112.11 179.705C112.956 181.137 113.803 182.635 114.649 184.067C115.3 183.481 115.951 182.83 116.667 182.244C117.644 181.398 117.644 179.77 116.863 178.793C116.016 177.687 114.714 177.556 113.477 178.142C105.144 181.723 96.7453 185.304 88.4119 188.95C87.24 189.471 86.8493 191.163 87.3701 192.205C87.891 193.442 89.128 194.028 90.4301 193.702C96.4198 192.27 102.474 190.903 108.464 189.471C109.831 189.145 110.678 187.583 110.287 186.28C109.896 184.978 108.464 184.197 107.097 184.457C102.344 185.304 97.5916 186.085 92.839 186.931L94.2061 192.01C98.3078 190.773 102.474 189.536 106.576 188.299C109.766 187.322 108.399 182.309 105.209 183.221H105.339Z" fill="#BC0000"/>
<path d="M18.9439 330.097C22.0038 330.097 22.0038 325.279 18.9439 325.279C15.8839 325.279 15.8839 330.097 18.9439 330.097Z" fill="#BC0000"/>
<path d="M163.217 286.672C159.767 286.281 156.316 285.891 152.866 285.5C151.563 285.37 150.457 286.737 150.457 287.909C150.457 289.081 151.563 290.123 152.866 290.318C160.678 291.229 168.556 292.141 176.368 293.052C177.671 293.183 178.777 291.815 178.777 290.643C178.777 289.472 177.671 288.43 176.368 288.235C168.035 287.193 159.702 286.151 151.368 285.11C150.196 284.979 149.155 286.151 149.024 287.193C148.894 288.235 149.545 289.667 150.717 289.797C155.795 290.578 160.873 291.36 165.952 292.076V287.453C163.803 287.909 161.655 288.3 159.506 288.755C156.772 289.276 157.488 293.378 160.157 293.443C162.892 293.443 165.626 293.573 168.426 293.573V288.755C166.798 288.951 165.236 289.146 163.608 289.341C162.306 289.472 161.199 290.318 161.199 291.75C161.199 293.183 162.306 294.159 163.608 294.159C166.668 294.159 169.793 294.159 172.853 294.159V289.341C169.272 289.472 165.691 289.602 162.11 289.797V294.615C163.282 294.485 164.454 294.289 165.626 294.159C165.431 292.597 165.17 291.034 164.975 289.472C162.241 289.862 159.441 290.318 156.707 290.709C155.535 290.904 154.819 292.271 155.014 293.313C155.209 294.485 156.121 295.396 157.358 295.396C159.181 295.396 161.004 295.396 162.827 295.396C162.631 293.834 162.371 292.271 162.176 290.709C158.595 291.36 154.493 290.318 151.629 287.909C150.847 289.211 150.066 290.578 149.285 291.88C153.517 293.508 157.814 295.071 162.045 296.698C163.282 297.154 164.65 296.177 164.975 295.005C165.301 293.834 164.519 292.531 163.282 292.076C159.051 290.448 154.754 288.886 150.522 287.258C148.308 286.412 146.42 289.732 148.178 291.229C152.41 294.81 157.879 296.242 163.347 295.266C166.017 294.745 165.366 290.513 162.696 290.578C160.873 290.578 159.051 290.578 157.228 290.578L157.879 295.266C160.613 294.875 163.413 294.42 166.147 294.029C168.816 293.638 168.165 288.951 165.496 289.341C164.324 289.472 163.152 289.667 161.98 289.797C160.678 289.992 159.571 290.774 159.571 292.206C159.571 293.638 160.678 294.68 161.98 294.615C165.561 294.485 169.142 294.354 172.723 294.159C175.783 294.029 175.848 289.341 172.723 289.341C169.663 289.341 166.538 289.341 163.478 289.341V294.159C165.105 293.964 166.668 293.769 168.295 293.573C169.598 293.443 170.704 292.597 170.704 291.164C170.704 289.732 169.598 288.821 168.295 288.755C165.561 288.755 162.827 288.625 160.027 288.625C160.222 290.188 160.483 291.75 160.678 293.313C162.827 292.857 164.975 292.466 167.123 292.011C169.272 291.555 169.467 287.779 167.123 287.388C162.045 286.607 156.967 285.826 151.889 285.11L151.238 289.797C159.571 290.839 167.905 291.88 176.238 292.922V288.104C168.426 287.193 160.548 286.281 152.735 285.37V290.188C156.186 290.578 159.636 290.969 163.087 291.36C164.389 291.49 165.496 290.123 165.496 288.951C165.496 287.779 164.389 286.737 163.087 286.542L163.217 286.672Z" fill="#BC0000"/>
<path d="M101.368 62.9056C102.409 78.8564 95.6385 94.742 83.7243 105.484C80.4039 108.479 76.6929 111.018 72.6564 113.036C71.6147 113.557 71.2241 114.99 71.6798 116.031C72.1356 117.008 73.3726 117.854 74.4794 117.398C82.2269 114.143 90.0394 110.953 97.7869 107.698C98.9588 107.177 99.8052 106.135 99.4797 104.768C99.1542 103.661 97.7219 102.62 96.55 103.075C84.18 108.088 72.7216 114.924 62.3699 123.453C63.4767 124.56 64.6485 125.732 65.7553 126.839C68.8152 123.583 71.9402 120.263 75.0002 117.008C75.9117 116.096 75.9117 114.534 75.0002 113.622C74.0236 112.646 72.5913 112.776 71.6148 113.622C69.5314 115.315 67.4481 117.073 65.3647 118.766C66.4715 119.873 67.6433 121.044 68.7501 122.151C80.9899 108.349 98.6984 97.4764 102.54 78.0751C103.516 73.062 103.451 67.8536 101.823 63.0358C101.433 61.7988 100.196 61.0176 98.8938 61.3431C97.7219 61.6686 96.8104 63.0359 97.201 64.2728C99.8703 72.2157 97.7869 80.6142 93.8155 87.7757C89.4535 95.5883 82.8128 101.708 76.3675 107.763C72.5914 111.344 68.8153 114.859 65.3647 118.766C63.2813 121.11 66.4063 124.104 68.7501 122.151C71.0939 120.198 72.9168 118.701 75.0002 117.008C73.8934 115.901 72.7215 114.729 71.6148 113.622C68.5548 116.878 65.4298 120.198 62.3699 123.453C61.4584 124.365 61.4584 125.927 62.3699 126.839C63.3465 127.815 64.7787 127.685 65.7553 126.839C75.3908 118.896 86.2633 112.385 97.7869 107.698C97.3312 106.135 96.9406 104.638 96.4848 103.075C88.7373 106.331 80.9248 109.521 73.1773 112.776C73.7632 114.208 74.4142 115.706 75.0002 117.138C90.365 109.456 101.563 94.2211 105.014 77.4891C105.99 72.6714 106.381 67.7885 106.055 62.8405C105.73 57.8926 105.014 60.4316 103.646 60.4316C102.279 60.4316 101.172 61.5384 101.238 62.8405L101.368 62.9056Z" fill="#BC0000"/>
<path d="M93.7494 101.579C92.5775 102.425 91.4707 103.271 90.2988 104.183C91.4707 105.094 92.6426 106.006 93.8145 106.917C93.9447 106.201 94.0098 105.42 94.14 104.704C92.7077 104.899 91.2103 105.094 89.778 105.29C90.1686 106.071 91.0149 106.722 91.9264 106.917C92.8379 107.113 93.4239 107.113 94.14 106.852C94.8562 106.592 94.8562 106.592 95.1166 106.397C95.6374 106.006 95.963 105.745 96.2885 105.225C96.8093 104.443 96.9395 103.402 96.6791 102.49C96.5489 101.904 96.0932 101.383 95.5724 101.058C95.3119 100.863 94.9864 100.797 94.6609 100.797C94.3354 100.732 94.0098 100.797 93.6843 100.797C93.0984 100.993 92.5775 101.318 92.2519 101.904C91.9264 102.49 91.8614 103.076 91.9916 103.727C92.1218 104.378 91.9916 103.792 91.9916 103.857V103.206C91.9265 103.271 91.9264 103.402 91.9264 103.467V102.816C91.9915 102.881 91.9264 103.011 91.9264 103.076L92.1869 102.49C92.1869 102.555 92.1218 102.686 92.0567 102.751C92.1869 102.62 92.3171 102.425 92.4473 102.295C92.3822 102.425 92.252 102.49 92.1869 102.555L92.6426 102.165C92.5124 102.23 92.3822 102.36 92.2519 102.425C92.4473 102.36 92.6426 102.295 92.8379 102.165C92.7077 102.165 92.5124 102.295 92.3822 102.295H93.0333C92.903 102.23 92.7728 102.23 92.6426 102.23H93.2937C93.1635 102.295 93.0984 102.23 92.9682 102.23L93.554 102.49C93.4889 102.49 93.4239 102.425 93.3588 102.36L93.8145 102.751C93.7494 102.751 93.6843 102.62 93.6192 102.555C93.7494 102.686 93.8796 102.881 94.0098 103.011C94.0098 103.011 93.9447 102.881 93.8796 102.816L93.489 102.36L93.0333 101.969L92.4473 101.709C92.1218 101.579 91.7962 101.579 91.4707 101.709C91.2754 101.709 91.0801 101.709 90.8848 101.904C90.6894 101.904 90.4942 102.034 90.364 102.23C90.1686 102.36 90.0384 102.49 89.9082 102.686C89.7129 102.946 89.5827 103.206 89.4525 103.532C89.3223 104.248 89.2572 105.029 89.127 105.745V106.397C89.127 106.592 89.127 106.852 89.127 107.048L89.3874 107.634C89.5176 107.894 89.7129 108.154 89.9733 108.285C90.1035 108.415 90.2988 108.545 90.4941 108.61C90.6895 108.74 90.8848 108.74 91.0801 108.805C91.2754 108.805 91.5358 108.805 91.7312 108.805C92.0567 108.805 92.3171 108.675 92.6426 108.545C93.8145 107.699 94.9213 106.852 96.0932 105.941C96.3536 105.811 96.614 105.615 96.7442 105.355C96.9395 105.094 97.0698 104.834 97.2 104.508C97.3302 104.183 97.3302 103.857 97.2 103.532C97.2 103.206 97.0698 102.946 96.9396 102.62C96.614 102.1 96.0931 101.644 95.5072 101.514H94.8561C94.4004 101.449 94.0098 101.514 93.6192 101.774L93.7494 101.579Z" fill="#BC0000"/>
<path d="M-43.3614 327.753C-29.3638 342.727 -9.24635 349.498 10.3503 353.339C16.4701 354.511 22.6551 355.488 28.8401 356.464C29.0354 354.902 29.2958 353.339 29.4911 351.777C12.5638 349.954 -4.1031 345.852 -20.0538 339.863C-24.481 338.17 -28.843 336.347 -33.0748 334.394C-34.2467 333.873 -35.679 334.068 -36.3301 335.24C-36.9811 336.412 -36.5905 337.909 -35.4837 338.495C-24.9367 344.42 -13.4782 348.912 -1.69417 351.647C10.0898 354.381 5.01164 353.014 8.3971 353.535C9.6992 353.73 11.0013 353.209 11.3268 351.842C11.6523 350.67 10.9362 349.108 9.63411 348.912C1.30067 347.48 -7.03276 346.048 -15.4313 344.55C-16.7334 344.355 -18.0355 344.876 -18.361 346.243C-18.6866 347.48 -17.9053 348.847 -16.6683 349.173C-9.70208 351.191 -2.73587 353.274 4.23037 355.292C7.22519 356.139 8.39708 351.581 5.53247 350.67C-2.93118 348.001 -11.3297 345.266 -19.7934 342.597C-20.9002 342.206 -22.2022 342.923 -22.5929 343.964C-22.9835 344.941 -22.7231 346.438 -21.6163 346.959C-18.6866 348.261 -15.7568 349.563 -12.762 350.865C-12.1761 349.433 -11.5251 347.936 -10.9391 346.503C-18.3611 343.443 -25.783 340.383 -33.205 337.323C-34.3118 336.868 -35.6139 337.714 -36.0045 338.691C-36.4603 339.797 -36.0045 341.034 -35.028 341.686C-32.6842 343.118 -22.0069 348.131 -19.6631 349.628C-18.8819 348.261 -26.4992 343.313 -25.6528 341.946C-29.6893 339.928 -33.7909 337.909 -37.8274 335.891C-38.9993 335.305 -40.4316 335.566 -41.0827 336.738C-41.7337 337.909 -41.278 339.212 -40.2364 339.993C-37.8926 341.686 -35.5488 343.443 -33.205 345.136C-30.8612 346.829 -30.7961 345.397 -30.1451 344.55C-29.4289 343.574 -29.494 342.337 -30.3404 341.425C-33.0748 338.43 -35.7441 335.501 -38.4785 332.506C-40.041 330.813 -43.3613 332.571 -42.4499 334.849C-42.1243 335.631 -41.7988 336.412 -41.4733 337.258C-40.041 336.672 -38.5436 336.021 -37.1113 335.435C-38.3483 333.287 -39.5202 331.139 -40.7572 328.99C-41.6686 327.297 -44.7937 327.493 -45.1192 329.576C-45.3146 330.683 -45.5098 331.79 -45.7051 332.896H-41.0827C-41.5384 331.724 -41.9941 330.553 -42.4499 329.381C-42.9056 328.274 -43.8171 327.493 -45.0541 327.688C-46.1609 327.818 -47.2677 328.86 -47.1375 330.032C-46.9422 331.79 -46.8119 333.612 -46.6166 335.37L-41.9291 334.719C-42.1244 333.482 -42.3197 332.245 -42.515 331.008C-42.7104 329.836 -44.0776 329.12 -45.1192 329.316C-46.3562 329.511 -47.0724 330.422 -47.2026 331.659C-47.3328 332.896 -47.463 333.873 -47.5281 334.98C-46.3562 334.264 -45.1192 333.612 -43.9473 332.896C-44.9239 332.376 -45.9656 331.855 -46.9421 331.334C-48.1791 330.683 -50.1974 331.138 -50.4578 332.766C-50.588 333.482 -50.6531 334.264 -50.7833 334.98C-50.9787 336.152 -50.588 337.323 -49.4161 337.779C-48.2443 338.235 -46.9422 337.909 -46.4213 336.803C-45.9005 335.696 -45.3145 334.459 -44.7285 333.287C-46.1609 333.092 -47.6583 332.896 -49.0906 332.701C-48.4396 334.394 -47.8536 336.086 -47.2026 337.779C-46.8119 338.756 -46.0307 339.537 -44.9239 339.537C-43.8171 339.537 -42.8405 338.821 -42.6452 337.779C-42.1244 335.826 -41.6686 333.808 -41.1478 331.855H-45.7703C-44.8588 334.329 -44.0124 336.803 -43.1009 339.342C-42.7754 340.318 -41.929 341.1 -40.8222 341.1C-39.7155 341.1 -38.7389 340.383 -38.5436 339.342C-38.3483 338.3 -37.6973 336.672 -37.9577 335.501C-38.2832 334.329 -39.1296 333.092 -39.6504 331.985C-40.6921 329.836 -41.7989 327.753 -42.8406 325.605C-44.0776 326.581 -45.3145 327.558 -46.6166 328.534C-44.5332 330.813 -42.515 333.092 -40.4316 335.305C-39.1295 336.738 -33.8561 337.063 -34.1165 334.98C-34.6373 331.269 -37.3066 326.256 -37.8274 322.545C-39.1946 323.131 -40.5619 323.651 -41.9291 324.237C-35.0279 332.766 -25.9133 339.342 -16.1475 344.094C-5.27499 349.433 6.44392 352.688 18.293 355.032C25.3895 356.399 32.4859 357.506 39.6475 358.613C40.9496 358.808 42.2517 358.287 42.5772 356.92C42.9027 355.748 42.1866 354.186 40.8845 353.99C36.0667 353.144 31.314 352.298 26.4962 351.451L25.8452 356.139C30.1421 356.464 34.5042 356.725 38.8011 357.05C40.1032 357.115 41.21 355.878 41.21 354.641C41.21 353.404 40.1032 352.363 38.8011 352.233C34.3088 351.842 29.8817 351.386 25.3895 350.996C24.0874 350.865 22.9806 352.167 22.9806 353.404C22.9806 354.641 24.0874 355.683 25.3895 355.813C29.8817 356.204 34.3088 356.66 38.8011 357.05V352.233C34.5042 351.907 30.1421 351.647 25.8452 351.321C23.1759 351.126 22.5248 355.553 25.1941 356.009C30.0119 356.855 34.7646 357.701 39.5824 358.548C40.0381 356.985 40.4288 355.488 40.8845 353.925C17.8373 350.41 -6.18645 346.633 -25.6528 332.896C-30.4706 329.446 -34.8978 325.409 -38.6087 320.787C-39.8457 319.289 -42.9707 320.461 -42.7103 322.48C-42.1895 326.191 -41.7338 329.902 -41.2129 333.613C-39.8457 333.027 -38.4785 332.506 -37.1113 331.92C-39.1947 329.641 -41.2129 327.362 -43.2963 325.149C-45.3796 322.935 -45.575 324.237 -46.4213 324.954C-47.3979 325.735 -47.5932 326.972 -47.0072 328.013C-45.4447 331.073 -43.8822 334.198 -42.3197 337.258C-42.3848 336.672 -42.4499 336.021 -42.5801 335.435C-42.7754 336.282 -42.9708 337.128 -43.1661 337.975H-38.5436C-39.455 335.501 -40.3015 333.027 -41.2129 330.487C-41.9291 328.404 -45.2494 328.079 -45.8354 330.487C-46.3562 332.441 -46.8119 334.459 -47.3327 336.412H-42.7103C-43.3614 334.719 -43.9473 333.027 -44.5984 331.334C-44.9239 330.422 -45.5749 329.706 -46.6166 329.641C-47.5281 329.511 -48.5698 329.902 -49.0255 330.813C-49.6115 331.985 -50.1323 333.157 -50.7182 334.329C-49.2859 334.915 -47.7885 335.566 -46.3562 336.152C-46.226 335.435 -46.1609 334.654 -46.0306 333.938C-47.2025 334.394 -48.3744 334.915 -49.5463 335.37C-48.5698 335.891 -47.5281 336.412 -46.5515 336.933C-44.8588 337.844 -43.1661 336.672 -42.9707 334.849C-42.7754 333.027 -42.7103 332.636 -42.6452 331.529C-44.2077 331.724 -45.7702 331.985 -47.3327 332.18C-47.1374 333.417 -46.9422 334.654 -46.7469 335.891C-46.2911 338.495 -41.7988 337.975 -42.0593 335.24C-42.2546 333.482 -42.3848 331.659 -42.5801 329.902C-44.1426 330.097 -45.7051 330.357 -47.2677 330.553C-46.8119 331.724 -46.3562 332.896 -45.9005 334.068C-45.5098 335.045 -44.7286 335.826 -43.6218 335.826C-42.515 335.826 -41.4733 335.11 -41.3431 334.068C-41.2129 333.027 -40.9525 331.855 -40.7572 330.748C-42.1895 330.943 -43.6869 331.139 -45.1192 331.334C-43.8822 333.482 -42.7103 335.631 -41.4733 337.779C-40.8874 338.821 -39.5202 339.212 -38.4785 338.756C-37.5019 338.3 -36.6556 337.063 -37.1113 335.956C-37.4368 335.175 -37.7623 334.394 -38.0879 333.547C-39.39 334.329 -40.7572 335.11 -42.0593 335.891C-39.3248 338.886 -36.6555 341.816 -33.9211 344.811C-32.9446 343.574 -31.968 342.337 -30.9914 341.034C-33.3352 339.342 -35.679 337.584 -38.0228 335.891C-38.804 337.258 -39.6504 338.626 -40.4316 339.993C-36.3951 342.011 -32.2935 344.029 -28.257 346.048C-25.5226 347.415 -23.1788 343.574 -25.8481 341.946C-28.1919 340.514 -30.4706 339.081 -32.8144 337.584C-33.4003 339.016 -34.0513 340.514 -34.6373 341.946C-27.2153 345.006 -19.7934 348.066 -12.3714 351.126C-11.2646 351.581 -9.96249 350.735 -9.57186 349.759C-9.18122 348.782 -9.44165 347.285 -10.5484 346.764C-13.4782 345.462 -16.4079 344.159 -19.4028 342.857C-19.9887 344.29 -20.6397 345.787 -21.2257 347.219C-12.762 349.889 -4.36346 352.623 4.10019 355.292C4.55592 353.73 4.94655 352.233 5.40229 350.67C-1.56395 348.652 -8.53024 346.568 -15.4965 344.55C-15.9522 346.113 -16.3428 347.61 -16.7986 349.173C-8.46513 350.605 -0.131699 352.037 8.26684 353.535C8.72258 351.972 9.11321 350.475 9.56894 348.912C-5.4052 346.699 -19.9236 341.816 -33.1399 334.394C-33.9212 335.761 -34.7675 337.128 -35.5488 338.495C-19.598 345.852 -2.73585 351.256 14.5821 354.381C19.5301 355.292 24.478 356.009 29.4911 356.529C32.1604 356.79 32.8115 352.233 30.1422 351.842C10.0898 348.717 -10.6787 345.462 -28.0617 334.264C-32.4237 331.464 -36.4603 328.144 -39.9759 324.368C-42.0593 322.089 -45.4447 325.474 -43.3614 327.753Z" fill="#BC0000"/>
</g>
<defs>
<clipPath id="clip0_194_4192">
<rect width="1441" height="400" fill="white"/>
</clipPath>
</defs>
</svg>
