<svg width="375" height="475" viewBox="0 0 375 475" fill="none" xmlns="http://www.w3.org/2000/svg">
<g clip-path="url(#clip0_194_4608)">
<rect width="375" height="475" fill="white"/>
<rect width="375" height="475" fill="#F2F2F7"/>
<path d="M342.038 88.9591C340.451 88.9591 338.864 89.0649 337.277 89.25C337.277 89.0384 337.224 88.8004 337.066 88.6152C337.092 88.6152 337.145 88.5623 337.198 88.5359C337.568 88.2978 337.727 87.716 337.357 87.3721C336.299 86.4993 334.368 86.8696 333.178 87.1341C332.358 87.2928 331.326 87.5837 330.612 88.1391C330.559 88.1656 330.506 88.2185 330.48 88.2714C330.242 88.483 330.057 88.7475 329.924 89.0384C329.29 89.9112 328.549 90.7576 327.808 91.5511C325.772 93.0851 324.529 95.3862 323.048 97.4757C322.624 98.0575 323.471 98.9039 324.053 98.4807C324.952 97.8459 325.772 97.1847 326.486 96.4177C326.592 96.5499 326.724 96.6293 326.883 96.6822C327.967 96.9996 328.893 95.8094 329.475 95.0688C329.554 94.963 329.633 94.8307 329.713 94.7249C329.713 94.7249 329.739 94.725 329.766 94.6985C329.766 94.9894 329.898 95.2804 330.136 95.492C330.48 95.8358 330.956 95.9681 331.432 96.0474C331.961 96.1267 332.49 96.1267 333.045 96.0474C333.548 95.9681 333.997 95.73 334.447 95.5184C335.77 94.8836 337.145 93.7992 336.96 92.1594C336.907 91.7627 336.642 91.4188 336.219 91.4188C335.796 91.4188 335.452 91.7627 335.479 92.1594C335.479 92.2916 335.479 92.4503 335.479 92.5826C335.479 92.5826 335.479 92.6884 335.452 92.7148C335.452 92.7677 335.373 92.9264 335.399 92.9C335.399 92.8471 335.346 93.0058 335.32 93.0322C335.293 93.0851 335.241 93.138 335.214 93.2173C335.214 93.2173 335.161 93.2702 335.161 93.2967C335.108 93.3496 335.055 93.4289 334.976 93.4818C334.765 93.6934 334.606 93.7728 334.315 93.9579C334.341 93.905 334.368 93.8786 334.421 93.8257C334.738 93.3496 335.003 92.7942 335.029 92.2123C335.029 92.1858 335.029 92.1594 335.029 92.1329C335.082 91.7891 335.029 91.4717 334.844 91.1808C337.251 90.7576 339.658 90.4931 342.091 90.4931C343.043 90.4931 343.043 89.012 342.091 89.0384L342.038 88.9591ZM333.125 93.8257C333.125 93.8257 333.151 93.8257 333.178 93.7992C333.178 93.7992 333.178 93.7992 333.125 93.8521V93.8257Z" fill="#BC0000"/>
<path d="M415.937 78.4322C422.285 86.6843 426.093 96.9994 426.093 108.214C426.093 135.165 404.167 157.092 377.215 157.092C350.264 157.092 361.901 155.293 355.104 151.828C358.489 151.696 361.505 151.564 363.859 151.458C366.292 151.352 368.302 151.246 369.704 151.167C372.428 151.035 373.936 150.955 374.835 149.316L381.13 140.825C382.347 139.212 382.003 136.911 380.363 135.694C378.749 134.478 376.448 134.822 375.232 136.461L369.783 143.841C360.5 144.317 320.138 146.168 309.876 145.057C309.136 144.978 308.342 145.137 307.681 145.507C307.681 145.507 307.628 145.507 307.628 145.533C298.292 151.008 291.521 148.601 290.41 146.776C289.96 146.009 289.219 145.401 288.4 145.11C284.221 143.682 279.142 141.196 278.772 137.361C278.243 131.648 286.839 124.083 289.14 122.814C291.23 121.623 295.779 116.069 302.656 106.283C304.348 103.876 312.865 91.6303 314.267 87.5042C314.32 87.3455 314.373 87.1868 314.399 87.0281C316.145 78.0355 324.45 74.888 326.962 74.1474C333.231 72.2696 342.488 60.1559 345.186 56.453C345.794 55.6331 346.006 54.6016 345.82 53.5965C345.635 52.5915 345.027 51.6922 344.181 51.1632C337.224 46.6934 334.474 38.4413 333.389 32.3051C332.86 29.237 332.649 26.407 332.675 24.0001C343.731 38.838 362.06 54.1255 367.085 57.9342L368.461 58.9657C369.201 59.5211 370.127 59.7856 371.053 59.6798L372.243 59.5476C373.909 59.3889 375.576 59.2831 377.242 59.2831C389.832 59.2831 401.31 64.0704 409.986 71.8993C411.705 70.1007 413.741 68.5931 416.016 67.5087C405.913 57.8813 392.265 51.9567 377.242 51.9567C362.219 51.9567 373.565 52.0361 371.74 52.2212L371.502 52.0361C366.292 48.0951 343.281 28.7874 334.421 13.3676C333.31 11.4633 331.511 10.9872 330.163 11.1988C327.015 11.7013 326.275 15.2455 326.01 16.5944C324.317 24.6613 325.084 44.4187 337.119 54.9454C332.596 60.7113 327.2 66.3979 324.873 67.0856C321.381 68.1171 309.903 72.5076 307.258 85.3089C305.433 90.0698 288.77 113.847 285.437 116.413C282.819 117.947 270.494 127.522 271.472 137.969C272.028 143.946 276.55 148.522 284.961 151.59C288.796 156.007 298.477 158.837 310.299 152.357C315.774 152.78 326.592 152.728 342.567 152.199C342.779 152.463 343.017 152.701 343.281 152.913C353.12 160.371 364.837 164.312 377.215 164.312C408.214 164.312 433.42 139.106 433.42 108.108C433.42 77.1097 429.267 83.8807 422.232 74.4913C419.745 75.0996 417.577 76.475 415.937 78.3264V78.4322Z" fill="#BC0000"/>
<path d="M368.751 127.997C368.751 129.161 368.275 130.298 367.482 131.198C366.688 132.097 365.551 132.89 364.308 133.34C362.827 133.869 361.266 134.081 359.706 134.186C357.96 134.292 356.214 134.345 354.469 134.425C347.222 134.715 340.001 135.006 332.754 135.297C328.707 135.456 324.634 135.615 320.588 135.773C320.006 135.773 319.53 136.25 319.53 136.831C319.53 137.413 320.006 137.916 320.588 137.889C328.099 137.598 335.584 137.281 343.096 136.99C346.852 136.831 350.634 136.699 354.389 136.54C356.162 136.461 357.96 136.435 359.732 136.302C361.451 136.197 363.197 135.985 364.837 135.403C368.011 134.266 370.92 131.542 370.894 127.971C370.894 126.596 368.751 126.596 368.778 127.971L368.751 127.997Z" fill="#BC0000"/>
<path d="M363.806 126.04C363.409 127.019 362.404 127.548 361.452 127.812C360.235 128.183 358.966 128.236 357.723 128.315C354.416 128.553 351.11 128.817 347.778 129.056C345.9 129.188 344.022 129.346 342.144 129.479C340.266 129.611 341.456 130.59 342.144 130.537C345.688 130.272 349.232 130.008 352.777 129.743C354.522 129.611 356.294 129.479 358.04 129.346C359.336 129.241 360.685 129.161 361.928 128.738C363.197 128.315 364.282 127.548 364.811 126.278C364.917 126.014 364.679 125.697 364.441 125.617C364.203 125.538 363.885 125.723 363.779 125.987L363.806 126.04Z" fill="#BC0000"/>
<path d="M356.135 153.177C356.823 153.6 357.511 153.997 358.198 154.42C358.621 154.658 359.177 154.552 359.441 154.182C359.706 153.812 359.759 153.203 359.362 152.912C358.357 152.119 357.352 151.325 356.347 150.558C356.029 151.087 355.712 151.643 355.395 152.172C358.463 153.23 361.557 154.288 364.625 155.346C365.657 155.689 366.345 154.076 365.366 153.574C364.758 153.283 364.176 152.965 363.567 152.674C363.25 153.23 362.906 153.785 362.589 154.341C363.647 154.79 364.678 155.213 365.736 155.663C366.212 155.875 366.768 155.795 367.059 155.319C367.35 154.843 367.191 154.235 366.715 153.997C365.419 153.335 364.123 152.648 362.827 151.987C362.351 151.749 361.769 151.854 361.504 152.33C361.24 152.806 361.399 153.388 361.848 153.653C362.748 154.155 363.647 154.658 364.52 155.16C364.758 154.579 365.022 153.97 365.26 153.388C363.541 152.992 361.795 152.595 360.076 152.225C359.045 151.987 358.331 153.441 359.336 153.997C360.685 154.737 362.007 155.504 363.356 156.245C363.805 156.509 364.414 156.351 364.678 155.901C364.943 155.451 364.758 154.896 364.334 154.579C362.906 153.494 361.504 152.41 360.076 151.352C359.838 151.934 359.574 152.542 359.336 153.124C361.61 153.838 363.858 154.579 366.133 155.293C367.006 155.584 367.852 154.288 367.085 153.679C366.398 153.124 365.736 152.595 365.049 152.039C364.731 152.568 364.414 153.124 364.096 153.653C365.419 154.05 366.715 154.446 368.037 154.87C369.069 155.187 369.783 153.6 368.778 153.097C367.614 152.489 366.477 151.881 365.313 151.299C365.075 151.881 364.811 152.489 364.573 153.071C366.371 153.732 368.17 154.367 369.968 155.028C370.047 154.393 370.153 153.759 370.233 153.124C368.249 152.939 366.292 152.754 364.308 152.568C363.832 152.516 363.409 152.965 363.356 153.415C363.303 153.917 363.594 154.314 364.044 154.473C365.234 154.922 366.45 155.346 367.641 155.795L368.17 153.917C366.688 153.494 365.207 153.071 363.7 152.648C362.483 152.304 362.007 154.129 363.171 154.526C366.186 155.504 369.228 156.509 372.243 157.488C373.274 157.832 374.015 156.166 372.983 155.716C370.709 154.658 368.408 153.626 366.133 152.568C365.895 153.15 365.63 153.759 365.392 154.341C371.37 156.351 377.85 156.774 384.039 155.663C385.785 155.346 387.477 154.922 389.17 154.367C389.62 154.208 389.937 153.785 389.858 153.309C389.778 152.833 389.382 152.436 388.906 152.463C382.717 152.965 376.527 153.468 370.365 153.97C369.889 153.997 369.466 154.314 369.413 154.817C369.36 155.319 369.624 155.769 370.1 155.875C378.538 157.938 387.451 157.805 395.835 155.584C398.216 154.949 400.517 154.129 402.765 153.177C403.638 152.806 403.215 151.246 402.262 151.352C395.253 152.251 388.271 153.177 381.262 154.076C379.278 154.341 377.295 154.579 375.337 154.843C374.861 154.896 374.438 155.16 374.385 155.689C374.332 156.218 374.597 156.668 375.073 156.747C380.045 157.567 385.097 157.488 390.043 156.536C394.936 155.61 399.697 153.812 404.008 151.272C406.441 149.844 408.716 148.151 410.805 146.247C411.625 145.507 410.567 144.131 409.615 144.713C403.558 148.575 396.814 151.193 389.752 152.542C382.796 153.891 375.575 153.97 368.593 152.754C364.599 152.066 360.685 150.929 356.955 149.421C356.479 149.209 355.897 149.633 355.765 150.109C355.633 150.585 355.95 151.114 356.453 151.299C363.25 154.076 370.603 155.478 377.956 155.557C385.256 155.637 392.608 154.393 399.459 151.881C403.347 150.453 407.103 148.628 410.62 146.406C410.224 145.903 409.827 145.401 409.43 144.872C405.939 148.046 401.866 150.585 397.475 152.33C393.085 154.076 388.35 155.134 383.589 155.346C380.918 155.451 378.247 155.293 375.602 154.87C375.522 155.504 375.417 156.139 375.337 156.774C382.346 155.875 389.329 154.949 396.338 154.05C398.321 153.785 400.305 153.547 402.262 153.283C402.104 152.674 401.945 152.066 401.76 151.458C394.143 154.684 385.679 155.901 377.453 155.134C375.126 154.922 372.851 154.526 370.576 153.97C370.497 154.605 370.391 155.24 370.312 155.875C376.501 155.372 382.69 154.87 388.853 154.367C388.773 153.732 388.668 153.097 388.588 152.463C382.902 154.367 376.739 154.817 370.814 153.732C369.122 153.415 367.455 152.992 365.842 152.436C364.811 152.092 364.096 153.759 365.102 154.208C367.376 155.266 369.677 156.298 371.952 157.356C372.19 156.774 372.454 156.166 372.692 155.584C369.677 154.605 366.636 153.6 363.62 152.621C363.435 153.256 363.277 153.864 363.091 154.499C364.573 154.922 366.054 155.346 367.561 155.769C368.064 155.901 368.619 155.584 368.751 155.081C368.884 154.579 368.566 154.076 368.064 153.891C366.874 153.441 365.657 153.018 364.467 152.568L364.202 154.473C366.186 154.658 368.143 154.843 370.127 155.028C370.603 155.081 371.026 154.631 371.079 154.182C371.132 153.679 370.841 153.283 370.391 153.124C368.593 152.463 366.794 151.828 364.996 151.167C363.964 150.796 363.277 152.436 364.255 152.939C365.419 153.547 366.556 154.155 367.72 154.737C367.958 154.155 368.222 153.547 368.461 152.965C367.138 152.568 365.842 152.172 364.52 151.749C363.647 151.484 362.8 152.754 363.567 153.362C364.255 153.917 364.916 154.446 365.604 155.002C365.921 154.473 366.239 153.917 366.556 153.388C364.282 152.674 362.033 151.934 359.759 151.22C359.309 151.061 358.78 151.352 358.621 151.775C358.463 152.198 358.621 152.674 359.018 152.992C360.446 154.076 361.848 155.16 363.277 156.218L364.255 154.552C362.906 153.812 361.584 153.045 360.235 152.304C359.997 152.886 359.732 153.494 359.494 154.076C361.213 154.473 362.959 154.87 364.678 155.24C366.397 155.61 366.424 154.023 365.419 153.468C364.52 152.965 363.62 152.463 362.748 151.96C362.43 152.516 362.086 153.071 361.769 153.626C363.065 154.288 364.361 154.975 365.657 155.637C365.974 155.081 366.318 154.526 366.636 153.97C365.578 153.521 364.546 153.097 363.488 152.648C363.012 152.436 362.457 152.516 362.166 152.992C361.875 153.468 362.033 154.076 362.51 154.314C363.118 154.605 363.7 154.922 364.308 155.213L365.049 153.441C361.981 152.383 358.886 151.325 355.818 150.267C355.421 150.135 354.919 150.347 354.707 150.717C354.495 151.087 354.522 151.643 354.866 151.907C355.871 152.701 356.876 153.494 357.881 154.261C358.278 153.759 358.674 153.256 359.071 152.727C358.383 152.304 357.696 151.907 357.008 151.484C355.924 150.823 354.945 152.516 356.029 153.15L356.135 153.177Z" fill="#BC0000"/>
<path d="M368.62 157.858C372.349 158.176 376.078 158.466 379.808 158.784C380.337 158.837 380.786 158.308 380.786 157.805C380.786 157.303 380.337 156.906 379.808 156.827C374.941 156.245 370.048 155.663 365.181 155.081V157.038C366.689 157.091 368.196 157.118 369.678 157.17C370.921 157.197 370.921 155.266 369.678 155.213C368.17 155.16 366.662 155.134 365.181 155.081C363.7 155.028 364.203 155.531 364.203 156.06C364.203 156.589 364.652 156.959 365.181 157.038C370.048 157.62 374.941 158.202 379.808 158.784V156.827C376.078 156.509 372.349 156.218 368.62 155.901C368.091 155.848 367.641 156.377 367.641 156.88C367.641 157.382 368.091 157.805 368.62 157.858Z" fill="#BC0000"/>
<path d="M360.473 152.595C363.092 153.891 365.684 155.187 368.302 156.483C368.778 156.722 369.36 156.616 369.625 156.14C369.889 155.664 369.757 155.055 369.281 154.817C366.662 153.521 364.07 152.225 361.452 150.929C360.976 150.691 360.394 150.797 360.129 151.273C359.891 151.696 359.997 152.357 360.473 152.595Z" fill="#BC0000"/>
<path d="M362.88 153.15C363.594 153.944 364.282 154.711 364.996 155.504C365.71 156.298 366.027 155.874 366.371 155.504C366.741 155.107 366.741 154.526 366.371 154.129C365.657 153.335 364.705 151.537 363.991 150.77C363.647 150.4 361.319 150.294 360.975 150.664C360.605 151.061 362.51 152.753 362.88 153.15Z" fill="#BC0000"/>
<path d="M364.097 153.786C371.555 156.483 379.675 157.171 387.504 155.928C389.726 155.584 391.895 155.055 394.037 154.394C395.227 154.024 394.725 152.146 393.508 152.516C386.235 154.817 378.406 155.214 370.921 153.706C368.778 153.257 366.662 152.675 364.599 151.934C364.097 151.749 363.541 152.146 363.409 152.622C363.277 153.098 363.594 153.627 364.097 153.812V153.786Z" fill="#BC0000"/>
<path d="M344.365 56.9821C344.656 57.4846 344.947 58.0136 345.265 58.5161C345.767 59.3889 347.328 59.0715 347.248 57.9871C347.169 57.0085 346.296 56.2679 345.318 56.6647C344.524 56.9556 344.18 58.04 344.683 58.7541V57.6697C344.312 58.2781 343.942 58.8864 343.572 59.4683C344.233 59.6534 344.894 59.8386 345.556 59.9973C345.661 58.4103 345.741 56.8234 345.847 55.2629C345.238 55.5009 344.63 55.7654 344.022 56.0034C344.63 56.744 345.212 57.511 345.82 58.2516C346.561 59.1773 348.174 57.9607 347.486 56.9556C346.852 56.0299 346.19 55.1042 345.556 54.1785C345 54.6017 344.445 55.0248 343.889 55.4745C345.318 56.9292 346.746 58.4103 348.148 59.865C348.306 59.2831 348.465 58.6748 348.624 58.0929C345.159 59.0186 341.694 59.9444 338.256 60.8701C338.441 61.5577 338.626 62.2454 338.811 62.9331C340.583 62.2454 342.355 61.5842 344.127 60.8965C344.577 60.7378 344.921 60.3675 344.921 59.865C344.921 59.3625 344.603 58.9393 344.127 58.8335C344.048 58.8335 343.863 58.7277 344.048 58.8335C344.233 58.9393 344.048 58.8335 343.995 58.7806C344.101 58.9657 343.995 58.7012 344.022 58.8335C344.048 58.9657 343.995 58.7012 343.969 58.6483C343.942 58.5161 344.022 58.807 343.969 58.6219C343.916 58.4368 343.969 58.807 343.969 58.5426V58.4632C343.969 58.5955 343.969 58.5955 343.995 58.4632C343.942 58.5161 343.757 58.6484 343.942 58.5426H342.858C343.175 58.7542 343.493 58.9657 343.81 59.1773C344.471 59.627 345.45 59.0451 345.423 58.2516C345.423 57.511 345.37 56.7705 345.344 56.0563C344.736 56.2944 344.127 56.5589 343.519 56.7969C344.868 57.8813 346.243 58.9657 347.592 60.0502C347.83 59.4418 348.095 58.8335 348.333 58.2252C343.651 58.8335 339.261 60.7643 335.69 63.8588C335.293 64.2026 335.293 64.8639 335.611 65.2606C335.955 65.7102 336.484 65.7631 336.986 65.5251C339.975 64.1233 342.99 62.7215 345.979 61.3197C345.609 60.7114 345.265 60.103 344.894 59.4947C344.18 59.9708 343.466 60.4469 342.778 60.8965C342.329 61.1875 342.117 61.7164 342.355 62.219C342.54 62.6686 343.096 63.0124 343.598 62.8273C344.947 62.3248 346.296 61.8222 347.645 61.3461C348.174 61.1346 348.544 60.632 348.386 60.0502C348.227 59.4947 347.645 59.1509 347.09 59.3096C339.525 61.399 334.526 67.932 327.782 71.529C325.983 72.4812 324.026 73.2218 322.016 73.4598C321.434 73.5391 320.958 73.9094 320.958 74.5178C320.958 75.1261 321.461 75.6551 322.016 75.5757C325.983 75.0996 329.501 73.2218 332.701 70.9207C335.822 68.6725 338.679 66.0541 341.932 63.9911C343.731 62.8537 345.608 61.9016 347.672 61.3197C347.486 60.632 347.301 59.9444 347.116 59.2567C345.767 59.7592 344.418 60.2617 343.069 60.7378C343.334 61.399 343.625 62.0338 343.889 62.6951C344.603 62.219 345.318 61.7429 346.005 61.2932C347.169 60.5262 346.164 58.8864 344.921 59.4683C341.932 60.8701 338.917 62.2719 335.928 63.6737C336.351 64.2291 336.775 64.7845 337.224 65.34C340.319 62.6422 344.26 60.8436 348.359 60.3146C348.782 60.2617 349.153 60.1031 349.338 59.6534C349.523 59.2038 349.444 58.7541 349.126 58.4897C347.777 57.4052 346.402 56.3208 345.053 55.2364C343.704 54.152 344.312 54.8397 343.889 55.0248C343.519 55.1835 343.228 55.5803 343.228 56.0034C343.228 56.744 343.281 57.4846 343.307 58.1987C343.836 57.8813 344.365 57.5904 344.921 57.273C344.603 57.0614 344.286 56.8498 343.969 56.6382C343.651 56.4266 343.202 56.4531 342.884 56.6382C341.271 57.6168 341.588 60.4204 343.519 60.8172V58.7541C341.747 59.4418 339.975 60.1031 338.203 60.7907C337.674 61.0023 337.304 61.5048 337.462 62.0867C337.621 62.6421 338.203 62.986 338.758 62.8273C342.223 61.9016 345.688 60.9759 349.126 60.0502C349.92 59.8386 350.158 58.8335 349.602 58.2781C348.174 56.8234 346.746 55.3422 345.344 53.8875C344.524 53.0412 342.964 54.152 343.678 55.1835C344.313 56.1092 344.974 57.035 345.609 57.9607C346.164 57.5375 346.719 57.1143 347.275 56.6647C346.666 55.9241 346.085 55.1571 345.476 54.4165C345.212 54.0991 344.656 54.0462 344.312 54.2049C343.916 54.3901 343.678 54.7339 343.651 55.1835C343.545 56.7705 343.466 58.3574 343.36 59.9179C343.255 61.4784 344.815 61.2933 345.344 60.4469C345.714 59.8386 346.085 59.2302 346.455 58.6483C346.64 58.3574 346.666 57.8549 346.455 57.5639C346.323 57.8813 346.19 58.2252 346.058 58.5426H345.503L345.212 58.331C345.159 58.1458 345.106 57.9607 345.08 57.802V57.9078C345.741 57.7226 346.402 57.5375 347.063 57.3788C346.772 56.8763 346.481 56.3473 346.164 55.8448C345.476 54.6545 343.651 55.739 344.339 56.9292L344.365 56.9821Z" fill="#BC0000"/>
<path d="M341.35 53.4644C342.884 54.8662 344.418 56.268 345.952 57.6698C346.349 58.0136 346.931 58.093 347.354 57.7491C347.751 57.4318 347.936 56.8234 347.619 56.3738C346.693 55.0249 345.767 53.676 344.815 52.3006C344.339 52.7767 343.836 53.2792 343.36 53.7553C345.45 55.1571 347.222 57.0086 348.571 59.1245C349.311 60.2883 351.031 59.2832 350.396 58.0401C349.02 55.3158 346.825 53.0148 344.154 51.5336C343.704 51.2691 343.096 51.3749 342.779 51.7981C342.488 52.1948 342.435 52.8561 342.858 53.1999C344.947 54.8662 346.693 56.9028 347.963 59.2567C348.544 60.3147 350.237 59.6006 349.92 58.4368C349.206 55.9506 347.539 53.8082 345.318 52.4858C344.392 51.9303 343.334 53.0148 343.863 53.9405C344.524 55.0778 345.212 56.2151 345.873 57.3788C346.217 57.9607 346.561 58.5426 346.905 59.1245C347.037 59.3625 347.222 59.6006 347.328 59.8386C347.46 60.1295 347.328 59.9709 347.46 59.8651C347.381 59.8651 347.592 59.7593 347.46 59.8651C347.539 59.8651 347.275 59.918 347.222 59.918C347.143 59.918 347.143 59.918 347.222 59.918H347.116C347.01 59.918 346.905 59.918 346.772 59.918C346.164 59.918 345.529 59.8651 344.921 59.8386C343.598 59.7593 342.25 59.7064 340.927 59.627C341.033 60.3147 341.112 61.0288 341.218 61.7165C343.069 61.3991 344.921 61.0817 346.772 60.7643C347.222 60.685 347.698 60.6056 348.148 60.5263C348.597 60.4469 348.491 60.4469 348.677 60.4469C348.491 60.4469 348.968 60.4469 348.968 60.4469C348.915 60.4469 348.888 60.4469 348.835 60.4205C348.571 60.2353 348.518 59.9973 348.65 59.7064L348.73 59.6535C348.677 59.627 348.386 59.6535 348.306 59.6535C348.068 59.6535 347.83 59.5741 347.619 59.5477C343.969 58.9922 340.319 58.4368 336.642 57.9078C336.087 57.8285 335.505 58.0401 335.346 58.6484C335.214 59.1509 335.505 59.8651 336.087 59.9444C339.578 60.4734 343.043 61.0024 346.534 61.5049C347.381 61.6372 348.306 61.9016 349.179 61.7165C350.052 61.5314 350.74 60.7908 350.713 59.918C350.713 58.9658 349.867 58.3575 348.968 58.3046C348.068 58.2517 347.328 58.5162 346.534 58.6484C344.577 58.9922 342.593 59.3361 340.636 59.6535C340.134 59.7328 339.79 60.3411 339.869 60.8172C339.948 61.3462 340.372 61.7165 340.927 61.7429C342.488 61.8223 344.048 61.9016 345.609 61.981C346.825 62.0339 348.386 62.2455 349.179 61.0817C350.131 59.7064 348.782 58.1194 348.121 56.9557C347.301 55.5803 346.508 54.205 345.688 52.8561C345.212 53.3322 344.709 53.8347 344.233 54.3108C345.979 55.3423 347.301 57.035 347.857 58.9922C348.518 58.7278 349.153 58.4368 349.814 58.1723C348.465 55.6861 346.614 53.4379 344.392 51.6923C343.969 52.2477 343.546 52.8032 343.096 53.3586C345.476 54.681 347.354 56.6647 348.571 59.098C349.179 58.7277 349.787 58.3839 350.396 58.0136C348.862 55.5539 346.825 53.4908 344.445 51.8775C343.572 51.2956 342.382 52.4593 342.99 53.3322C343.916 54.6811 344.842 56.03 345.794 57.4053C346.349 56.9821 346.905 56.5589 347.46 56.1093C345.926 54.7075 344.392 53.3057 342.858 51.9039C341.324 50.5021 341.773 51.4807 341.35 51.9039C340.954 52.3006 340.927 53.0148 341.35 53.4115V53.4644Z" fill="#BC0000"/>
<path d="M279.486 133.102C282.026 134.742 282.581 138.366 280.544 140.693C281.153 140.931 281.761 141.196 282.369 141.434C282.316 140.931 282.264 140.455 282.184 139.953C282.078 139.053 281.1 138.524 280.359 139.212C280.386 139.186 280.412 139.212 280.465 139.186C280.359 139.239 280.359 139.186 280.359 139.186C280.359 139.212 280.28 139.133 280.386 139.186C280.491 139.239 280.544 139.318 280.386 139.159C280.148 139.768 279.883 140.376 279.645 140.984C281.444 140.931 282.634 139.397 282.978 137.757C283.163 136.885 283.136 136.012 283.083 135.113C283.031 134.266 282.978 133.314 283.348 132.521C283.612 132.018 283.48 131.357 282.978 131.066C282.502 130.801 281.787 130.934 281.523 131.436C281.1 132.283 280.941 133.182 280.941 134.107C280.941 135.033 281.047 135.8 280.994 136.647C280.941 137.493 280.809 137.705 280.544 138.181C280.491 138.26 280.439 138.339 280.386 138.419C280.439 138.339 280.386 138.419 280.359 138.472C280.306 138.524 280.068 138.736 280.174 138.657C280.121 138.71 280.068 138.736 279.989 138.763C279.83 138.868 279.989 138.763 279.91 138.815C279.83 138.868 279.777 138.868 279.698 138.868C279.513 138.895 279.936 138.868 279.592 138.868C278.667 138.868 278.19 140.032 278.852 140.693C279.672 141.54 280.994 141.513 281.867 140.72C281.259 140.482 280.65 140.217 280.042 139.979C280.095 140.482 280.148 140.958 280.227 141.46C280.306 141.963 280.465 142.254 280.888 142.439C281.259 142.598 281.761 142.545 282.052 142.227C283.507 140.561 284.168 138.392 283.824 136.197C283.507 134.187 282.264 132.388 280.571 131.277C280.095 130.96 279.407 131.172 279.116 131.648C278.825 132.124 279.01 132.785 279.486 133.102Z" fill="#BC0000"/>
<path d="M281.867 131.594C282.078 131.647 282.237 131.779 282.369 131.991C282.501 132.203 282.475 132.15 282.501 132.335C282.501 132.229 282.501 132.705 282.501 132.599C283.189 132.705 283.903 132.785 284.591 132.89C284.485 131.224 282.792 129.902 281.152 130.431C281.576 130.669 282.025 130.933 282.449 131.171C282.237 130.642 282.025 130.113 281.814 129.611C281.602 129.082 281.1 128.711 280.518 128.87C279.989 129.029 279.592 129.637 279.777 130.166C280.333 131.832 281.629 133.128 283.321 133.631C283.083 133.393 282.819 133.128 282.581 132.89C283.163 134.874 283.745 136.831 284.353 138.815C285.041 138.63 285.728 138.445 286.416 138.259C286.098 137.228 285.781 136.196 285.464 135.138C285.12 134.028 283.321 134.186 283.374 135.429C283.401 136.54 283.401 137.678 283.48 138.788C283.559 139.873 283.692 140.957 283.797 142.042C283.85 141.857 283.903 141.671 283.93 141.513C283.665 141.883 283.401 142.28 283.136 142.65C283.797 142.729 284.432 142.809 285.093 142.915C284.908 142.042 284.723 141.169 284.538 140.296C284.353 139.45 282.951 139.185 282.581 140.032C282.21 140.878 282.052 141.301 281.761 141.936C282.422 142.2 283.057 142.491 283.718 142.756C283.824 142.095 283.903 141.46 284.009 140.799C283.348 140.878 282.713 140.957 282.052 141.063C282.316 141.671 282.607 142.253 282.872 142.862C283.057 143.232 283.559 143.417 283.93 143.364C284.379 143.285 284.67 143.02 284.802 142.597C284.961 142.147 285.146 141.698 285.305 141.248C284.644 141.328 284.009 141.407 283.348 141.513C283.665 142.042 283.956 142.544 284.273 143.073C284.591 143.629 285.49 143.814 285.94 143.285C286.231 142.941 286.548 142.597 286.839 142.253C286.495 142.333 286.151 142.438 285.808 142.518C287.738 142.967 289.167 144.792 289.167 146.75C289.828 146.564 290.489 146.379 291.15 146.221C289.748 143.258 288.347 140.296 286.945 137.307C286.548 137.836 286.151 138.339 285.755 138.868C289.352 139.979 292.155 143.126 292.896 146.829C293.134 147.993 295.091 147.755 294.985 146.538C294.932 146.062 294.906 145.586 294.853 145.083C294.8 144.554 294.483 144.105 293.927 144.025C293.372 143.946 292.843 144.263 292.764 144.792C292.658 145.427 292.552 146.088 292.446 146.723H294.509C294.218 145.983 293.927 145.242 293.636 144.501C293.345 143.761 293.213 143.787 292.764 143.734C292.367 143.682 291.891 143.867 291.706 144.237C291.362 144.925 291.044 145.586 290.701 146.274C291.362 146.353 291.997 146.432 292.658 146.538C292.314 144.898 291.97 143.285 291.626 141.645C290.965 141.909 290.33 142.2 289.669 142.465C290.357 143.655 291.044 144.872 291.732 146.062C292.288 145.639 292.843 145.216 293.398 144.766C292.526 143.893 291.626 143.02 290.753 142.147C289.881 141.275 288.69 142.147 288.981 143.179C289.405 144.713 289.828 146.247 290.251 147.781C290.568 148.892 292.446 148.733 292.34 147.49C291.97 142.756 287.685 138.762 282.898 138.894C281.734 138.921 281.417 140.693 282.607 140.984C283.771 141.248 285.331 141.566 285.887 142.676C285.808 142.518 285.913 142.835 285.94 142.888C285.94 143.02 285.966 142.941 285.94 142.888C285.94 142.967 285.94 143.02 285.94 143.1C285.94 143.179 285.913 143.496 285.94 143.311C285.94 143.443 285.887 143.576 285.834 143.682C285.781 143.787 285.781 143.787 285.834 143.682C285.808 143.734 285.781 143.787 285.755 143.84C285.675 143.999 285.808 143.814 285.755 143.893C285.702 143.972 285.675 143.972 285.622 144.025C285.517 144.131 285.755 143.946 285.622 144.025C285.49 144.105 285.437 144.105 285.543 144.078C285.649 144.052 285.49 144.078 285.464 144.078C285.305 144.078 285.728 144.078 285.411 144.078C285.728 144.607 286.019 145.136 286.337 145.692C286.627 145.083 286.945 144.501 287.236 143.893C287.447 143.47 287.421 142.941 287.077 142.597C286.76 142.28 286.178 142.147 285.781 142.438C285.093 142.915 284.432 143.417 283.744 143.893C283.268 144.237 283.057 144.819 283.374 145.348C283.665 145.85 284.326 146.009 284.829 145.718C285.517 145.348 286.178 144.978 286.865 144.607C286.337 144.29 285.808 143.999 285.252 143.682C285.173 144.713 285.755 145.586 286.548 146.168C287.368 146.75 288.373 146.935 289.352 146.908C290.251 146.855 291.468 146.564 292.208 146.723C292.949 146.882 292.843 146.908 293.081 147.067C293.028 147.014 293.213 147.173 293.24 147.199L293.319 147.279C293.266 147.226 293.266 147.226 293.319 147.279C293.345 147.332 293.425 147.49 293.372 147.358C293.372 147.384 293.425 147.675 293.425 147.517C294.033 147.279 294.641 147.014 295.25 146.776C294.324 146.009 293.398 145.268 292.473 144.501C292.049 145.057 291.626 145.612 291.177 146.168C294.853 148.786 299.693 149.606 304.057 148.416C304.613 148.257 304.957 147.649 304.798 147.12C304.639 146.538 304.057 146.247 303.502 146.379C301.122 146.882 298.741 147.358 296.361 147.86C295.197 148.099 295.435 150.082 296.652 149.95C302.179 149.395 307.522 147.384 311.966 144.078C312.415 143.734 312.653 143.153 312.336 142.624C312.071 142.174 311.357 141.909 310.881 142.253C310.326 142.65 309.744 143.073 309.188 143.47C308.898 143.682 308.712 143.814 308.369 143.92C308.025 144.025 307.707 144.105 307.363 144.211C307.707 144.792 308.051 145.401 308.395 145.983C309.136 145.189 309.876 144.396 310.59 143.602H309.083C310.008 144.422 310.934 145.242 311.86 146.062C312.283 146.432 312.944 146.485 313.367 146.062C313.764 145.665 313.791 144.951 313.367 144.554C312.574 143.867 311.807 143.179 311.013 142.465C310.67 143.047 310.326 143.655 309.982 144.237C314.69 145.348 319.398 146.459 324.106 147.596C324.212 146.908 324.291 146.194 324.397 145.507C319.371 145.11 314.346 144.66 309.321 144.316C304.295 143.972 299.931 144.316 295.382 145.612C292.869 146.326 290.436 147.331 288.109 148.575C287.209 149.051 287.58 150.638 288.638 150.558C291.15 150.4 293.689 150.214 296.202 150.056C298.715 149.897 297.26 149.606 297.26 148.998C297.26 148.389 296.784 147.887 296.202 147.94C293.689 148.099 291.15 148.284 288.638 148.442C288.823 149.104 289.008 149.765 289.167 150.426C293.028 148.363 297.313 147.014 301.65 146.538C306.438 146.009 311.251 146.617 316.039 146.988C320.826 147.358 321.593 147.437 324.397 147.649C325.587 147.755 325.825 145.824 324.688 145.559C319.98 144.449 315.272 143.338 310.564 142.2C309.585 141.962 308.686 143.232 309.532 143.972C310.379 144.713 311.093 145.348 311.886 146.062C312.389 145.559 312.891 145.057 313.394 144.554C312.468 143.734 311.542 142.915 310.617 142.095C310.194 141.724 309.532 141.645 309.109 142.095C308.369 142.888 307.628 143.682 306.914 144.475C306.2 145.268 306.914 146.564 307.945 146.247L309.03 145.93C309.453 145.797 309.77 145.639 310.114 145.401C310.722 144.951 311.357 144.528 311.966 144.078C311.595 143.47 311.251 142.862 310.881 142.253C306.729 145.348 301.783 147.331 296.625 147.834C296.731 148.522 296.81 149.236 296.916 149.924C299.297 149.421 301.677 148.945 304.057 148.442C303.872 147.755 303.687 147.067 303.502 146.379C299.667 147.437 295.514 146.644 292.261 144.343C291.282 143.655 290.039 145.242 290.965 146.009C291.891 146.776 292.817 147.517 293.742 148.284C294.086 148.548 294.483 148.68 294.906 148.495C295.276 148.337 295.594 147.94 295.567 147.517C295.382 145.401 293.266 144.449 291.362 144.554C290.806 144.581 290.277 144.687 289.722 144.713C289.457 144.713 289.167 144.739 288.902 144.739C288.638 144.739 288.638 144.74 288.452 144.687C288.135 144.607 287.871 144.475 287.659 144.263C287.447 144.052 287.5 144.105 287.447 143.999C287.474 144.078 287.394 143.84 287.394 143.814C287.394 143.999 287.394 143.655 287.394 143.629C287.474 142.782 286.442 142.359 285.781 142.703C285.093 143.073 284.432 143.443 283.744 143.814C284.115 144.422 284.459 145.03 284.829 145.639C285.517 145.163 286.178 144.66 286.865 144.184C286.389 143.708 285.887 143.205 285.411 142.729C285.12 143.338 284.802 143.92 284.512 144.528C284.221 145.136 284.591 146.141 285.437 146.141C287.447 146.141 288.479 143.893 288.003 142.147C287.447 140.058 285.093 139.291 283.216 138.841C283.11 139.529 283.03 140.243 282.925 140.931C286.495 140.825 289.96 143.84 290.225 147.384C290.912 147.279 291.626 147.199 292.314 147.093C291.891 145.559 291.468 144.025 291.044 142.491C290.463 142.835 289.854 143.179 289.272 143.523C290.145 144.396 291.044 145.268 291.917 146.141C292.764 146.988 294.192 145.903 293.584 144.845C292.975 143.787 292.208 142.438 291.521 141.248C290.833 140.058 289.325 140.904 289.563 142.068C289.907 143.708 290.251 145.321 290.595 146.961C290.78 147.834 292.155 148.019 292.552 147.226C292.896 146.538 293.213 145.877 293.557 145.189C292.896 145.11 292.261 145.03 291.6 144.925C291.891 145.665 292.182 146.406 292.473 147.146C292.658 147.596 293.002 147.94 293.504 147.94C294.007 147.94 294.456 147.622 294.536 147.146C294.642 146.512 294.747 145.85 294.853 145.216C294.165 145.11 293.451 145.03 292.764 144.925C292.817 145.401 292.843 145.877 292.896 146.379L294.985 146.088C294.086 141.671 290.648 137.969 286.363 136.646C282.078 135.324 284.776 137.413 285.173 138.207C286.575 141.169 287.976 144.131 289.378 147.12C289.854 148.099 291.362 147.57 291.362 146.591C291.362 143.682 289.272 140.984 286.442 140.323C286.098 140.243 285.649 140.323 285.411 140.587C285.12 140.931 284.802 141.275 284.512 141.619C285.067 141.698 285.622 141.751 286.178 141.83C285.86 141.301 285.569 140.799 285.252 140.27C284.75 139.423 283.612 139.688 283.295 140.534C282.977 141.38 282.951 141.433 282.792 141.883C283.454 141.804 284.088 141.724 284.75 141.619C284.485 141.01 284.194 140.428 283.93 139.82C283.559 139.027 282.105 139.185 281.972 140.084C281.867 140.746 281.787 141.38 281.681 142.042C281.576 142.703 281.761 143.073 282.29 143.285C282.819 143.496 283.401 143.338 283.612 142.862C283.877 142.227 284.141 141.592 284.432 140.957C283.771 140.878 283.136 140.799 282.475 140.693C282.66 141.566 282.845 142.438 283.03 143.311C283.216 144.184 283.533 144.025 283.903 144.078C284.353 144.131 284.697 143.946 284.961 143.576L285.569 142.729C285.834 142.359 285.913 142.015 285.887 141.566C285.808 140.878 285.755 140.19 285.675 139.503C285.543 138.101 285.517 136.699 285.49 135.297C284.802 135.403 284.088 135.482 283.401 135.588C283.718 136.62 284.035 137.651 284.353 138.709C284.67 139.767 286.786 139.45 286.416 138.154C285.86 136.276 285.305 134.371 284.723 132.494C284.617 132.176 284.538 131.885 284.273 131.7C284.009 131.515 283.85 131.489 283.612 131.409C283.454 131.356 283.083 131.118 282.925 131.012C282.396 130.616 282.025 130.087 281.84 129.531C281.153 129.716 280.465 129.902 279.777 130.087C279.989 130.616 280.2 131.145 280.412 131.647C280.624 132.15 281.126 132.599 281.708 132.388C281.708 132.388 281.999 132.308 281.893 132.335C281.787 132.361 282.025 132.361 281.946 132.335C281.867 132.308 282.105 132.388 282.131 132.388C281.999 132.335 282.21 132.441 282.237 132.467C282.237 132.467 282.422 132.652 282.369 132.599C282.369 132.626 282.448 132.758 282.422 132.652C282.422 132.679 282.475 132.97 282.475 132.811C282.501 133.34 282.845 133.79 283.401 133.869C283.903 133.922 284.459 133.631 284.564 133.102C284.882 131.515 284.009 129.954 282.422 129.478C281.1 129.082 280.544 131.145 281.867 131.541V131.594Z" fill="#BC0000"/>
<path d="M287.421 140.931C287.421 141.592 287.421 142.253 287.421 142.915C287.421 143.497 287.897 143.973 288.479 143.973C289.061 143.973 289.51 143.497 289.537 142.915C289.563 142.333 290.119 141.46 290.145 140.878C289.431 140.878 288.214 141.169 287.5 141.169C287.5 142.544 287.474 143.92 287.447 145.322C288.135 145.216 288.849 145.136 289.537 145.031C289.484 144.74 289.404 144.449 289.351 144.158C289.14 143.259 287.844 143.126 287.394 143.893C286.945 144.687 286.521 145.454 286.072 146.247C286.733 146.432 287.394 146.618 288.056 146.776C288.108 146.221 288.188 145.665 288.241 145.11C287.632 145.348 287.024 145.612 286.416 145.851C289.59 149.659 294.985 152.304 300.01 151.564C301.571 151.325 302.999 150.638 304.189 149.606C304.798 149.077 304.48 147.993 303.713 147.834C302.259 147.49 300.777 147.147 299.323 146.803L299.032 148.892C300.275 148.892 301.518 148.945 302.761 148.945V146.829C301.545 146.829 300.328 146.776 299.085 146.776V148.892C300.143 148.892 301.201 148.892 302.259 148.892V146.776C300.963 146.829 299.667 146.856 298.371 146.908V149.024C301.016 148.892 303.687 148.76 306.332 148.628C306.914 148.601 307.39 148.152 307.39 147.57C307.39 146.988 306.914 146.485 306.332 146.512C303.687 146.644 301.016 146.776 298.371 146.908C297.789 146.935 297.313 147.385 297.313 147.966C297.313 148.548 297.789 149.051 298.371 149.024C299.667 148.972 300.963 148.945 302.259 148.892C303.634 148.839 303.634 146.776 302.259 146.776C301.201 146.776 300.143 146.776 299.085 146.776C297.709 146.776 297.709 148.892 299.085 148.892C300.301 148.892 301.518 148.945 302.761 148.945C304.137 148.945 304.137 146.829 302.761 146.829C301.518 146.829 300.275 146.776 299.032 146.776C297.842 146.776 297.577 148.575 298.741 148.866C300.196 149.21 301.677 149.553 303.131 149.897C302.973 149.315 302.814 148.707 302.655 148.125C300.407 150.082 297.18 149.791 294.536 148.919C291.944 148.072 289.642 146.459 287.897 144.369C287.632 144.052 287.103 143.999 286.733 144.158C286.31 144.343 286.125 144.687 286.072 145.136C286.019 145.692 285.94 146.247 285.887 146.803C285.781 147.887 287.394 148.205 287.87 147.332C288.32 146.538 288.743 145.771 289.193 144.978C288.532 144.898 287.897 144.819 287.236 144.713C287.288 145.004 287.368 145.295 287.421 145.586C287.685 146.776 289.484 146.485 289.51 145.295C289.51 143.92 289.537 142.544 289.563 141.143C289.563 140.561 289.061 140.085 288.505 140.085C287.95 140.085 287.474 140.561 287.447 141.143C287.421 141.724 287.394 142.306 287.341 142.888H289.457C289.457 142.227 289.457 141.566 289.457 140.905C289.457 139.529 287.341 139.529 287.341 140.905L287.421 140.931Z" fill="#BC0000"/>
<path d="M308.501 145.851C305.115 145.454 301.651 145.851 298.45 147.067C297.948 147.252 297.63 147.728 297.762 148.257C297.895 148.786 298.45 149.051 298.953 148.945C300.381 148.601 301.809 148.257 303.264 147.887C302.947 147.358 302.629 146.803 302.312 146.274C301.624 146.829 300.725 146.908 299.931 146.67C299.852 147.305 299.746 147.94 299.667 148.575C300.804 148.443 301.941 148.31 303.052 148.152C303.581 148.099 304.031 147.755 304.031 147.173C304.031 146.591 303.581 146.141 303.052 146.194C301.915 146.327 300.778 146.459 299.667 146.618C299.191 146.67 298.768 146.935 298.715 147.464C298.662 147.993 298.926 148.39 299.402 148.522C300.91 148.998 302.47 148.601 303.661 147.623C303.978 147.358 304.004 146.776 303.819 146.432C303.634 146.089 303.132 145.877 302.708 145.983C301.28 146.327 299.852 146.67 298.397 147.041C298.582 147.675 298.741 148.284 298.926 148.919C301.994 147.781 305.221 147.411 308.474 147.781C309.003 147.834 309.453 147.279 309.453 146.803C309.453 146.327 309.003 145.903 308.474 145.824L308.501 145.851Z" fill="#BC0000"/>
<path d="M305.723 148.204C307.284 148.68 309.109 148.257 310.246 147.067C311.383 145.877 311.78 144.052 311.225 142.518C310.749 142.888 310.273 143.258 309.797 143.629C312.627 145.057 315.43 146.459 318.26 147.887C318.736 148.125 319.318 148.019 319.583 147.543C319.847 147.067 319.715 146.459 319.239 146.221C316.409 144.792 313.605 143.391 310.775 141.962C310.431 141.777 310.008 141.777 309.691 142.042C309.373 142.306 309.215 142.703 309.347 143.073C309.664 143.972 309.558 145.004 308.871 145.718C308.183 146.432 307.152 146.644 306.252 146.353C305.062 145.983 304.533 147.86 305.723 148.231V148.204Z" fill="#BC0000"/>
<path d="M298.82 119.19C295.964 121.438 292.922 123.871 291.362 127.257C290.039 130.166 290.066 133.71 291.891 136.408C292.843 137.836 294.271 138.921 295.99 139.238C296.414 139.318 296.837 139.238 297.101 138.868C297.366 138.498 297.445 138.022 297.181 137.678C294.589 134.187 294.086 129.346 296.043 125.458C296.308 124.956 296.176 124.295 295.673 124.004C295.17 123.713 294.483 123.871 294.218 124.374C292.235 128.262 291.917 132.97 293.531 137.043C294.033 138.339 295.779 137.837 295.594 136.488C294.668 130.378 297.974 124.506 301.65 119.904C305.486 115.09 310.167 111.017 313.711 105.992C315.668 103.241 317.229 100.2 317.996 96.8934C318.128 96.338 317.811 95.7297 317.255 95.5974C316.726 95.4387 316.065 95.7826 315.959 96.338C314.584 102.236 310.564 106.944 306.544 111.308C302.232 115.963 297.657 120.565 295.118 126.463C293.663 129.849 292.975 133.42 293.531 137.096C294.218 136.911 294.906 136.726 295.594 136.54C294.192 132.996 294.324 128.923 296.07 125.511C295.461 125.141 294.853 124.797 294.245 124.427C291.97 128.95 292.367 134.689 295.382 138.789C295.779 138.26 296.176 137.757 296.572 137.228C295.885 137.096 295.541 136.99 294.985 136.593C294.906 136.54 294.853 136.488 294.774 136.435C294.641 136.329 294.88 136.514 294.747 136.435C294.615 136.355 294.509 136.223 294.403 136.117C294.298 136.012 294.218 135.932 294.112 135.826C294.007 135.721 294.033 135.721 293.98 135.668C293.822 135.483 294.007 135.721 293.901 135.562C293.531 135.059 293.213 134.451 293.055 134.001C292.949 133.684 292.843 133.367 292.764 133.049C292.737 132.917 292.711 132.758 292.684 132.6C292.631 132.335 292.658 132.467 292.631 132.203C292.499 130.828 292.631 129.717 293.213 128.421C293.874 126.94 294.853 125.644 295.99 124.48C297.339 123.104 298.847 121.888 300.354 120.724C300.804 120.38 300.725 119.587 300.354 119.216C299.984 118.846 299.296 118.873 298.847 119.216L298.82 119.19Z" fill="#BC0000"/>
<path d="M346.957 98.4012C344.074 104.141 337.594 106.415 331.643 107.235C329.66 107.526 327.65 107.658 325.64 107.817C324.952 107.87 324.952 108.928 325.64 108.875C332.331 108.373 339.578 107.711 344.789 102.977C346.058 101.84 347.116 100.464 347.883 98.9302C348.201 98.3219 347.275 97.7929 346.957 98.4012Z" fill="#BC0000"/>
<path d="M342.91 96.8939C340.556 100.174 336.774 102.342 332.754 102.686C332.066 102.739 332.066 103.797 332.754 103.744C337.171 103.374 341.271 101.02 343.836 97.4228C344.233 96.8674 343.307 96.3384 342.91 96.8939Z" fill="#BC0000"/>
<path d="M390.519 66.2127C383.854 64.7051 376.818 65.0754 370.365 67.3236L370.973 67.5616C367.852 62.6421 362.774 59.0715 357.061 57.8284C356.4 57.6961 356.109 58.7012 356.77 58.8599C362.192 60.0501 367.059 63.4091 370.047 68.0906C370.18 68.2757 370.418 68.408 370.656 68.3286C376.924 66.1334 383.748 65.7366 390.254 67.2178C390.916 67.3765 391.207 66.3449 390.545 66.1862L390.519 66.2127Z" fill="#BC0000"/>
<path d="M52.3218 395.942C52.3218 395.863 52.3218 395.757 52.2954 395.677C52.2425 395.466 52.0838 395.281 51.8986 395.201C51.0258 394.672 49.9679 394.461 48.9892 394.302C48.3809 394.196 47.799 394.143 47.1907 394.223C46.5559 394.302 45.9476 394.461 45.3393 394.567C44.8896 394.54 44.44 394.487 43.9904 394.487C43.5143 394.487 42.9853 394.54 42.5621 394.805C42.377 394.937 42.2448 395.096 42.2183 395.334C42.1919 395.545 42.2183 395.81 42.4299 395.942C42.7737 396.233 43.1705 396.444 43.5672 396.656C43.5672 396.656 43.5672 396.709 43.5936 396.735C43.6201 396.788 43.6465 396.841 43.6994 396.868C43.7523 396.921 43.7788 396.947 43.8317 396.973C43.8581 396.973 43.8846 396.973 43.911 397C43.9375 397 43.9904 397.026 44.0168 397.026C44.0697 397.026 44.1226 397.026 44.202 397.026C44.2549 397.026 44.2813 397.026 44.3342 397.026C44.2549 397.159 44.1755 397.291 44.1226 397.45C44.0433 397.74 44.0433 398.058 44.1226 398.349C44.2284 398.719 44.5194 398.904 44.8632 398.984C45.6302 399.142 46.4501 399.116 47.2171 398.957C47.9577 398.798 48.8041 398.428 49.1479 397.714C49.2537 397.476 49.3066 397.291 49.2273 397.026C49.2008 396.894 49.1479 396.788 49.0951 396.683C49.2537 396.656 49.4389 396.63 49.5976 396.577C49.7298 396.55 49.8621 396.444 49.9414 396.339C50.4175 396.392 50.8671 396.471 51.3432 396.524C51.6077 396.603 51.9251 396.524 52.1102 396.286C52.1102 396.286 52.1102 396.286 52.1102 396.259C52.1102 396.259 52.1367 396.206 52.1631 396.18C52.1896 396.127 52.216 396.074 52.2425 396.021C52.2425 396.021 52.2425 395.995 52.2425 395.968C52.2425 395.942 52.2425 395.916 52.2425 395.889L52.3218 395.942ZM47.4288 397.45C47.4288 397.45 47.4023 397.45 47.3759 397.45C47.3759 397.45 47.4023 397.45 47.4288 397.423C47.4288 397.423 47.4817 397.423 47.5081 397.397C47.5081 397.397 47.4552 397.397 47.4288 397.423V397.45ZM46.5559 397.661C46.6353 397.661 46.6353 397.661 46.5559 397.661V397.661ZM47.8255 397.185C47.8255 397.185 47.8255 397.159 47.8519 397.132C47.8519 397.132 47.8519 397.132 47.8519 397.159L47.8255 397.185Z" fill="#BC0000"/>
<path d="M93.053 412.842C92.9737 402.316 91.9686 401.654 90.6991 400.808C88.8212 399.565 86.7052 400.332 85.5679 400.729C84.5364 401.099 83.3198 400.94 82.3412 400.332C79.9079 398.798 76.4695 397.158 72.1054 395.439C62.9011 391.789 61.1555 387.874 58.9338 382.902C58.7222 382.452 58.537 382.003 58.3254 381.553C57.3204 379.384 56.2624 377.824 55.2309 376.713C57.0294 375.047 58.6957 373.248 60.2562 371.264C64.9906 365.26 68.4819 358.119 70.6507 350.026C70.7036 349.867 70.73 349.735 70.7565 349.629C71.1268 348.333 70.7565 346.905 69.7779 345.979C68.1116 344.392 66.4982 344.921 63.8004 345.794C61.0497 346.693 55.945 348.333 48.1161 350.317C48.5658 349.259 49.0154 348.121 49.465 346.958C52.7447 338.177 52.9299 333.046 50.0469 330.242C46.2647 326.592 40.4724 329.872 38.568 330.93C37.0075 331.802 23.1218 341.113 15.5838 348.571C15.24 348.412 14.8697 348.333 14.4994 348.28C12.5951 348.095 10.6643 347.989 8.75999 347.989C-22.2383 347.989 -47.4442 373.195 -47.4442 404.193C-47.4442 435.192 -43.2653 428.447 -36.2298 437.837C-34.2461 437.44 -32.3418 436.567 -30.7284 435.218C-30.3581 434.927 -30.0408 434.61 -29.7234 434.266C-36.2298 425.961 -40.1178 415.514 -40.1178 404.167C-40.1178 378.115 -19.5934 356.744 6.11508 355.369C6.35312 355.421 6.59114 355.448 6.85564 355.448C8.07229 355.448 13.6001 356.056 16.245 356.347C17.4088 356.479 18.5726 356.03 19.366 355.183C25.5287 348.412 40.7368 338.124 42.1651 337.304C43.3817 336.616 44.2281 336.272 44.7835 336.087C44.7042 338.997 42.2973 345.953 39.097 352.459C24.7616 356.453 17.3559 368.143 17.0385 368.672C15.9806 370.392 16.5095 372.64 18.2287 373.724C19.9479 374.782 22.1961 374.253 23.2805 372.534C23.3334 372.428 29.9192 362.007 42.4296 359.177C51.0784 357.22 57.3733 355.448 61.6316 354.152C59.8066 358.833 57.4526 363.039 54.5168 366.715C46.7143 376.607 35.7115 381.738 21.8787 381.976C19.8421 382.003 18.2552 383.669 18.2816 385.706C18.3081 387.716 19.9479 389.303 21.9316 389.303C23.9153 389.303 21.9845 389.303 21.9845 389.303C32.4054 389.117 41.689 386.393 49.3857 381.289C49.7295 381.553 50.6023 382.347 51.6339 384.621C51.819 385.044 52.0306 385.468 52.2157 385.891C54.649 391.339 57.3997 397.528 69.3811 402.263C74.3007 404.22 77.0249 405.675 78.4267 406.547C80.5955 407.896 83.0817 408.478 85.5415 408.214C85.6473 409.854 85.7266 411.969 85.7002 414.218C85.6737 417.947 85.4093 420.407 85.1183 421.835L82.8701 421.094C81.0452 420.486 79.0879 421.385 78.3474 423.131C77.9242 424.136 77.3423 425.247 76.8927 425.961C74.6181 425.882 73.7188 425.749 73.4807 425.723C73.1634 425.617 72.8724 425.591 72.555 425.564C72.5021 425.564 72.4757 425.564 72.4228 425.564C72.3699 425.564 72.2906 425.564 72.2377 425.564C70.783 425.564 69.4076 426.384 68.7993 427.812C63.2185 441.037 50.4701 448.628 33.8601 448.628C17.2501 448.628 14.7639 444.951 7.59622 438.286C6.11508 436.911 3.78757 436.99 2.41222 438.471C1.03687 439.952 1.1162 442.28 2.59735 443.655C6.6705 447.438 11.3255 450.426 16.3244 452.489C13.8117 452.886 11.2726 453.098 8.70707 453.098C-3.72398 453.098 -15.097 448.416 -23.7459 440.746C-24.1955 441.196 -24.6716 441.645 -25.1741 442.042C-26.6288 443.259 -28.2422 444.264 -29.9085 445.031C-19.8314 454.579 -6.23663 460.451 8.70707 460.451C23.6508 460.451 22.9896 459.102 29.6547 456.404C29.9986 456.272 30.3159 456.086 30.5804 455.875C31.6648 455.954 32.7492 456.007 33.8336 456.007C52.4802 456.007 67.0801 447.755 74.3536 433.261C75.3057 433.34 76.5224 433.393 78.0829 433.42C78.1093 433.42 78.1622 433.42 78.1887 433.42C79.6434 433.42 81.4948 432.838 83.5843 429.135L85.0919 429.637C86.9698 430.272 89.694 429.849 91.2545 426.675C92.4711 424.189 93.053 419.56 93.0266 412.922L93.053 412.842Z" fill="#BC0000"/>
<path d="M59.5951 434.372C55.0988 437.572 49.9677 439.741 44.5721 440.799C39.2558 441.831 33.6487 441.804 28.3588 440.614C25.3437 439.953 22.4343 438.921 19.6836 437.546C19.181 437.281 18.5198 437.414 18.2289 437.916C17.9379 438.419 18.0966 439.106 18.5991 439.371C23.7832 441.989 29.5226 443.417 35.3149 443.629C41.0015 443.841 46.7938 442.915 52.0836 440.825C57.3734 438.736 58.0346 438.101 60.6795 436.197C61.1556 435.853 61.3672 435.271 61.0498 434.742C60.7853 434.293 60.0712 434.028 59.5951 434.372Z" fill="#BC0000"/>
<path d="M59.0398 404.3C61.1558 406.706 63.8271 408.664 66.7894 409.96C68.2705 410.621 69.8046 411.123 71.418 411.441C72.2643 411.6 73.1107 411.705 73.9571 411.811C74.7241 411.89 75.5176 411.996 76.2582 412.261C76.9458 412.525 77.3161 412.843 77.6335 413.451C77.9509 414.059 77.5542 413.239 77.6864 413.557C77.7129 413.636 77.7393 413.742 77.7657 413.821C77.7922 413.901 77.8187 414.059 77.7922 413.954C77.7658 413.848 77.7922 414.112 77.7922 414.139C77.7922 414.218 77.7922 414.271 77.7922 414.35C77.8187 414.139 77.7393 414.456 77.7393 414.482C77.7393 414.43 77.8186 414.324 77.7393 414.509C77.7393 414.535 77.5542 414.773 77.66 414.641C77.2897 415.064 77.2368 415.726 77.66 416.149C78.0567 416.546 78.7973 416.572 79.1675 416.149C80.3577 414.8 80.0668 412.922 78.9824 411.6C77.8187 410.145 75.8614 409.854 74.1158 409.669C70.8097 409.298 67.6358 408.267 64.8322 406.468C63.2452 405.437 61.817 404.194 60.5739 402.766C60.2036 402.342 59.463 402.369 59.0663 402.766C58.6695 403.162 58.696 403.85 59.0663 404.273L59.0398 404.3Z" fill="#BC0000"/>
<path d="M29.9988 375.946C37.669 375.205 44.9954 372.19 51.0257 367.377C52.692 366.054 54.2525 364.573 55.6808 362.986C56.051 362.563 56.1039 361.902 55.6808 361.478C55.284 361.082 54.5699 361.055 54.1732 361.478C49.3594 366.874 42.9852 370.789 36.0027 372.693C34.0455 373.222 32.0353 373.619 29.9988 373.804C29.4169 373.857 28.9408 374.253 28.9408 374.862C28.9408 375.47 29.4169 375.973 29.9988 375.92V375.946Z" fill="#BC0000"/>
<path d="M30.5275 436.25C35.1032 438.049 40.3401 437.837 44.81 435.88C46.0796 435.325 47.2698 434.611 48.3806 433.791C49.4915 432.971 48.3806 432.468 47.8516 432.865C44.1488 435.695 39.3086 436.938 34.6801 436.25C33.3576 436.065 32.0616 435.721 30.8185 435.219C30.1837 434.981 29.8928 435.986 30.5275 436.25Z" fill="#BC0000"/>
<path d="M52.3483 431.727C53.036 431.727 53.036 430.669 52.3483 430.669C51.6606 430.669 51.6606 431.727 52.3483 431.727Z" fill="#BC0000"/>
<path d="M-3.51213 369.625C0.825514 367.483 5.95662 367.403 10.4001 369.228C10.929 369.44 11.5638 368.99 11.6961 368.488C11.8548 367.879 11.4845 367.403 10.9555 367.192C5.98306 365.129 0.190744 365.42 -4.59653 367.8C-5.09906 368.064 -5.25776 368.779 -4.96682 369.255C-4.64943 369.784 -4.01466 369.889 -3.51213 369.625Z" fill="#BC0000"/>
<path d="M48.5655 384.119C48.9093 383.801 49.2796 383.51 49.6235 383.193C49.1738 382.743 48.6977 382.267 48.2481 381.818C47.9043 382.162 47.5604 382.505 47.1901 382.849C47.6398 383.299 48.1159 383.775 48.5655 384.225C48.9887 383.749 49.4119 383.246 49.835 382.77C50.1524 382.4 50.2318 381.897 49.9144 381.5C49.6235 381.157 49.068 380.971 48.6713 381.262C47.4017 382.109 46.1586 382.982 44.8891 383.828C43.6195 384.674 44.2808 384.568 44.4923 385.045C44.6775 385.441 45.18 385.785 45.6296 385.6C45.947 385.494 46.238 385.362 46.5554 385.256C46.3173 384.674 46.0528 384.066 45.8148 383.484C43.9898 384.357 42.1913 385.23 40.3663 386.102C39.3877 386.579 40.0753 388.271 41.1069 387.875C42.6409 387.293 44.175 386.684 45.709 386.102C45.471 385.521 45.2065 384.912 44.9684 384.33C43.3286 385.071 41.6887 385.838 40.0489 386.579C40.3663 387.134 40.7101 387.689 41.0275 388.245C42.6145 387.478 44.2279 386.711 45.8148 385.944C47.4017 385.177 46.4231 385.045 46.1586 384.621C45.8677 384.119 45.3122 384.066 44.8362 384.278C42.8525 385.15 40.8424 386.023 38.8587 386.896C39.1761 387.451 39.5199 388.007 39.8373 388.562C41.3714 387.848 42.9319 387.108 44.4659 386.393C43.9898 386.023 43.5137 385.653 43.0377 385.283C42.879 386.023 42.4029 386.631 41.6888 386.87C41.9268 387.451 42.1913 388.06 42.4293 388.642C44.0956 387.822 45.7619 387.002 47.4282 386.182C48.4068 385.706 47.7191 384.066 46.6876 384.41C45.8412 384.701 44.9684 384.965 44.1221 385.256C44.4394 385.785 44.7568 386.341 45.0742 386.87C46.5554 385.626 48.3274 384.806 50.2318 384.436C49.9144 383.907 49.597 383.352 49.2796 382.823C48.301 383.616 47.3224 384.41 46.3438 385.23C45.3652 386.05 45.9999 386.155 46.2644 386.499C46.5289 386.843 47.0844 386.975 47.5075 386.737C49.0945 385.864 50.6814 385.018 52.2684 384.145C53.8553 383.272 52.5593 381.976 51.5278 382.373C50.5756 382.743 49.597 383.114 48.6448 383.484C48.8829 384.066 49.1474 384.674 49.3854 385.256C49.7557 385.018 50.1524 384.78 50.5227 384.568C50.9723 384.304 51.131 383.696 50.8666 383.246C50.5756 382.77 50.0202 382.664 49.5441 382.902C46.9521 384.145 44.3601 385.388 41.7416 386.631C42.059 387.187 42.4029 387.742 42.7202 388.298C43.2757 387.927 43.8311 387.531 44.3865 387.16C44.7833 386.896 44.9949 386.42 44.7833 385.944C44.5717 385.468 44.122 385.23 43.646 385.388C42.4029 385.759 41.1862 386.102 39.9431 386.473C40.1811 387.055 40.4456 387.663 40.6837 388.245C41.4243 387.689 42.1913 387.16 42.9318 386.605C43.3286 386.314 43.5402 385.864 43.3286 385.388C43.117 384.912 42.6409 384.674 42.1913 384.833C40.1811 385.494 38.171 386.182 36.1873 386.843C35.6848 387.002 35.3674 387.504 35.4997 388.033C35.6319 388.536 36.1874 388.88 36.6899 388.721C38.3297 388.192 39.9696 387.663 41.6094 387.108C41.4243 386.473 41.2656 385.864 41.0804 385.23C38.8851 385.97 36.6899 386.737 34.4946 387.478C33.3308 387.875 33.7805 389.673 35.0236 389.356C36.9808 388.853 38.9116 388.324 40.8688 387.822C40.6837 387.187 40.525 386.579 40.3398 385.944C37.9065 386.658 35.4997 387.372 33.0664 388.06C33.2515 388.694 33.4102 389.303 33.5953 389.938C35.7377 389.25 37.8801 388.589 40.0225 387.901C42.1648 387.213 40.8424 387.213 40.7101 386.711C40.5779 386.208 40.0224 385.864 39.5199 386.023C37.3775 386.711 35.2352 387.372 33.0928 388.06C31.9026 388.43 32.4052 390.281 33.6218 389.938C36.0551 389.223 38.462 388.509 40.8953 387.822C42.0855 387.478 41.583 385.626 40.3663 385.944L34.521 387.478C34.7062 388.113 34.8649 388.721 35.05 389.356C37.2453 388.615 39.4406 387.848 41.6358 387.108C42.1384 386.949 42.4558 386.446 42.3235 385.917C42.1913 385.388 41.6358 385.071 41.1333 385.23C39.4935 385.759 37.8536 386.288 36.2138 386.843C36.3989 387.478 36.5576 388.086 36.7428 388.721C38.7529 388.06 40.763 387.372 42.7467 386.711C42.5087 386.129 42.2442 385.521 42.0061 384.939C41.2656 385.494 40.4985 386.023 39.758 386.579C39.3612 386.87 39.1496 387.319 39.3612 387.795C39.5464 388.218 40.0225 388.509 40.4986 388.351C41.7417 387.98 42.9583 387.637 44.2014 387.266C43.9634 386.684 43.6989 386.076 43.4608 385.494C42.9054 385.864 42.35 386.261 41.7945 386.631C40.763 387.346 41.6359 388.853 42.7732 388.298C45.3652 387.055 47.9572 385.812 50.5756 384.568L49.597 382.902C49.2267 383.14 48.83 383.378 48.4597 383.59C48.0894 383.801 47.8778 384.357 48.063 384.806C48.2481 385.203 48.7506 385.547 49.2003 385.362C50.1524 384.992 51.131 384.621 52.0832 384.251C51.8452 383.669 51.5807 383.061 51.3427 382.479C49.7557 383.352 48.1688 384.198 46.5818 385.071C46.9786 385.574 47.3753 386.076 47.772 386.605C48.7506 385.812 49.7293 385.018 50.7079 384.198C51.0253 383.934 51.0517 383.352 50.8666 383.008C50.6285 382.611 50.2053 382.479 49.7557 382.558C47.534 383.008 45.4709 384.039 43.7518 385.494C43.0112 386.129 43.8047 387.399 44.7039 387.108C45.6032 386.817 46.4231 386.552 47.2695 386.261C47.0315 385.679 46.767 385.071 46.5289 384.489C44.8626 385.309 43.1963 386.129 41.53 386.949C40.5514 387.425 41.2391 389.065 42.2706 388.721C43.6195 388.271 44.6775 387.187 44.9684 385.785C45.1536 384.912 44.3072 384.33 43.5402 384.674C42.0061 385.388 40.4457 386.129 38.9116 386.843C38.4355 387.055 38.3033 387.742 38.5678 388.166C38.8587 388.668 39.4141 388.721 39.8902 388.509C41.8739 387.637 43.884 386.764 45.8677 385.891L44.8891 384.225C43.3021 384.992 41.6888 385.759 40.1018 386.526C39.6257 386.764 39.4935 387.425 39.758 387.848C40.0225 388.271 40.6043 388.404 41.0804 388.192C42.7203 387.451 44.3601 386.684 45.9999 385.944C46.9785 385.494 46.2909 383.775 45.2594 384.172C43.7253 384.754 42.1913 385.362 40.6572 385.944C40.8953 386.526 41.1598 387.134 41.3978 387.716C43.2228 386.843 45.0213 385.97 46.8463 385.097C47.8249 384.621 47.1372 382.929 46.1057 383.325C45.0742 383.722 45.4974 383.563 45.18 383.669C45.4181 384.251 45.6826 384.859 45.9206 385.441C47.1902 384.595 48.4332 383.722 49.7028 382.876C49.3061 382.373 48.9093 381.871 48.5126 381.342C48.0894 381.818 47.6662 382.32 47.2431 382.796C46.8992 383.193 46.8463 383.775 47.2431 384.172C47.6133 384.542 48.2481 384.542 48.6184 384.172C48.9622 383.828 49.3061 383.484 49.6763 383.14C50.0466 382.77 50.0466 382.135 49.6763 381.765C49.2796 381.368 48.6978 381.421 48.301 381.765C47.9572 382.082 47.5869 382.373 47.2431 382.691C46.8463 383.034 46.8992 383.722 47.2431 384.066C47.5869 384.41 48.2217 384.41 48.6184 384.066L48.5655 384.119Z" fill="#BC0000"/>
<path d="M40.3406 385.732C39.4149 385.785 38.5156 385.864 37.5899 385.917C37.6693 386.552 37.7751 387.187 37.8544 387.821C38.4099 387.61 38.9388 387.372 39.4943 387.16C39.7323 387.054 39.9439 386.949 40.0761 386.711C40.2084 386.499 40.2613 386.208 40.1819 385.97C40.1026 385.732 39.9703 385.52 39.7323 385.388C39.4943 385.256 39.2298 385.203 38.9917 385.282C38.4363 385.494 37.9073 385.732 37.3519 385.944C37.1138 386.049 36.9022 386.155 36.77 386.393C36.6377 386.631 36.6378 386.79 36.6642 387.002C36.7171 387.451 37.1403 387.874 37.6164 387.848L40.3671 387.663C40.6316 387.663 40.8696 387.557 41.0547 387.372C41.2399 387.187 41.3457 386.922 41.3457 386.684C41.3457 386.182 40.9225 385.679 40.3671 385.706L40.3406 385.732Z" fill="#BC0000"/>
<path d="M44.5988 383.801C42.9325 384.304 41.2398 384.806 39.5735 385.309C39.0181 385.467 38.6742 386.049 38.8329 386.605C38.9916 387.16 39.5735 387.451 40.1289 387.345C42.0597 387.002 43.9905 386.684 45.9212 386.34C45.7361 385.653 45.5509 384.965 45.3658 384.277C42.9325 384.859 40.4727 385.415 38.0394 385.996C38.3039 386.658 38.5948 387.292 38.8593 387.954C42.2448 386.499 45.6567 385.044 49.0422 383.563C48.619 383.008 48.1958 382.452 47.7462 381.897C47.4817 382.135 47.2172 382.399 46.9263 382.637C46.5825 382.955 46.5296 383.537 46.7676 383.933C47.0321 384.357 47.5082 384.515 47.9578 384.41C49.2274 384.198 50.4705 383.96 51.74 383.748C51.4755 383.087 51.1846 382.452 50.9201 381.791C49.8092 382.479 48.6984 383.14 47.5875 383.828C47.9578 384.436 48.3016 385.044 48.6719 385.653C49.7034 385.018 50.7614 384.357 51.7929 383.722C52.9567 383.008 51.9252 381.209 50.7085 381.897C47.9314 383.457 44.8368 384.436 41.6365 384.7C40.2611 384.806 40.2611 386.711 41.6365 386.816C42.0332 386.843 42.43 386.896 42.8267 386.922C42.7209 386.235 42.6416 385.52 42.5358 384.833C39.7322 385.838 36.955 386.869 34.1514 387.874C32.8554 388.35 33.358 390.149 34.7069 389.937C35.9764 389.726 37.246 389.514 38.5155 389.303C38.3304 388.615 38.1452 387.927 37.9601 387.24C35.7383 387.901 33.5431 388.536 31.3214 389.197C31.5065 389.884 31.6916 390.572 31.8768 391.26C33.3844 390.625 34.892 389.99 36.3996 389.382C36.9286 389.17 37.2988 388.668 37.1402 388.086C36.9815 387.557 36.3731 387.16 35.8441 387.345C34.601 387.769 33.3315 388.192 32.0884 388.615C31.533 388.8 31.1891 389.355 31.3478 389.911C31.5065 390.466 32.0884 390.757 32.6438 390.651C35.9499 390.123 39.2825 389.567 42.5886 389.038C42.4035 388.35 42.2184 387.663 42.0332 386.975C41.0017 387.398 39.9702 387.821 38.9387 388.245C38.4097 388.456 38.0394 388.959 38.1981 389.541C38.3568 390.123 38.9387 390.413 39.4941 390.281C43.435 389.355 47.3759 388.456 51.2904 387.531C51.8458 387.398 52.1897 386.763 52.031 386.235C51.8723 385.706 51.2904 385.388 50.735 385.494C48.5397 385.891 46.3444 386.261 44.1491 386.658L44.7046 388.721C46.6618 388.165 48.619 387.61 50.5763 387.054C51.1317 386.896 51.4755 386.314 51.3168 385.758C51.1581 385.15 50.5763 384.912 50.0209 385.018C48.3546 385.309 46.6883 385.6 45.022 385.864C45.2071 386.552 45.3923 387.24 45.5774 387.927C48.0372 387.398 50.5234 386.896 52.9831 386.367C52.798 385.679 52.6128 384.991 52.4277 384.304C50.5234 384.859 48.6191 385.388 46.7147 385.944L47.2701 388.007C49.6506 387.107 52.5071 387.954 53.8824 390.123C54.2791 389.594 54.6759 389.091 55.0726 388.562C54.4378 388.483 53.8295 388.403 53.1947 388.298C52.7187 388.245 52.2426 388.35 52.0045 388.774C51.7929 389.144 51.8194 389.779 52.1632 390.07C53.327 391.022 54.5172 391.947 55.6809 392.9C56.1306 393.27 56.7389 393.349 57.1885 392.9C57.6382 392.45 57.5853 391.815 57.1885 391.392C53.1154 386.922 46.3709 386.631 40.7637 387.081C33.9927 387.61 27.4598 389.461 20.9798 391.392C17.3034 392.503 13.627 393.64 9.89766 394.592C9.34223 394.725 8.99841 395.359 9.1571 395.888C9.3158 396.497 9.89765 396.708 10.4531 396.629C18.1497 395.492 25.7406 393.72 33.1199 391.286C35.1829 390.599 37.2459 389.884 39.2825 389.091C39.0974 388.403 38.9122 387.716 38.7271 387.028C34.4688 388.747 29.9725 389.805 25.3968 390.123C25.5026 390.81 25.5819 391.524 25.6877 392.212L31.3743 391.075C31.9297 390.969 32.2735 390.281 32.1148 389.779C31.9561 389.197 31.3743 388.932 30.8188 389.038C28.9145 389.408 27.0366 389.805 25.1323 390.175C23.9685 390.413 24.2066 392.344 25.4233 392.265C30.1841 391.948 34.892 390.89 39.309 389.117C39.838 388.906 40.2082 388.403 40.0495 387.821C39.9173 387.319 39.2825 386.869 38.7535 387.081C31.5065 389.858 23.995 392 16.3777 393.508C14.2353 393.931 12.0929 394.301 9.9241 394.619C10.1092 395.307 10.2944 395.994 10.4796 396.682C16.8802 395.042 23.1486 392.847 29.5757 391.233C32.7232 390.44 35.9235 389.779 39.1503 389.408C42.0332 389.091 45.1013 388.932 47.9578 389.329C50.8672 389.726 53.6973 390.757 55.7074 392.953C56.2099 392.45 56.7124 391.947 57.215 391.445C56.0512 390.493 54.861 389.567 53.6972 388.615C53.3534 389.197 53.0096 389.805 52.6658 390.387C53.3005 390.466 53.9089 390.546 54.5436 390.651C54.9668 390.704 55.39 390.652 55.6545 390.281C55.8925 389.937 55.9719 389.461 55.7338 389.091C53.8824 386.182 49.968 384.753 46.7147 385.996C46.1857 386.208 45.8154 386.711 45.9741 387.292C46.1328 387.848 46.7412 388.192 47.2701 388.033C49.1745 387.478 51.0788 386.949 52.9831 386.393C54.3056 386.023 53.7502 384.066 52.4277 384.33C49.9679 384.859 47.4817 385.362 45.022 385.891C44.4665 385.996 44.1227 386.658 44.2814 387.187C44.4401 387.795 45.022 388.033 45.5774 387.927C47.2437 387.636 48.91 387.345 50.5763 387.081C50.3911 386.393 50.206 385.706 50.0209 385.018C48.0636 385.573 46.1064 386.129 44.1491 386.684C42.1919 387.24 43.2499 387.425 43.4086 387.98C43.5673 388.588 44.1491 388.827 44.7046 388.721C46.8998 388.324 49.0951 387.954 51.2904 387.557C51.1052 386.869 50.9201 386.182 50.735 385.494C46.7941 386.42 42.8532 387.319 38.9387 388.245C39.1238 388.932 39.309 389.62 39.4941 390.308C40.5256 389.884 41.5571 389.461 42.5886 389.038C43.1176 388.827 43.4879 388.324 43.3292 387.742C43.1705 387.134 42.5887 386.896 42.0332 387.002C38.7271 387.531 35.3945 388.086 32.0884 388.615C32.2735 389.303 32.4587 389.99 32.6438 390.678C33.8869 390.255 35.1565 389.832 36.3996 389.408C36.2145 388.721 36.0293 388.033 35.8441 387.345C34.3365 387.98 32.829 388.615 31.3214 389.223C29.8138 389.832 30.4221 389.937 30.5808 390.519C30.7395 391.101 31.3478 391.419 31.8768 391.26C34.0985 390.599 36.2938 389.964 38.5155 389.303C39.071 389.144 39.4148 388.562 39.2561 388.007C39.0974 387.398 38.5155 387.16 37.9601 387.266C36.6905 387.478 35.421 387.689 34.1514 387.901C34.3366 388.588 34.5217 389.276 34.7069 389.964C37.5105 388.959 40.2876 387.927 43.0912 386.922C44.2285 386.499 44.0169 384.939 42.8003 384.833C42.4035 384.806 42.0068 384.753 41.61 384.727V386.843C45.1807 386.552 48.6191 385.52 51.74 383.748C51.3698 383.14 51.0259 382.532 50.6556 381.923C49.6241 382.558 48.5661 383.219 47.5346 383.854C46.3709 384.568 47.4288 386.42 48.619 385.679C49.7299 384.991 50.8408 384.33 51.9516 383.642C52.4012 383.378 52.6128 382.796 52.3748 382.32C52.1367 381.844 51.6607 381.606 51.1317 381.712C49.8621 381.923 48.619 382.161 47.3495 382.373C47.6933 382.955 48.0372 383.563 48.381 384.145C48.6455 383.907 48.91 383.643 49.2009 383.404C49.5976 383.061 49.5977 382.399 49.2803 382.003C48.9364 381.553 48.4075 381.5 47.9049 381.738C44.5195 383.193 41.1075 384.648 37.7221 386.129C37.246 386.34 37.0872 387.028 37.2988 387.451C37.5104 387.954 38.013 388.192 38.542 388.059C40.9753 387.478 43.435 386.922 45.8683 386.34C46.4238 386.208 46.7676 385.573 46.6089 385.044C46.4502 384.515 45.8683 384.198 45.3129 384.304C43.3821 384.648 41.4513 384.965 39.5206 385.309L40.076 387.372C41.7423 386.869 43.435 386.367 45.1013 385.864C46.3973 385.467 45.8419 383.431 44.5459 383.801H44.5988Z" fill="#BC0000"/>
<path d="M9.50032 443.471C10.7434 443.471 10.7434 441.514 9.50032 441.514C8.25722 441.514 8.25722 443.471 9.50032 443.471Z" fill="#BC0000"/>
<path d="M68.1118 425.829C66.71 425.671 65.3083 425.512 63.9065 425.353C63.3775 425.3 62.9278 425.856 62.9278 426.332C62.9278 426.808 63.3775 427.231 63.9065 427.31C67.0804 427.681 70.2807 428.051 73.4546 428.421C73.9835 428.474 74.4332 427.919 74.4332 427.443C74.4332 426.967 73.9835 426.543 73.4546 426.464C70.0691 426.041 66.6836 425.618 63.2981 425.194C62.822 425.142 62.3989 425.618 62.346 426.041C62.2931 426.464 62.5576 427.046 63.0336 427.099C65.0967 427.416 67.1597 427.734 69.2227 428.025V426.147C68.3499 426.332 67.4771 426.49 66.6043 426.676C65.4934 426.887 65.7843 428.553 66.8687 428.58C67.9796 428.58 69.0905 428.633 70.2278 428.633V426.676C69.5665 426.755 68.9318 426.834 68.2706 426.914C67.7416 426.967 67.2919 427.31 67.2919 427.892C67.2919 428.474 67.7416 428.871 68.2706 428.871C69.5137 428.871 70.7832 428.871 72.0263 428.871V426.914C70.5716 426.967 69.1169 427.019 67.6622 427.099V429.056C68.1383 429.003 68.6144 428.924 69.0905 428.871C69.0111 428.236 68.9053 427.601 68.826 426.967C67.7151 427.125 66.5778 427.31 65.4669 427.469C64.9909 427.548 64.6999 428.104 64.7793 428.527C64.8586 429.003 65.2289 429.373 65.7314 429.373C66.472 429.373 67.2126 429.373 67.9532 429.373C67.8738 428.739 67.768 428.104 67.6887 427.469C66.234 427.734 64.5677 427.31 63.4039 426.332C63.0865 426.861 62.7692 427.416 62.4518 427.945C64.171 428.606 65.9166 429.241 67.6358 429.902C68.1383 430.088 68.6937 429.691 68.826 429.215C68.9582 428.739 68.6408 428.21 68.1383 428.025C66.4191 427.363 64.6735 426.729 62.9543 426.067C62.055 425.723 61.288 427.072 62.0021 427.681C63.7213 429.135 65.943 429.717 68.1648 429.321C69.2492 429.109 68.9847 427.39 67.9003 427.416C67.1597 427.416 66.4191 427.416 65.6785 427.416L65.943 429.321C67.0539 429.162 68.1912 428.977 69.302 428.818C70.3865 428.659 70.122 426.755 69.0376 426.914C68.5615 426.967 68.0854 427.046 67.6093 427.099C67.0804 427.178 66.6307 427.496 66.6307 428.077C66.6307 428.659 67.0804 429.082 67.6093 429.056C69.064 429.003 70.5187 428.95 71.9734 428.871C73.2165 428.818 73.243 426.914 71.9734 426.914C70.7303 426.914 69.4607 426.914 68.2176 426.914V428.871C68.8789 428.792 69.5136 428.712 70.1749 428.633C70.7039 428.58 71.1535 428.236 71.1535 427.654C71.1535 427.072 70.7039 426.702 70.1749 426.676C69.064 426.676 67.9532 426.623 66.8159 426.623C66.8952 427.257 67.001 427.892 67.0804 428.527C67.9532 428.342 68.826 428.183 69.6988 427.998C70.5716 427.813 70.6509 426.279 69.6988 426.12C67.6358 425.803 65.5728 425.485 63.5097 425.194L63.2452 427.099C66.6307 427.522 70.0162 427.945 73.4016 428.368V426.411C70.2278 426.041 67.0274 425.671 63.8536 425.3V427.257C65.2554 427.416 66.6572 427.575 68.059 427.734C68.5879 427.786 69.0376 427.231 69.0376 426.755C69.0376 426.279 68.5879 425.856 68.059 425.776L68.1118 425.829Z" fill="#BC0000"/>
<path d="M42.985 334.924C43.4082 341.404 40.6575 347.858 35.8174 352.222C34.4685 353.438 32.9609 354.47 31.321 355.29C30.8978 355.501 30.7391 356.083 30.9243 356.506C31.1094 356.903 31.612 357.247 32.0616 357.062C35.209 355.739 38.3829 354.443 41.5303 353.121C42.0064 352.909 42.3503 352.486 42.218 351.931C42.0858 351.481 41.5039 351.058 41.0278 351.243C36.0025 353.28 31.3475 356.057 27.1421 359.522C27.5917 359.971 28.0678 360.447 28.5174 360.897C29.7605 359.574 31.0301 358.226 32.2732 356.903C32.6435 356.533 32.6435 355.898 32.2732 355.528C31.8764 355.131 31.2946 355.184 30.8978 355.528C30.0515 356.215 29.2051 356.93 28.3587 357.617C28.8084 358.067 29.2844 358.543 29.7341 358.993C34.7065 353.385 41.9006 348.968 43.4611 341.087C43.8579 339.05 43.8314 336.934 43.1702 334.977C43.0115 334.474 42.509 334.157 41.98 334.289C41.5039 334.421 41.1336 334.977 41.2923 335.479C42.3767 338.706 41.5303 342.118 39.917 345.028C38.1449 348.201 35.4471 350.688 32.8286 353.147C31.2946 354.602 29.7605 356.03 28.3587 357.617C27.5124 358.569 28.7819 359.786 29.7341 358.993C30.6862 358.199 31.4268 357.591 32.2732 356.903C31.8235 356.453 31.3475 355.977 30.8978 355.528C29.6547 356.85 28.3852 358.199 27.1421 359.522C26.7718 359.892 26.7718 360.527 27.1421 360.897C27.5388 361.294 28.1207 361.241 28.5174 360.897C32.4319 357.67 36.8489 355.025 41.5303 353.121C41.3452 352.486 41.1865 351.878 41.0014 351.243C37.8539 352.565 34.6801 353.861 31.5326 355.184C31.7707 355.766 32.0351 356.374 32.2732 356.956C38.5151 353.835 43.0644 347.646 44.4662 340.849C44.8629 338.891 45.0216 336.908 44.8894 334.898C44.7571 332.887 44.4662 333.919 43.9107 333.919C43.3553 333.919 42.9057 334.369 42.9321 334.898L42.985 334.924Z" fill="#BC0000"/>
<path d="M39.8904 350.635C39.4144 350.979 38.9647 351.322 38.4886 351.693C38.9647 352.063 39.4408 352.433 39.9169 352.804C39.9698 352.513 39.9962 352.195 40.0491 351.904C39.4673 351.984 38.8589 352.063 38.2771 352.142C38.4358 352.46 38.7796 352.724 39.1499 352.804C39.5201 352.883 39.7582 352.883 40.0491 352.777C40.3401 352.671 40.3401 352.671 40.4459 352.592C40.6575 352.433 40.7897 352.328 40.922 352.116C41.1336 351.799 41.1865 351.375 41.0807 351.005C41.0278 350.767 40.8426 350.555 40.631 350.423C40.5252 350.344 40.393 350.317 40.2607 350.317C40.1285 350.291 39.9963 350.317 39.864 350.317C39.626 350.397 39.4144 350.529 39.2821 350.767C39.1499 351.005 39.1234 351.243 39.1763 351.508C39.2292 351.772 39.1763 351.534 39.1763 351.561V351.296C39.1499 351.322 39.1499 351.375 39.1499 351.402V351.137C39.1763 351.164 39.1499 351.217 39.1499 351.243L39.2557 351.005C39.2557 351.032 39.2292 351.084 39.2028 351.111C39.2557 351.058 39.3086 350.979 39.3615 350.926C39.335 350.979 39.2821 351.005 39.2557 351.032L39.4408 350.873C39.3879 350.899 39.335 350.952 39.2821 350.979C39.3615 350.952 39.4408 350.926 39.5202 350.873C39.4673 350.873 39.3879 350.926 39.335 350.926H39.5995C39.5466 350.899 39.4937 350.899 39.4408 350.899H39.7053C39.6524 350.926 39.626 350.899 39.5731 350.899L39.8111 351.005C39.7846 351.005 39.7582 350.979 39.7318 350.952L39.9169 351.111C39.8904 351.111 39.864 351.058 39.8376 351.032C39.8905 351.084 39.9434 351.164 39.9963 351.217C39.9963 351.217 39.9698 351.164 39.9433 351.137L39.7846 350.952L39.5995 350.793L39.3615 350.688C39.2292 350.635 39.097 350.635 38.9647 350.688C38.8854 350.688 38.806 350.688 38.7267 350.767C38.6473 350.767 38.568 350.82 38.5151 350.899C38.4358 350.952 38.3828 351.005 38.3299 351.084C38.2506 351.19 38.1977 351.296 38.1448 351.428C38.0919 351.719 38.0655 352.037 38.0126 352.328V352.592C38.0126 352.671 38.0126 352.777 38.0126 352.857L38.1184 353.095C38.1713 353.2 38.2506 353.306 38.3564 353.359C38.4093 353.412 38.4886 353.465 38.568 353.491C38.6473 353.544 38.7267 353.544 38.806 353.571C38.8854 353.571 38.9912 353.571 39.0705 353.571C39.2028 353.571 39.3086 353.518 39.4408 353.465C39.9169 353.121 40.3665 352.777 40.8426 352.407C40.9484 352.354 41.0542 352.275 41.1071 352.169C41.1864 352.063 41.2394 351.957 41.2923 351.825C41.3452 351.693 41.3452 351.561 41.2923 351.428C41.2923 351.296 41.2394 351.19 41.1865 351.058C41.0542 350.846 40.8426 350.661 40.6046 350.608H40.3401C40.1549 350.582 39.9963 350.608 39.8376 350.714L39.8904 350.635Z" fill="#BC0000"/>
<path d="M-15.8111 442.518C-10.1246 448.602 -1.95186 451.352 6.0093 452.913C8.49551 453.389 11.0082 453.786 13.5208 454.182C13.6002 453.548 13.706 452.913 13.7853 452.278C6.90857 451.537 0.137598 449.871 -6.34241 447.438C-8.14095 446.75 -9.91303 446.01 -11.6322 445.216C-12.1083 445.005 -12.6902 445.084 -12.9547 445.56C-13.2192 446.036 -13.0605 446.644 -12.6108 446.882C-8.32608 449.289 -3.67104 451.114 1.11623 452.225C5.9035 453.336 3.84048 452.781 5.21583 452.992C5.74481 453.072 6.27379 452.86 6.40604 452.304C6.53828 451.828 6.24735 451.194 5.71837 451.114C2.33289 450.532 -1.05258 449.951 -4.46451 449.342C-4.99349 449.263 -5.52247 449.474 -5.65471 450.03C-5.78696 450.532 -5.46958 451.088 -4.96704 451.22C-2.137 452.04 0.693041 452.886 3.52308 453.706C4.73974 454.05 5.21582 452.199 4.05207 451.828C0.613693 450.744 -2.79824 449.633 -6.23661 448.549C-6.68624 448.39 -7.21521 448.681 -7.3739 449.104C-7.53259 449.501 -7.4268 450.109 -6.97716 450.321C-5.78696 450.85 -4.59676 451.379 -3.3801 451.908C-3.14206 451.326 -2.87759 450.718 -2.63955 450.136C-5.65474 448.893 -8.66992 447.649 -11.6851 446.406C-12.1347 446.221 -12.6637 446.565 -12.8224 446.962C-13.0076 447.411 -12.8224 447.914 -12.4257 448.178C-11.4735 448.76 -7.13586 450.797 -6.18369 451.405C-5.86631 450.85 -8.96086 448.84 -8.61702 448.284C-10.2569 447.464 -11.9231 446.644 -13.563 445.824C-14.0391 445.586 -14.6209 445.692 -14.8854 446.168C-15.1499 446.644 -14.9648 447.173 -14.5416 447.491C-13.5894 448.178 -12.6373 448.893 -11.6851 449.58C-10.7329 450.268 -10.7065 449.686 -10.442 449.342C-10.1511 448.945 -10.1775 448.443 -10.5213 448.073C-11.6322 446.856 -12.7166 445.666 -13.8275 444.449C-14.4622 443.761 -15.8111 444.476 -15.4409 445.401C-15.3086 445.719 -15.1764 446.036 -15.0441 446.38C-14.4622 446.142 -13.8539 445.877 -13.272 445.639C-13.7746 444.767 -14.2507 443.894 -14.7532 443.021C-15.1235 442.333 -16.393 442.413 -16.5253 443.259C-16.6046 443.709 -16.684 444.158 -16.7633 444.608H-14.8854C-15.0706 444.132 -15.2557 443.656 -15.4409 443.18C-15.626 442.73 -15.9963 442.413 -16.4988 442.492C-16.9484 442.545 -17.3981 442.968 -17.3452 443.444C-17.2659 444.158 -17.2129 444.899 -17.1336 445.613L-15.2293 445.348C-15.3086 444.846 -15.388 444.343 -15.4673 443.841C-15.5467 443.365 -16.1021 443.074 -16.5253 443.153C-17.0278 443.232 -17.3187 443.603 -17.3716 444.105C-17.4245 444.608 -17.4774 445.005 -17.5039 445.454C-17.0278 445.163 -16.5253 444.899 -16.0492 444.608C-16.4459 444.396 -16.8691 444.185 -17.2658 443.973C-17.7684 443.709 -18.5883 443.894 -18.6941 444.555C-18.747 444.846 -18.7734 445.163 -18.8263 445.454C-18.9057 445.93 -18.747 446.406 -18.2709 446.591C-17.7948 446.777 -17.2659 446.644 -17.0543 446.195C-16.8427 445.745 -16.6046 445.243 -16.3666 444.767C-16.9484 444.687 -17.5568 444.608 -18.1387 444.528C-17.8742 445.216 -17.6361 445.904 -17.3716 446.591C-17.213 446.988 -16.8956 447.306 -16.4459 447.306C-15.9963 447.306 -15.5996 447.015 -15.5202 446.591C-15.3086 445.798 -15.1235 444.978 -14.9119 444.185H-16.7898C-16.4195 445.19 -16.0756 446.195 -15.7053 447.226C-15.5731 447.623 -15.2293 447.94 -14.7796 447.94C-14.33 447.94 -13.9333 447.649 -13.8539 447.226C-13.7746 446.803 -13.5101 446.142 -13.6159 445.666C-13.7481 445.19 -14.092 444.687 -14.3036 444.238C-14.7267 443.365 -15.1764 442.518 -15.5996 441.646C-16.1021 442.042 -16.6046 442.439 -17.1336 442.836C-16.2872 443.761 -15.4673 444.687 -14.6209 445.586C-14.092 446.168 -11.9496 446.301 -12.0554 445.454C-12.267 443.947 -13.3514 441.91 -13.563 440.402C-14.1184 440.64 -14.6739 440.852 -15.2293 441.09C-12.4257 444.555 -8.72283 447.226 -4.75547 449.157C-0.338486 451.326 4.42235 452.648 9.23607 453.6C12.119 454.156 15.002 454.606 17.9114 455.055C18.4403 455.135 18.9693 454.923 19.1016 454.368C19.2338 453.891 18.9429 453.257 18.4139 453.177C16.4567 452.833 14.5259 452.49 12.5686 452.146L12.3041 454.05C14.0498 454.182 15.8219 454.288 17.5675 454.42C18.0965 454.447 18.5461 453.944 18.5461 453.442C18.5461 452.939 18.0965 452.516 17.5675 452.463C15.7425 452.304 13.944 452.119 12.119 451.961C11.59 451.908 11.1404 452.437 11.1404 452.939C11.1404 453.442 11.59 453.865 12.119 453.918C13.944 454.077 15.7425 454.262 17.5675 454.42V452.463C15.8219 452.331 14.0498 452.225 12.3041 452.093C11.2197 452.014 10.9552 453.812 12.0397 453.997C13.9969 454.341 15.9277 454.685 17.8849 455.029C18.0701 454.394 18.2288 453.786 18.4139 453.151C9.05094 451.723 -0.708765 450.189 -8.61702 444.608C-10.5743 443.206 -12.3728 441.566 -13.8804 439.688C-14.3829 439.08 -15.6525 439.556 -15.5467 440.376C-15.3351 441.884 -15.1499 443.391 -14.9383 444.899C-14.3829 444.661 -13.8275 444.449 -13.272 444.211C-14.1184 443.285 -14.9383 442.36 -15.7847 441.46C-16.6311 440.561 -16.7104 441.09 -17.0543 441.381C-17.451 441.698 -17.5303 442.201 -17.2923 442.624C-16.6575 443.867 -16.0227 445.137 -15.388 446.38C-15.4144 446.142 -15.4409 445.877 -15.4938 445.639C-15.5731 445.983 -15.6525 446.327 -15.7318 446.671H-13.8539C-14.2242 445.666 -14.5681 444.661 -14.9383 443.629C-15.2293 442.783 -16.5782 442.651 -16.8162 443.629C-17.0278 444.423 -17.2129 445.243 -17.4245 446.036H-15.5467C-15.8111 445.348 -16.0492 444.661 -16.3137 443.973C-16.4459 443.603 -16.7104 443.312 -17.1336 443.285C-17.5039 443.232 -17.9271 443.391 -18.1122 443.761C-18.3503 444.238 -18.5619 444.714 -18.7999 445.19C-18.218 445.428 -17.6097 445.692 -17.0278 445.93C-16.9749 445.639 -16.9484 445.322 -16.8955 445.031C-17.3716 445.216 -17.8477 445.428 -18.3238 445.613C-17.9271 445.824 -17.5039 446.036 -17.1072 446.248C-16.4195 446.618 -15.7318 446.142 -15.6525 445.401C-15.5731 444.661 -15.5467 444.502 -15.5202 444.052C-16.155 444.132 -16.7898 444.238 -17.4245 444.317C-17.3452 444.819 -17.2659 445.322 -17.1865 445.824C-17.0014 446.882 -15.1764 446.671 -15.2822 445.56C-15.3615 444.846 -15.4144 444.105 -15.4938 443.391C-16.1285 443.471 -16.7633 443.576 -17.3981 443.656C-17.2129 444.132 -17.0278 444.608 -16.8427 445.084C-16.684 445.481 -16.3666 445.798 -15.9169 445.798C-15.4673 445.798 -15.0441 445.507 -14.9912 445.084C-14.9383 444.661 -14.8325 444.185 -14.7532 443.735C-15.3351 443.814 -15.9434 443.894 -16.5253 443.973C-16.0228 444.846 -15.5466 445.719 -15.0441 446.591C-14.8061 447.015 -14.2507 447.173 -13.8275 446.988C-13.4307 446.803 -13.0869 446.301 -13.272 445.851C-13.4043 445.534 -13.5365 445.216 -13.6688 444.872C-14.1978 445.19 -14.7532 445.507 -15.2822 445.824C-14.1713 447.041 -13.0869 448.231 -11.976 449.448C-11.5793 448.945 -11.1826 448.443 -10.7858 447.914C-11.738 447.226 -12.6902 446.512 -13.6423 445.824C-13.9597 446.38 -14.3036 446.935 -14.6209 447.491C-12.9811 448.311 -11.3148 449.131 -9.67498 449.951C-8.56413 450.506 -7.61194 448.945 -8.69635 448.284C-9.64852 447.702 -10.5743 447.12 -11.5264 446.512C-11.7645 447.094 -12.0289 447.702 -12.267 448.284C-9.25178 449.527 -6.2366 450.77 -3.22142 452.014C-2.77178 452.199 -2.24279 451.855 -2.0841 451.458C-1.9254 451.061 -2.0312 450.453 -2.48083 450.241C-3.67104 449.712 -4.86127 449.183 -6.07792 448.655C-6.31596 449.236 -6.58044 449.845 -6.81848 450.427C-3.3801 451.511 0.0318279 452.622 3.4702 453.706C3.65534 453.072 3.81404 452.463 3.99918 451.828C1.16914 451.008 -1.66094 450.162 -4.49098 449.342C-4.67613 449.977 -4.83482 450.585 -5.01996 451.22C-1.63449 451.802 1.75099 452.384 5.16291 452.992C5.34805 452.357 5.50675 451.749 5.69189 451.114C-0.391382 450.215 -6.28951 448.231 -11.6587 445.216C-11.976 445.772 -12.3199 446.327 -12.6373 446.882C-6.15725 449.871 0.693047 452.066 7.72849 453.336C9.73861 453.706 11.7487 453.997 13.7853 454.209C14.8697 454.315 15.1342 452.463 14.0498 452.304C5.90351 451.035 -2.53374 449.712 -9.59562 445.163C-11.3677 444.026 -13.0076 442.677 -14.4358 441.143C-15.2822 440.217 -16.6575 441.593 -15.8111 442.518Z" fill="#BC0000"/>
</g>
<defs>
<clipPath id="clip0_194_4608">
<rect width="375" height="475" fill="white"/>
</clipPath>
</defs>
</svg>
