<svg width="71" height="71" viewBox="0 0 71 71" fill="none" xmlns="http://www.w3.org/2000/svg">
<g clip-path="url(#clip0_20_1236)">
<path d="M70.2689 67.8953L52.3157 28.3249L43.9413 18.7887C44.0954 17.8701 43.6655 14.4899 44.0792 13.9222C44.2211 13.7275 44.797 13.5045 45.0504 13.3767C48.6962 11.5214 52.9301 10.2764 56.59 8.3724C57.2997 7.9405 57.3585 6.82324 56.7685 6.26765L43.4181 0.379234C43.3593 0.308265 43.2924 0.253517 43.2194 0.217019C42.2299 -0.275711 41.2931 0.0892738 41.1978 1.1599C40.8754 4.77933 41.5141 15.0597 41.1329 18.7217C38.282 23.9877 34.9383 28.9961 32.0712 34.2498C31.8826 34.5965 30.518 36.5938 29.7515 37.851L28.3058 35.3346C27.8292 34.85 27.081 34.8034 26.5559 35.2616L18.9257 42.0503L16.318 56.4429L4.92038 67.2059C3.89234 67.8527 1.76123 66.9828 0.87716 67.7919C0.120831 68.4854 0.554757 70.0244 1.65985 70.0224L69.7457 69.9534C70.5568 69.5215 70.6784 68.6881 70.2648 67.8973L70.2689 67.8953ZM51.2653 6.7178C51.7864 7.2673 51.4093 7.66676 50.8719 7.97091L44.6429 10.6414C43.6209 10.5522 43.9981 6.54342 43.9555 3.50999L51.2653 6.7178ZM42.5462 66.8713C42.5016 67.1958 42.2482 67.4837 41.8974 67.4472L9.93892 67.362C9.61246 67.1653 9.51107 66.7497 9.77873 66.4435L18.7168 57.9272L19.0047 57.3047L21.2839 43.4941L26.6309 38.8121L27.3994 39.0149L36.3456 54.4618C37.2519 55.5325 38.7139 54.9059 38.7707 53.5575L31.1831 40.343L41.2059 24.1053L41.9663 24.0992L49.1099 48.6931L48.9517 49.1554C46.3157 52.0955 43.0065 54.8451 40.4395 57.7933C39.821 58.5051 39.0667 59.1336 39.454 60.1556C39.7825 61.2323 42.6375 66.2022 42.5442 66.8693L42.5462 66.8713ZM65.8769 67.4452C59.6417 67.0295 52.7415 67.9744 46.5874 67.4452C46.3117 67.4208 46.0298 67.4269 45.7966 67.2485C44.9085 65.2228 43.6959 63.1992 42.8484 61.1674C42.6578 60.7112 42.3272 60.1678 42.4814 59.6933L51.606 50.2909L52.1291 49.2912L45.7926 27.0981C45.8129 25.5084 46.7801 26.1532 47.506 26.9116C48.4874 27.9335 49.3633 29.1258 50.2718 30.2167L66.5663 66.7557C66.5622 67.1856 66.3027 67.4472 65.8769 67.4452Z" fill="#092B54"/>
</g>
<defs>
<clipPath id="clip0_20_1236">
<rect width="70" height="70.0203" fill="white" transform="translate(0.5)"/>
</clipPath>
</defs>
</svg>
