<svg width="76" height="70" viewBox="0 0 76 70" fill="none" xmlns="http://www.w3.org/2000/svg">
<g clip-path="url(#clip0_18_729)">
<path d="M56.3042 15.5731V7.54659C56.3042 6.75415 57.2947 5.76564 58.0749 5.64514C58.9981 5.50218 62.6457 5.50218 63.5689 5.64514C64.6759 5.81466 65.3519 6.94613 65.3458 8L65.3396 20.9241H68.4808C69.4366 20.9241 70.4966 22.9175 69.6041 23.7263L61.8962 32.2389C61.6246 32.4309 61.1507 32.6759 60.8219 32.6759C60.2623 32.6759 59.8681 32.1878 59.3677 32.0857L58.9082 35.7538C59.0532 35.9131 60.7034 34.4487 61.2018 35.0655L75.766 43.5046L75.8313 60.9771C75.7006 61.2692 74.8939 61.6695 74.5773 61.8655C71.4341 63.8323 67.9253 65.7481 64.6779 67.578C64.0141 67.9518 61.1303 69.7103 60.6646 69.7042L45.7431 61.1977C45.6553 61.0996 45.4265 60.681 45.4265 60.5952V54.4027C44.7035 54.6437 44.0561 55.1665 43.3862 55.4995C20.7914 66.7182 -4.49725 46.1536 1.81572 21.8085C7.97961 -1.95044 39.5179 -7.91621 53.9779 12.0092C54.8112 13.159 55.4791 14.4212 56.3042 15.5731ZM29.498 1.66252C24.1307 2.4427 20.8057 7.76104 19.0799 12.4381C22.4866 13.208 25.9974 13.6022 29.498 13.5859V1.66252ZM31.0298 1.66252V13.5879C34.5304 13.6002 38.0413 13.1897 41.448 12.4401C39.5302 7.79168 36.4196 2.58771 31.0298 1.66456V1.66252ZM24.29 2.12205C20.0602 3.06154 15.9101 5.02222 12.5749 7.78146C12.0562 8.21036 11.0023 9.02731 10.6551 9.53382C10.5652 9.66249 10.4427 9.68496 10.504 9.91779L17.5297 12.0398C18.9594 8.24304 21.1468 4.7322 24.29 2.12205ZM36.0847 2.12205C39.3464 4.64234 41.3377 8.27776 42.9757 11.9908C43.7906 12.0929 50.0178 10.0608 50.0198 9.687C46.1373 5.97192 41.401 3.19838 36.0847 2.12001V2.12205ZM57.454 22.4539H53.4714L53.2427 22.8337L60.824 31.1646L68.4052 22.8337L68.1765 22.4539H64.1939C64.1673 22.4539 63.9243 22.219 63.8895 22.1455L63.7425 7.61603C63.6567 7.35665 63.5546 7.21573 63.2748 7.16467C62.5498 7.02987 59.3187 7.06255 58.5181 7.1565C57.9646 7.22185 57.8952 7.48328 57.8339 8.00408C57.3458 12.2563 58.1975 17.4235 57.8441 21.7738C57.8768 21.9902 57.6358 22.4028 57.454 22.4539ZM14.4866 28.5687C14.6051 23.5179 15.2893 18.4549 16.9272 13.6737L9.35004 11.039C5.04063 15.6078 2.60817 22.0454 2.41006 28.3155L2.61429 28.5687H14.4846H14.4866ZM56.3042 20.9241C56.4553 19.1391 55.3974 17.254 54.5457 15.7222C53.6164 14.0495 52.4564 12.5259 51.2493 11.0513L43.7415 13.5083L43.619 13.9249C45.0813 18.5243 45.8738 23.3443 45.8901 28.1848L46.1189 28.5667H56.151C56.0999 28.2297 55.7507 27.8396 55.5342 27.5761C54.5457 26.3854 53.0323 25.1335 52.1684 23.9019C51.6843 23.2136 51.5107 22.6377 51.9498 21.8514C52.1051 21.5736 52.8689 20.9221 53.163 20.9221H56.3042V20.9241ZM29.498 15.1156C25.783 15.1789 22.0985 14.6132 18.4631 13.9556C18.2997 14.0699 17.5522 16.7802 17.4399 17.2254C16.627 20.4687 16.1879 23.9223 16.0102 27.2637C15.9877 27.6864 15.9061 28.291 16.2451 28.5708H29.2652L29.494 28.342V15.1177L29.498 15.1156ZM31.0298 15.1156V28.5687H44.3563C44.4319 23.5813 43.4822 18.6408 42.0566 13.8922C38.4457 14.6786 34.7388 15.134 31.0298 15.1156ZM14.4866 30.0985H2.38555C2.56936 36.534 5.08556 42.6734 9.22341 47.5403L16.9293 44.8424C15.2933 40.1163 14.6337 35.0962 14.4886 30.1005L14.4866 30.0985ZM29.498 30.0985H16.0184C16.1716 34.9961 16.7863 39.9427 18.4651 44.5605C22.1067 43.9355 25.783 43.3596 29.498 43.4004V30.1005V30.0985ZM44.3563 30.0985H31.0298V43.3984C34.7449 43.3759 38.4334 43.8865 42.0566 44.6218C43.4679 39.9182 44.4196 35.039 44.3563 30.0985ZM57.7604 30.0985H45.8901C45.9371 35.1105 45.0058 40.0693 43.5904 44.8546C43.5394 45.1896 43.6537 45.0323 43.8192 45.0834C44.344 45.2447 44.9363 45.2508 45.4286 45.5388C45.451 44.871 45.2897 43.9151 45.8064 43.3923L56.923 36.9057C57.3295 36.3788 57.9503 32.5248 57.9891 31.7017C58.0055 31.3504 58.1056 30.2026 57.7604 30.0985ZM73.4601 44.007L60.7545 36.585L57.3805 38.5825L69.7491 45.8166C70.5028 46.0065 72.6105 44.2276 73.4601 44.007ZM53.2427 41.1028L65.6501 48.2286C66.2056 48.3634 67.8068 47.138 68.4032 46.8378L55.8487 39.4811L53.3386 40.7862L53.2427 41.1007V41.1028ZM64.2694 49.358L63.861 48.9271L51.7088 41.934C51.1983 41.8278 48.6432 43.5638 48.0346 43.9335L60.6687 51.2942L64.2674 49.358H64.2694ZM29.498 44.9261C25.9974 44.9322 22.4845 45.3141 19.0799 46.0739C20.8098 50.753 24.1164 56.0774 29.498 56.8495V44.9241V44.9261ZM31.0298 44.9261V56.8515C36.4196 56.0264 39.5383 50.6876 41.448 46.076C38.0311 45.3591 34.5345 44.9343 31.0298 44.9281V44.9261ZM59.9804 52.5707L46.9603 45.2325V60.2153L59.9804 67.5535V52.5707ZM61.5122 67.5535L74.3792 60.1397V45.2345L70.7315 47.4791C70.5109 48.5145 71.0072 53.551 70.5109 54.0616L66.2648 56.4757C65.9401 56.7861 65.0353 56.247 65.0353 56.01V50.5835L61.5122 52.6483V67.5535ZM17.542 46.462C17.2479 46.2496 11.4904 48.2388 10.7164 48.584C10.5714 48.6473 10.4488 48.4962 10.506 48.825C14.2129 52.6115 19.0819 55.2952 24.29 56.394C21.1795 53.7757 18.9002 50.2873 17.542 46.464V46.462ZM45.4081 47.0869L42.9757 46.5212C41.7012 49.5071 40.1286 52.3828 37.9249 54.7908L36.0847 56.3899C39.375 55.7139 42.5488 54.4088 45.3509 52.5687L45.4081 47.0869ZM69.1711 48.2899L66.5671 49.742V54.4047C67.48 54.0984 68.3787 53.502 69.1711 52.9526V48.2899Z" fill="white"/>
</g>
<defs>
<clipPath id="clip0_18_729">
<rect width="75" height="69.7062" fill="white" transform="translate(0.833344)"/>
</clipPath>
</defs>
</svg>
