<svg width="75" height="70" viewBox="0 0 75 70" fill="none" xmlns="http://www.w3.org/2000/svg">
<g clip-path="url(#clip0_18_699)">
<path d="M74.4718 18.3481C74.2708 16.3778 72.3769 15.7043 72.1074 14.5382C71.6872 12.7126 73.1268 11.6872 71.9526 9.42536C71.0539 7.69428 69.8476 7.92952 68.398 7.25398C66.4156 6.33114 67.3606 3.47014 64.7247 2.34222C62.7122 1.4797 61.5622 2.76645 60.002 2.38847C58.7534 2.08688 58.0719 0.305544 56.3066 0.0582473C54.1915 -0.235292 53.7733 0.617178 52.3941 1.69483C50.2086 3.40379 49.1471 1.40933 46.7907 2.27386C44.2353 3.21078 44.9229 4.98608 43.8091 6.52214C43.0833 7.52339 41.7523 7.45503 40.7571 7.98983C39.5286 8.64929 38.6018 10.2597 38.9033 11.6309C37.3974 11.4198 35.9438 10.9574 34.4339 10.7503C7.31975 7.05292 -10.2142 39.0768 7.91286 59.4939C26.5948 80.5382 61.0816 66.4624 59.8693 38.4918C59.8472 37.971 59.4249 35.679 59.5838 35.4337C59.9859 34.8125 62.8107 35.6589 63.7094 35.5624C64.6705 35.4599 65.7923 34.7542 66.3211 33.958C66.8378 33.1799 66.864 32.3295 67.2218 31.5474C68.1125 29.6011 71.1404 30.4818 72.1959 27.7816C72.982 25.7691 71.4058 24.0561 72.4633 22.4798C73.4605 20.994 74.7071 20.6502 74.4718 18.3481ZM10.3999 20.1355C10.6593 19.7575 11.8616 18.7663 12.2918 18.4105C15.6796 15.6138 19.9399 13.4927 24.2746 12.6885C21.1261 15.3364 18.7859 18.8749 17.4871 22.7713L10.2511 20.5115C10.1908 20.2823 10.3134 20.2622 10.3999 20.1355ZM6.26823 25.3408C6.60601 24.7939 8.81157 21.5509 9.24384 21.5891C11.6887 22.699 14.2561 23.5756 16.8859 24.1264C15.3117 28.8874 14.4391 33.9117 14.4733 38.9482L14.2481 39.3241H2.10842C2.24715 34.4023 3.68469 29.5207 6.26622 25.3388L6.26823 25.3408ZM8.92215 58.4102C4.79652 53.4643 2.29339 47.32 2.10842 40.83H14.4733C14.429 45.9006 15.2292 51.0194 16.8738 55.8065L8.92014 58.4102H8.92215ZM10.2531 59.717C11.0473 59.2446 17.1051 57.1295 17.477 57.3969C18.5124 60.3845 20.1973 63.1129 22.238 65.5134L24.4254 67.4657C19.0432 66.4222 14.051 63.6215 10.2531 59.715V59.717ZM29.4015 67.9201C23.9972 66.963 20.7622 61.7618 18.995 57.0109C22.3888 56.2308 25.9032 55.8307 29.4015 55.8809V67.9201ZM29.4015 54.375C25.6901 54.2846 22.0108 54.8415 18.3858 55.515C16.707 50.8365 15.943 45.8041 15.9812 40.83H29.4015V54.375ZM29.4015 39.3241H15.9812C15.8686 34.3118 16.8377 29.3579 18.2531 24.5869C21.9384 25.2061 25.6458 25.759 29.4015 25.7791V39.3241ZM29.4015 24.2752C27.2201 24.2189 25.0266 24.0822 22.8632 23.8027C22.0872 23.7022 19.8434 23.4489 19.2543 23.1915C19.0734 23.1111 18.997 23.0729 18.995 22.8538C18.993 22.5562 20.2294 20.1094 20.4787 19.661C22.3485 16.2893 25.3262 12.7267 29.4015 12.2381V24.2772V24.2752ZM39.1828 13.4605C39.3457 13.7159 39.1848 15.1996 38.6882 15.0891L36.1891 12.6885L39.1828 13.4605ZM31.0602 12.2361C33.7363 12.4975 35.8775 14.2708 37.6267 16.1526C37.5442 16.8603 36.9994 17.2745 36.8566 18.0968C36.3982 20.7588 38.3947 21.3619 39.211 23.4328C39.1466 23.8389 31.9227 24.3235 31.0582 24.2772V12.2381L31.0602 12.2361ZM31.0602 25.7811L39.0521 25.18C38.4852 26.9915 39.1808 28.8593 40.9099 29.7198C41.7081 30.1158 43.4914 30.2807 43.8071 31.1915C44.1629 32.2169 44.4122 35.3433 44.4786 36.5415C44.5288 37.4644 44.4444 38.4013 44.4786 39.3241H31.0582V25.7791L31.0602 25.7811ZM31.0602 40.83H44.4806C44.5188 45.8021 43.7568 50.8365 42.076 55.515C38.453 54.8274 34.7677 54.2946 31.0602 54.375V40.83ZM31.0602 55.8789C34.5566 55.8387 38.081 56.2147 41.4708 57.0169C39.6895 61.7618 36.4666 66.961 31.0602 67.918V55.8789ZM36.0383 67.4657L38.2258 65.5134C40.2665 63.1129 41.9513 60.3845 42.9868 57.3969C45.4979 57.7708 47.8523 58.7801 50.2106 59.6447C46.5173 63.6396 41.3844 66.4101 36.0383 67.4677V67.4657ZM51.5416 58.4102L43.5879 55.8065C45.2325 51.0194 46.0327 45.9006 45.9885 40.83H58.3533C58.1583 47.3261 55.6733 53.4602 51.5396 58.4102H51.5416ZM46.2157 39.3241L45.9905 38.9482L45.9161 34.9592C46.9013 35.488 47.6331 35.6509 48.761 35.5443C49.3401 35.49 50.1021 35.1402 50.6027 35.1241C52.2373 35.0738 53.2385 37.5046 55.436 37.6594C56.4313 37.7298 57.3481 37.1527 58.2025 36.7667L58.3533 39.3241H46.2137H46.2157ZM70.6337 22.7613C70.2577 24.5306 71.5827 26.4185 70.4186 27.8138C69.7752 28.5858 68.4583 28.6381 67.5998 29.0643C65.2475 30.2345 65.9069 32.8984 64.3387 33.7871C63.0017 34.5451 61.9301 33.6263 60.6815 33.6021C58.2427 33.5559 57.3641 36.2802 55.4541 36.1334C54.1231 36.0309 53.1862 34.2214 51.7487 33.7992C50.098 33.3146 48.8093 34.3722 47.3376 33.9861C45.9221 33.6142 45.9221 31.8389 45.4095 30.7954C44.2353 28.4029 41.509 29.006 40.6787 27.5424C39.9287 26.2214 40.9843 24.3737 40.6425 22.7633C40.355 21.4142 38.5314 20.4592 38.3324 19.1986C38.0187 17.2162 40.2685 16.6151 40.6425 14.8056C40.9682 13.2293 40.0373 11.7093 40.4816 10.4326C40.9802 9.00516 42.7133 9.08156 43.8312 8.50654C46.0006 7.39069 45.4436 4.62017 46.9938 3.84209C48.3971 3.1384 48.9641 3.87426 50.287 3.9587C53.1983 4.14568 53.5662 1.73906 55.2571 1.55007C57.1792 1.33494 57.3983 2.73227 58.7554 3.4822C61.0334 4.74281 62.7383 2.80465 64.4915 3.92854C65.6194 4.65032 65.4646 6.72319 66.5483 7.81894C67.7305 9.0132 70.0366 8.83225 70.692 10.2296C71.4942 11.9365 69.7893 13.5269 71.0439 15.7485C71.7114 16.9287 73.1409 17.4555 72.968 19.0699C72.8232 20.427 70.9252 21.38 70.6317 22.7653L70.6337 22.7613Z" fill="white"/>
<path d="M54.7042 5.65764C45.1501 6.34726 39.4623 16.7578 44.1006 25.18C48.9741 34.0344 61.8135 34.2616 66.9745 25.5781C72.399 16.4462 65.2636 4.89565 54.7042 5.65764ZM65.9713 24.2793C62.0447 31.7344 51.4893 32.6391 46.3805 25.9159C40.743 18.495 45.5904 7.8049 54.855 7.16354C63.9205 6.53625 70.2236 16.209 65.9713 24.2773V24.2793Z" fill="white"/>
<path d="M58.2246 14.9243C57.5893 13.8788 57.0143 8.11659 54.9575 9.67476C54.1794 10.2639 53.6245 13.9009 53.0555 14.9243C52.7922 15.0932 48.8133 14.8499 48.0211 14.9424C47.3999 15.0128 46.8932 15.4229 46.9093 16.0783C46.9354 17.0957 50.6509 19.0419 51.4009 19.8602C51.2802 21.2293 49.5773 24.1607 49.9392 25.3731C50.0277 25.6706 50.5886 26.0607 50.8982 26.0808C51.7668 26.1351 54.6358 23.4228 55.5888 22.9463C55.9789 22.888 59.2038 25.7752 60.006 26.0185C60.774 26.2517 61.5038 25.542 61.4174 24.7538C61.3068 23.7325 59.7547 20.4412 59.8471 19.8582C60.8826 18.68 66.5201 16.4543 63.3937 14.9524L58.2206 14.9223L58.2246 14.9243ZM58.2628 19.456C58.0557 20.1879 59.4973 22.7252 59.3324 23.6742C58.4538 23.3324 56.4875 21.3178 55.7054 21.2655C54.8711 21.2092 52.8143 23.3967 51.8713 23.6722C51.7165 23.5013 52.9992 20.3387 53.0475 19.7978C53.154 18.6418 50.0779 17.3872 49.4567 16.4503C50.6469 16.2774 52.5046 16.6835 53.6024 16.4503C54.7042 16.2171 55.2812 12.1719 55.5647 12.0854C55.8763 11.9889 55.7657 12.2563 55.8281 12.4171C56.1216 13.1771 56.8555 16.4503 57.6737 16.4503H61.8195C61.2043 17.3651 58.5323 18.493 58.2608 19.4581L58.2628 19.456Z" fill="white"/>
</g>
<defs>
<clipPath id="clip0_18_699">
<rect width="74" height="69.617" fill="white" transform="translate(0.5)"/>
</clipPath>
</defs>
</svg>
