<svg width="23" height="28" viewBox="0 0 23 28" fill="none" xmlns="http://www.w3.org/2000/svg">
<path d="M11.5001 16.9731C14.4414 16.9731 16.8334 14.5811 16.8334 11.6398C16.8334 8.69848 14.4414 6.30648 11.5001 6.30648C8.55873 6.30648 6.16673 8.69848 6.16673 11.6398C6.16673 14.5811 8.55873 16.9731 11.5001 16.9731ZM11.5001 8.97314C12.9707 8.97314 14.1667 10.1691 14.1667 11.6398C14.1667 13.1105 12.9707 14.3065 11.5001 14.3065C10.0294 14.3065 8.83339 13.1105 8.83339 11.6398C8.83339 10.1691 10.0294 8.97314 11.5001 8.97314ZM10.7268 27.3918C10.9524 27.553 11.2228 27.6396 11.5001 27.6396C11.7774 27.6396 12.0478 27.553 12.2734 27.3918C12.6788 27.1051 22.2054 20.2265 22.1668 11.6398C22.1668 5.75848 17.3814 0.973145 11.5001 0.973145C5.61876 0.973145 0.83343 5.75848 0.83343 11.6331C0.794764 20.2265 10.3214 27.1051 10.7268 27.3918ZM11.5001 3.63981C15.9121 3.63981 19.5001 7.22781 19.5001 11.6465C19.5281 17.5638 13.6494 22.8771 11.5001 24.6198C9.3521 22.8758 3.4721 17.5611 3.5001 11.6398C3.5001 7.22781 7.0881 3.63981 11.5001 3.63981Z" fill="#092B54"/>
<path d="M11.5001 16.9731C14.4414 16.9731 16.8334 14.5811 16.8334 11.6398C16.8334 8.69848 14.4414 6.30648 11.5001 6.30648C8.55873 6.30648 6.16673 8.69848 6.16673 11.6398C6.16673 14.5811 8.55873 16.9731 11.5001 16.9731ZM11.5001 8.97314C12.9707 8.97314 14.1667 10.1691 14.1667 11.6398C14.1667 13.1105 12.9707 14.3065 11.5001 14.3065C10.0294 14.3065 8.83339 13.1105 8.83339 11.6398C8.83339 10.1691 10.0294 8.97314 11.5001 8.97314ZM10.7268 27.3918C10.9524 27.553 11.2228 27.6396 11.5001 27.6396C11.7774 27.6396 12.0478 27.553 12.2734 27.3918C12.6788 27.1051 22.2054 20.2265 22.1668 11.6398C22.1668 5.75848 17.3814 0.973145 11.5001 0.973145C5.61876 0.973145 0.83343 5.75848 0.83343 11.6331C0.794764 20.2265 10.3214 27.1051 10.7268 27.3918ZM11.5001 3.63981C15.9121 3.63981 19.5001 7.22781 19.5001 11.6465C19.5281 17.5638 13.6494 22.8771 11.5001 24.6198C9.3521 22.8758 3.4721 17.5611 3.5001 11.6398C3.5001 7.22781 7.0881 3.63981 11.5001 3.63981Z" fill="#092B54"/>
</svg>
