<svg width="28" height="22" viewBox="0 0 28 22" fill="none" xmlns="http://www.w3.org/2000/svg">
<path d="M24.6665 0.333336H3.33317C1.8625 0.333336 0.666504 1.52934 0.666504 3V19C0.666504 20.4707 1.8625 21.6667 3.33317 21.6667H24.6665C26.1372 21.6667 27.3332 20.4707 27.3332 19V3C27.3332 1.52934 26.1372 0.333336 24.6665 0.333336ZM24.6665 3V3.68134L13.9998 11.9787L3.33317 3.68267V3H24.6665ZM3.33317 19V7.05867L13.1812 14.7187C13.4146 14.9021 13.7029 15.0017 13.9998 15.0017C14.2967 15.0017 14.585 14.9021 14.8185 14.7187L24.6665 7.05867L24.6692 19H3.33317Z" fill="#092B54"/>
</svg>
