<svg width="43" height="71" viewBox="0 0 43 71" fill="none" xmlns="http://www.w3.org/2000/svg">
<g clip-path="url(#clip0_20_1243)">
<path d="M21.2979 13.5074L28.2988 0.37145C28.5692 0.218484 28.8615 0.234874 29.1565 0.207558C31.9563 -0.0382793 38.2962 -0.101104 41.0304 0.213021C41.9018 0.314088 42.3552 0.704697 42.5 1.57879L29.8885 27.9271C29.8312 28.3423 29.9049 28.1921 30.189 28.2276C31.2379 28.3614 32.041 27.9927 32.2895 29.3994C32.7157 31.8168 31.9863 34.9362 32.4425 37.4246C44.6087 46.6627 40.6125 66.2532 25.5918 69.6321C6.42196 73.9452 -4.81829 49.2604 10.5602 37.4246C11.0164 34.9335 10.2871 31.8168 10.7132 29.3994C10.9618 27.9899 11.7648 28.3614 12.8137 28.2276C13.0978 28.1921 13.1716 28.3423 13.1142 27.9271L0.5 1.72083C0.53551 0.925951 0.975286 0.355061 1.78109 0.229411C5.67079 0.467054 10.0085 -0.12842 13.8408 0.207558C14.1904 0.237605 14.5291 0.229411 14.8296 0.445201L21.2979 13.5074ZM13.218 3.0784H4.11928L15.4661 26.1844L19.842 16.8754L13.218 3.0784ZM38.878 3.0784H29.7793L17.8179 28.2276H26.5069L38.878 3.0784ZM29.4733 30.8881H13.5239V35.5918C18.651 33.199 24.3463 33.199 29.4733 35.5918V30.8881ZM19.618 36.6707C9.44303 37.7115 3.35991 48.8479 7.4217 58.1515C12.2565 69.2251 27.7224 70.5226 34.3437 60.3913C41.5713 49.3287 32.661 35.335 19.618 36.6707Z" fill="#092B54"/>
<path d="M20.8225 41.5603C21.3223 41.4073 22.1527 41.4292 22.5324 41.8143C23.2535 42.5491 24.6493 46.6273 25.1793 46.9386C26.474 47.4139 31.0548 47.1927 31.4809 48.6158C31.9917 50.3312 28.4544 52.5274 27.4656 53.7238C27.1432 54.7727 28.3806 58.0587 28.2686 59.4108C28.0037 62.6559 22.9558 58.534 21.5709 58.127C20.9946 58.0751 17.5009 60.487 16.4411 60.7001C13.1824 61.3529 15.933 55.0923 15.5342 53.7292C14.5618 52.4782 11.0026 50.3585 11.5216 48.6158C11.9505 47.1763 16.5203 47.5013 17.8178 46.9332C18.528 46.1247 20.0631 41.7897 20.8252 41.5575L20.8225 41.5603ZM21.702 46.223C21.224 46.1192 21.3742 46.2885 21.2459 46.4852C20.7897 47.1899 20.2734 48.9764 19.6479 49.3806L15.9795 50.11L18.5007 53.0081L18.0254 56.6492C18.2466 56.8814 20.4592 55.3681 20.8334 55.2698C22.5133 54.8328 23.4338 56.3324 24.9744 56.6492C24.9307 55.2179 23.9528 53.6118 24.8651 52.3471C25.0727 52.0575 27.1268 50.2575 27.0203 50.11L23.2317 49.296L21.702 46.223Z" fill="#092B54"/>
</g>
<defs>
<clipPath id="clip0_20_1243">
<rect width="42" height="70.1348" fill="white" transform="translate(0.5)"/>
</clipPath>
</defs>
</svg>
