<svg width="71" height="71" viewBox="0 0 71 71" fill="none" xmlns="http://www.w3.org/2000/svg">
<g clip-path="url(#clip0_19_741)">
<path d="M19.6332 35.005C18.6962 34.8073 18.6131 33.2772 19.6372 33.0854L42.842 33.0577L55.3577 17.0014C55.6068 16.5368 55.1027 16.3332 55.4586 15.6393C55.6899 15.1885 58.9794 10.9758 59.2542 10.8433C59.6397 10.6595 59.9362 10.9026 60.1853 10.7524C60.7804 10.3926 61.7293 8.60151 62.3975 8.0717C62.8759 7.69214 63.6508 7.66644 64.2123 7.89181C64.659 8.0717 67.7964 10.5666 68.3143 11.039C70.5897 13.1128 67.7667 14.1507 66.9028 16.1315C67.49 16.6455 70.0303 18.231 70.1449 18.8399C70.1766 19.0079 70.1746 19.1641 70.1034 19.3222L60.9504 31.2627C60.0252 31.7727 59.1237 31.3952 59.2799 30.2723L67.5789 19.4685C67.6521 19.344 67.7094 19.1759 67.6323 19.0455C67.5888 18.9703 66.371 18.0966 66.1714 18.1994L63.4393 21.6925C62.8245 22.1808 62.3026 21.6965 61.9586 21.9851L35.5433 55.9502L27.8037 60.6394C26.9774 61.0071 26.1333 60.6552 26.244 59.6846L28.1418 53.2083H19.4849C19.052 53.2083 18.3897 51.5991 19.6648 51.3164L28.7783 51.2867L30.9549 48.177H19.7835C19.7479 48.177 19.1943 47.8766 19.1588 47.841C18.6527 47.3349 18.8761 46.3089 19.6451 46.2674L32.487 46.2298L36.8797 40.5601L37.024 40.0382H19.4889C18.9136 40.0382 18.3225 38.3538 19.9456 38.1285L38.8487 38.0909L41.1656 35.007H19.6352L19.6332 35.005ZM66.7447 12.3833L63.5559 10.017L61.7372 11.9958L65.0683 14.7299L66.6893 12.8044L66.7447 12.3833ZM59.8987 13.2591L57.9079 15.9694L62.526 19.6069L64.4752 17.2465L64.5325 16.9065L59.9007 13.2611L59.8987 13.2591ZM60.5372 20.5202L57.0005 17.9898L31.6112 51.1404C32.655 51.8244 34.0883 52.5341 34.6576 53.6511L35.0293 53.5087L60.5392 20.5222L60.5372 20.5202ZM29.0314 57.6464L33.3193 55.0567C33.0465 54.6929 30.6307 52.6686 30.3638 52.9117L29.0314 57.6464Z" fill="white"/>
<path d="M50.0438 16.5091H36.5041C36.251 16.5091 35.5413 15.9536 35.5413 15.6946V2.00655H2.09812V68.4481H49.9687L50.1901 68.2267V42.1831C50.1901 42.1277 50.6982 41.679 50.8247 41.6256C51.4988 41.3369 52.08 41.9557 52.1176 42.6239L52.0029 69.743L51.485 70.261L0.906048 70.3064L0.204249 69.6758L0.166688 1.03787C0.152849 0.59307 0.312978 0.144314 0.75778 0H37.0299L51.5226 14.5104C52.173 15.3348 52.4122 18.6342 50.9947 18.7252C49.5773 18.8161 50.1802 16.5071 50.0438 16.5071V16.5091ZM48.5631 14.4373L37.6131 3.48725V14.2159L37.8345 14.4373H48.5631Z" fill="white"/>
<path d="M44.6785 20.0991C45.2597 20.6506 44.9711 21.906 44.0519 21.8388L19.7736 21.8447C18.5083 21.6786 18.627 19.9686 19.9258 19.9093H43.9075C44.1487 19.9231 44.4967 19.9271 44.6766 20.0991H44.6785Z" fill="white"/>
<path d="M37.8721 26.8285C37.6902 27.0005 37.3442 27.0005 37.1031 27.0202C31.5717 27.4947 25.3781 26.6466 19.7755 27.0202C18.5024 26.8542 18.6388 25.1362 19.9278 25.0848H37.0991C38.0164 25.0868 38.5462 26.186 37.8721 26.8245V26.8285Z" fill="white"/>
<path d="M7.91218 35.0504C8.83341 34.3071 9.77837 35.6553 10.4584 36.1871L14.173 31.6185C15.3097 31.1302 16.0748 31.9032 15.4145 33.0082C14.7542 34.1133 12.4709 36.9304 11.5635 37.8872C10.7115 38.7887 10.5632 38.9627 9.50951 38.1739C8.79387 37.6401 6.82686 35.9242 7.91218 35.0504Z" fill="white"/>
<path d="M11.2274 25.0434C10.6008 25.5554 10.1639 25.3696 9.57277 24.9426C9.31577 24.7567 7.80345 23.3156 7.71251 23.1041C7.44167 22.4813 7.54645 21.9337 8.20673 21.6491C9.31182 21.1746 9.61231 22.6533 10.5375 22.8016C11.433 22.0345 13.6175 18.4781 14.5269 18.1934C15.1437 17.9997 16.0214 18.8003 15.6023 19.427L11.2294 25.0414L11.2274 25.0434Z" fill="white"/>
<path d="M14.4893 44.502C15.2188 44.3537 15.9147 44.8716 15.6023 45.6149L11.1207 51.3499C10.7569 51.6267 10.3952 51.6465 9.98001 51.4666C9.74674 51.3657 7.96358 49.7526 7.80345 49.4996C7.10165 48.3945 8.13557 47.4614 9.25844 48.0465C9.53521 48.1908 10.3754 49.2109 10.4604 49.2089L13.9378 44.8459C14.0801 44.6878 14.2798 44.5435 14.4913 44.502H14.4893Z" fill="white"/>
</g>
<defs>
<clipPath id="clip0_19_741">
<rect width="70" height="70.3064" fill="white" transform="translate(0.166687)"/>
</clipPath>
</defs>
</svg>
