<svg width="19" height="19" viewBox="0 0 19 19" fill="none" xmlns="http://www.w3.org/2000/svg">
<path fill-rule="evenodd" clip-rule="evenodd" d="M13.5 0.306641H5.5C2.73858 0.306641 0.5 2.54522 0.5 5.30664V13.3066C0.5 16.068 2.73858 18.3066 5.5 18.3066H13.5C16.2614 18.3066 18.5 16.068 18.5 13.3066V5.30664C18.5 2.54522 16.2614 0.306641 13.5 0.306641ZM16.75 13.3066C16.7445 15.0992 15.2926 16.5511 13.5 16.5566H5.5C3.70735 16.5511 2.25549 15.0992 2.25 13.3066V5.30664C2.25549 3.51399 3.70735 2.06213 5.5 2.05664H13.5C15.2926 2.06213 16.7445 3.51399 16.75 5.30664V13.3066ZM14.25 5.55664C14.8023 5.55664 15.25 5.10892 15.25 4.55664C15.25 4.00436 14.8023 3.55664 14.25 3.55664C13.6977 3.55664 13.25 4.00436 13.25 4.55664C13.25 5.10892 13.6977 5.55664 14.25 5.55664ZM9.5 4.80664C7.01472 4.80664 5 6.82136 5 9.30664C5 11.7919 7.01472 13.8066 9.5 13.8066C11.9853 13.8066 14 11.7919 14 9.30664C14.0027 8.11234 13.5294 6.96621 12.6849 6.12172C11.8404 5.27723 10.6943 4.80398 9.5 4.80664ZM6.75 9.30664C6.75 10.8254 7.9812 12.0566 9.5 12.0566C11.0188 12.0566 12.25 10.8254 12.25 9.30664C12.25 7.78784 11.0188 6.55664 9.5 6.55664C7.9812 6.55664 6.75 7.78784 6.75 9.30664Z" fill="#092B54"/>
</svg>
