<svg width="21" height="15" viewBox="0 0 21 15" fill="none" xmlns="http://www.w3.org/2000/svg">
<path d="M20.0928 2.50965C19.9789 2.08705 19.7563 1.70165 19.4472 1.39182C19.1381 1.08198 18.7532 0.858509 18.3308 0.743648C16.7648 0.313648 10.4998 0.306648 10.4998 0.306648C10.4998 0.306648 4.23584 0.299648 2.66884 0.710648C2.24677 0.830794 1.86266 1.05743 1.55341 1.36878C1.24415 1.68014 1.02013 2.06577 0.902841 2.48865C0.489841 4.05465 0.485841 7.30265 0.485841 7.30265C0.485841 7.30265 0.481841 10.5666 0.891841 12.1166C1.12184 12.9736 1.79684 13.6506 2.65484 13.8816C4.23684 14.3116 10.4848 14.3186 10.4848 14.3186C10.4848 14.3186 16.7498 14.3256 18.3158 13.9156C18.7383 13.801 19.1236 13.578 19.4335 13.2688C19.7434 12.9596 19.9672 12.5749 20.0828 12.1526C20.4968 10.5876 20.4998 7.34065 20.4998 7.34065C20.4998 7.34065 20.5198 4.07565 20.0928 2.50965ZM8.49584 10.3116L8.50084 4.31165L13.7078 7.31665L8.49584 10.3116Z" fill="#092B54"/>
</svg>
