<svg width="93" height="56" viewBox="0 0 93 56" fill="none" xmlns="http://www.w3.org/2000/svg">
<path d="M0.90418 52.1974V40.7613C0.90418 39.7342 0.579344 38.5543 0.149414 37.6992H6.16843C5.74328 38.5543 5.41367 39.7294 5.41367 40.7613V52.1974C5.41367 53.2245 5.7385 54.4044 6.16843 55.2595H0.149414C0.574567 54.4044 0.90418 53.2292 0.90418 52.1974Z" fill="#092B54"/>
<path d="M8.92957 52.1974V40.7613C8.92957 39.7342 8.60473 38.5543 8.1748 37.6992H14.1938C13.7687 38.5543 13.4391 39.7294 13.4391 40.7613V44.5733H19.482V40.7613C19.482 39.7342 19.1571 38.5543 18.7272 37.6992H24.7462C24.3211 38.5543 23.9915 39.7294 23.9915 40.7613V52.1974C23.9915 53.2245 24.3163 54.4044 24.7462 55.2595H18.7272C19.1524 54.4044 19.482 53.2292 19.482 52.1974V48.3328H13.4391V52.1974C13.4391 53.2245 13.7639 54.4044 14.1938 55.2595H8.1748C8.59996 54.4044 8.92957 53.2292 8.92957 52.1974Z" fill="#092B54"/>
<path d="M36.8652 55.4361C36.1104 55.4361 35.2601 55.5125 34.0563 55.5125C27.636 55.5125 25.7539 50.5444 25.7539 47.234V45.7053C25.7539 42.4187 27.636 37.4554 34.0563 37.4554C40.4766 37.4554 36.1152 37.5319 36.8652 37.5319C37.6152 37.5319 38.1932 37.4554 38.8715 37.207L40.3285 42.7245C39.0483 41.9219 36.163 40.7659 34.1328 41.1194C31.171 41.621 30.5214 44.683 30.5214 45.734V47.2387C30.5214 48.2944 31.2475 51.3517 34.1328 51.8533C36.163 52.2068 39.0483 51.0508 40.3285 50.2482L38.8715 55.7657C38.1932 55.5125 37.5913 55.4408 36.8652 55.4408V55.4361Z" fill="#092B54"/>
<path d="M42.2825 52.6991L46.3191 40.5369C46.5962 39.4573 46.3955 38.5066 45.9943 37.7041H53.819C53.3938 38.5592 53.2171 39.5862 53.5706 40.7662L57.5355 52.7039C57.8365 53.6067 58.3619 54.5096 59.2409 55.2644H52.7203C53.1454 54.4093 52.7967 53.6354 52.5435 52.7039L52.2426 51.5765H47.5755L47.2745 52.7039C47.0261 53.6306 46.6726 54.4093 47.0978 55.2644H40.5771C41.4561 54.5096 41.9816 53.6067 42.2825 52.7039V52.6991ZM51.2108 47.86L49.9066 43.169L48.6025 47.86H51.2108Z" fill="#092B54"/>
<path d="M59.4893 49.9663C60.8459 50.7927 64.2567 51.6956 66.5879 51.6956C68.9191 51.6956 69.048 51.3468 68.9477 50.4679C68.6993 48.0364 59.795 49.1876 59.795 42.7912C59.795 36.3948 62.8809 37.4506 66.693 37.4506C70.505 37.4506 68.7519 37.527 69.5019 37.527C70.2518 37.527 70.8299 37.4506 71.5082 37.2021L72.9652 42.7196C71.6849 41.917 68.8283 41.1145 66.7694 41.1145C64.7105 41.1145 64.2854 41.4919 64.3379 42.5189C64.4908 44.702 73.4907 43.546 73.4907 50.1956C73.4907 56.8452 70.5815 55.5124 66.7694 55.5124C62.9574 55.5124 64.2376 55.4121 63.2583 55.4121C62.279 55.4121 61.701 55.4885 60.951 55.7656L59.494 49.9711L59.4893 49.9663Z" fill="#092B54"/>
<path d="M75.1868 52.6991L79.2234 40.5369C79.5005 39.4573 79.2998 38.5066 78.8986 37.7041H86.7233C86.2981 38.5592 86.1214 39.5862 86.4749 40.7662L90.4398 52.7039C90.7407 53.6067 91.2662 54.5096 92.1452 55.2644H85.6246C86.0497 54.4093 85.701 53.6354 85.4478 52.7039L85.1469 51.5765H80.4798L80.1788 52.7039C79.9256 53.6306 79.5769 54.4093 80.0021 55.2644H73.4814C74.3604 54.5096 74.8859 53.6067 75.1868 52.7039V52.6991ZM84.115 47.86L82.8109 43.169L81.5068 47.86H84.115Z" fill="#092B54"/>
<path d="M61.6531 16.3222C61.6531 16.3079 61.6531 16.2887 61.6483 16.2744C61.6387 16.2362 61.6101 16.2028 61.5766 16.1884C61.419 16.0881 61.2231 16.0499 61.0416 16.0212C60.9317 16.0021 60.8266 15.9926 60.7168 16.0069C60.6021 16.0212 60.4923 16.0499 60.3776 16.069C60.2964 16.0642 60.2152 16.0547 60.134 16.0547C60.048 16.0547 59.9477 16.0642 59.8712 16.112C59.833 16.1359 59.8139 16.1693 59.8091 16.2075C59.8044 16.2458 59.8091 16.2935 59.8474 16.3222C59.9142 16.3747 59.9811 16.4129 60.0528 16.4512C60.0528 16.4512 60.0528 16.4607 60.0575 16.4655C60.0623 16.475 60.0671 16.4846 60.0767 16.4894C60.0862 16.4989 60.091 16.5037 60.1005 16.5085C60.1053 16.5085 60.1101 16.5085 60.1149 16.5133C60.1197 16.5133 60.1292 16.518 60.134 16.518C60.1435 16.518 60.1531 16.518 60.1674 16.518C60.177 16.518 60.1818 16.518 60.1913 16.518C60.177 16.5419 60.1626 16.5706 60.1531 16.5992C60.1388 16.6518 60.1388 16.7139 60.1531 16.7664C60.1722 16.8381 60.2247 16.8668 60.2868 16.8811C60.4302 16.9098 60.5782 16.905 60.7168 16.8763C60.8553 16.8477 61.0082 16.7808 61.0703 16.6518C61.0894 16.6088 61.0989 16.5754 61.0846 16.5276C61.0798 16.5037 61.0703 16.4846 61.0607 16.4655C61.0942 16.4607 61.1228 16.4559 61.1563 16.4464C61.1801 16.4416 61.204 16.4225 61.2184 16.4034C61.3043 16.4129 61.3903 16.4273 61.4763 16.4368C61.5241 16.4512 61.5814 16.4368 61.6148 16.3938C61.6148 16.3938 61.6148 16.3938 61.6148 16.3891C61.6148 16.3891 61.6196 16.3795 61.6244 16.3747C61.6292 16.3652 61.634 16.3556 61.6387 16.3461C61.6387 16.3461 61.6387 16.3413 61.6387 16.3365C61.6387 16.3317 61.6387 16.327 61.6387 16.3222H61.6531ZM60.7598 16.5945C60.7598 16.5945 60.755 16.5945 60.7502 16.5945C60.7502 16.5945 60.7598 16.5945 60.7598 16.5897C60.7598 16.5897 60.7693 16.5897 60.7741 16.5849C60.7741 16.5849 60.7645 16.5849 60.7598 16.5897V16.5945ZM60.5974 16.6327C60.6117 16.6327 60.6117 16.6327 60.5974 16.6327V16.6327ZM60.8314 16.5419C60.8314 16.5419 60.8314 16.5371 60.8362 16.5324C60.8362 16.5324 60.8362 16.5324 60.8362 16.5371L60.8314 16.5419Z" fill="#BC0000"/>
<path d="M35.351 14.2105C35.0596 14.2105 34.7683 14.2296 34.4816 14.2631C34.4816 14.2201 34.4721 14.1771 34.4434 14.1484C34.453 14.1484 34.4577 14.1389 34.4673 14.1341C34.5342 14.0911 34.5628 13.9812 34.496 13.9239C34.3049 13.7615 33.9514 13.8332 33.7316 13.8809C33.5836 13.9096 33.3925 13.9621 33.2635 14.0624C33.2539 14.0672 33.2444 14.0768 33.2396 14.0863C33.1966 14.1246 33.1632 14.1723 33.1393 14.2249C33.0199 14.3873 32.8861 14.5354 32.7524 14.6835C32.3797 14.9605 32.1505 15.3857 31.8829 15.7678C31.8065 15.8777 31.9594 16.0258 32.0645 15.9494C32.2269 15.8347 32.375 15.7105 32.5087 15.572C32.5278 15.5959 32.5517 15.6102 32.5804 15.6198C32.781 15.6771 32.9482 15.4573 33.0533 15.3236C33.0676 15.3045 33.082 15.2806 33.0963 15.2615C33.0963 15.2615 33.1011 15.2615 33.1059 15.2567C33.1059 15.3092 33.1297 15.3618 33.1727 15.4048C33.2348 15.4669 33.3256 15.4956 33.4116 15.5051C33.5119 15.5194 33.6074 15.5194 33.703 15.5051C33.7937 15.4908 33.8797 15.4478 33.9609 15.4096C34.2046 15.2949 34.453 15.0943 34.4243 14.7933C34.4148 14.7217 34.367 14.6596 34.2906 14.6596C34.2141 14.6596 34.1472 14.7217 34.1568 14.7933C34.1568 14.8172 34.1568 14.8459 34.1568 14.8698C34.1568 14.8698 34.1568 14.8889 34.152 14.8936C34.152 14.9032 34.1377 14.9319 34.1425 14.9271C34.1425 14.9175 34.1329 14.9462 34.1281 14.951C34.1234 14.9605 34.1138 14.9701 34.109 14.9844C34.109 14.9844 34.0995 14.994 34.0947 14.9987C34.0851 15.0083 34.0756 15.0226 34.0613 15.0322C34.023 15.0704 33.9944 15.0895 33.9418 15.1182C33.9466 15.1086 33.9562 15.1038 33.9609 15.0943C34.023 15.0083 34.0708 14.9032 34.0708 14.7981C34.0708 14.7933 34.0708 14.7886 34.0708 14.7838C34.0804 14.7217 34.0708 14.6644 34.0374 14.607C34.4769 14.5306 34.9163 14.4828 35.3654 14.478C35.5373 14.478 35.5373 14.2105 35.3654 14.2105H35.351ZM33.7173 15.0991C33.7173 15.0991 33.7221 15.0991 33.7269 15.0943C33.7269 15.0943 33.7269 15.0943 33.7173 15.1038V15.0991Z" fill="#BC0000"/>
<path d="M48.8604 12.29C50.0212 13.7996 50.7139 15.6865 50.7139 17.7358C50.7139 22.6609 46.706 26.6688 41.7809 26.6688C36.8558 26.6688 38.9816 26.3392 37.7396 25.7086C38.3606 25.6847 38.9099 25.6561 39.3399 25.637C39.7889 25.6179 40.152 25.5988 40.4099 25.5844C40.9067 25.5605 41.179 25.5462 41.3462 25.2453L42.4975 23.6927C42.7172 23.3966 42.6551 22.9762 42.3589 22.7564C42.0628 22.5367 41.6424 22.5988 41.4226 22.895L40.4243 24.2421C38.7236 24.3329 31.348 24.6672 29.4754 24.4666C29.3368 24.4523 29.1935 24.4857 29.0741 24.5526C29.0741 24.5526 29.0645 24.5526 29.0645 24.5574C27.3544 25.5558 26.1171 25.1163 25.9165 24.7819C25.8353 24.6434 25.7015 24.5335 25.5487 24.4809C24.7844 24.223 23.8576 23.7644 23.7907 23.0622C23.6952 22.0208 25.2668 20.6355 25.6872 20.4014C26.0694 20.1864 26.9006 19.1689 28.1617 17.3823C28.4722 16.9428 30.0295 14.7072 30.2827 13.9524C30.2922 13.9238 30.3018 13.8951 30.3066 13.8665C30.6266 12.2232 32.1457 11.6499 32.6043 11.5114C33.7508 11.1674 35.4418 8.95092 35.9387 8.27736C36.0485 8.12927 36.0915 7.93819 36.0581 7.75667C36.0246 7.57514 35.9148 7.40795 35.7571 7.31241C34.4864 6.49554 33.9801 4.98601 33.7842 3.86341C33.6839 3.3045 33.6505 2.78381 33.6505 2.34432C35.6711 5.05766 39.0246 7.85221 39.9418 8.54487L40.195 8.73595C40.3287 8.83627 40.4959 8.88404 40.6679 8.86971L40.8876 8.84582C41.1886 8.81716 41.4991 8.79805 41.8 8.79805C44.0978 8.79805 46.1996 9.67224 47.7856 11.1053C48.1009 10.7757 48.4735 10.5034 48.8891 10.3028C47.0452 8.54487 44.5468 7.46049 41.8048 7.46049C39.0628 7.46049 41.1313 7.47482 40.7969 7.50826L40.7539 7.47482C39.7985 6.7535 35.5947 3.22807 33.9753 0.404862C33.7747 0.0561411 33.4403 -0.0298458 33.2014 0.0083702C32.6282 0.0991332 32.4897 0.748806 32.4419 0.992433C32.1314 2.46853 32.2747 6.07994 34.4721 8.00507C33.6457 9.05601 32.6616 10.0974 32.2317 10.2216C31.5964 10.4127 29.4945 11.2104 29.012 13.5559C28.6776 14.4254 25.6299 18.7772 25.0232 19.2454C24.5455 19.5272 22.2908 21.2756 22.4723 23.1864C22.5726 24.2755 23.4038 25.1163 24.9372 25.68C25.6347 26.4873 27.4069 27.0032 29.5709 25.8185C30.5693 25.8949 32.5518 25.8854 35.4705 25.7898C35.5087 25.8376 35.5517 25.8806 35.5995 25.9188C37.3956 27.285 39.5405 28.0016 41.8048 28.0016C47.4703 28.0016 52.0801 23.3918 52.0801 17.7263C52.0801 12.0607 51.3206 13.298 50.0356 11.583C49.5818 11.6977 49.1853 11.9461 48.8843 12.2853L48.8604 12.29Z" fill="#BC0000"/>
<path d="M69.1005 19.4073C69.0862 17.4822 68.9046 17.358 68.6706 17.2051C68.3314 16.9758 67.9397 17.1191 67.7343 17.1908C67.548 17.2577 67.3234 17.229 67.1419 17.1144C66.6977 16.8373 66.0671 16.5363 65.2693 16.2211C63.5878 15.5571 63.2678 14.8357 62.8617 13.9281C62.8235 13.8469 62.7901 13.7657 62.7518 13.6845C62.5703 13.288 62.3745 13.0014 62.1882 12.7959C62.5178 12.495 62.8235 12.1606 63.1101 11.8023C63.9748 10.7084 64.6149 9.3995 65.0114 7.91863C65.0209 7.88997 65.0257 7.86608 65.0305 7.84698C65.0974 7.60813 65.0305 7.35017 64.849 7.1782C64.548 6.8868 64.247 6.98234 63.755 7.14476C63.2487 7.30718 62.3171 7.60813 60.8888 7.97118C60.97 7.77532 61.056 7.56991 61.1324 7.35972C61.7343 5.75465 61.7678 4.81358 61.2423 4.30722C60.5544 3.64321 59.4939 4.24034 59.1452 4.4362C58.8634 4.59384 56.322 6.29923 54.9415 7.66067C54.8794 7.63201 54.8125 7.61768 54.7408 7.60813C54.3969 7.57469 54.0434 7.55558 53.6899 7.55558C48.0244 7.55558 43.4146 12.1654 43.4146 17.8309C43.4146 23.4964 44.1789 22.2687 45.4639 23.9837C45.8269 23.912 46.1709 23.7496 46.4671 23.506C46.5339 23.4534 46.596 23.3961 46.6534 23.334C45.4639 21.8149 44.7521 19.9041 44.7521 17.8309C44.7521 13.0682 48.5021 9.16065 53.2074 8.91225C53.2504 8.9218 53.2982 8.92658 53.3412 8.92658C53.5657 8.92658 54.5736 9.03645 55.0561 9.09377C55.2711 9.11766 55.4813 9.03645 55.6246 8.87881C56.7519 7.64156 59.5321 5.75943 59.7949 5.61134C60.0146 5.48714 60.1723 5.42026 60.2726 5.38682C60.2535 5.91707 59.8188 7.18775 59.2312 8.382C56.6086 9.11288 55.2567 11.2482 55.1994 11.3437C55.0036 11.659 55.1039 12.0698 55.4144 12.2657C55.7297 12.4616 56.1405 12.366 56.3363 12.0507C56.3459 12.0316 57.5497 10.1256 59.8379 9.60969C61.4191 9.25619 62.5703 8.92658 63.349 8.6925C63.0194 9.54759 62.5847 10.3167 62.0496 10.9902C60.6213 12.7959 58.615 13.737 56.0832 13.78C55.7153 13.7848 55.4192 14.0905 55.4239 14.4631C55.4287 14.831 55.7297 15.1223 56.0927 15.1223C56.4558 15.1223 56.1023 15.1223 56.107 15.1223C58.0131 15.0889 59.7089 14.5873 61.1181 13.6558C61.1802 13.7036 61.3379 13.8517 61.5289 14.2625C61.5672 14.3389 61.6006 14.4201 61.634 14.4966C62.0783 15.495 62.5847 16.6223 64.7725 17.487C65.6706 17.8405 66.1674 18.108 66.4254 18.2704C66.8219 18.5188 67.2804 18.6239 67.7247 18.5761C67.7438 18.8771 67.7581 19.264 67.7534 19.6748C67.7486 20.3579 67.7008 20.8022 67.6483 21.0697L67.2375 20.9312C66.9078 20.8213 66.5448 20.9837 66.4063 21.3038C66.3298 21.4853 66.2247 21.6907 66.1435 21.8197C65.7279 21.8054 65.5655 21.7815 65.5177 21.7767C65.4604 21.7576 65.4031 21.748 65.3458 21.748C65.3362 21.748 65.3314 21.748 65.3219 21.748C65.3123 21.748 65.298 21.748 65.2884 21.748C65.0209 21.748 64.7677 21.8961 64.6579 22.1589C63.6356 24.576 61.3092 25.9614 58.271 25.9614C55.2328 25.9614 54.779 25.2878 53.4701 24.0697C53.1978 23.8165 52.7775 23.8308 52.5243 24.1031C52.2711 24.3754 52.2854 24.7958 52.5577 25.049C53.2982 25.7416 54.1532 26.2862 55.0704 26.6636C54.6118 26.7352 54.1485 26.7735 53.6755 26.7735C51.4017 26.7735 49.3237 25.9184 47.7425 24.5139C47.6613 24.5951 47.5753 24.6763 47.4798 24.7528C47.2123 24.9773 46.9209 25.1588 46.6104 25.2974C48.4543 27.041 50.9383 28.1158 53.6708 28.1158C56.4032 28.1158 56.2838 27.8674 57.5019 27.3801C57.564 27.3562 57.6213 27.3228 57.6691 27.2798C57.865 27.2941 58.0656 27.3037 58.2662 27.3037C61.677 27.3037 64.3426 25.7942 65.6706 23.1477C65.8473 23.162 66.0671 23.1716 66.3537 23.1764C66.3585 23.1764 66.368 23.1764 66.3728 23.1764C66.6403 23.1764 66.9747 23.0665 67.3569 22.3929L67.6339 22.4837C67.9779 22.5984 68.4747 22.5219 68.7613 21.9439C68.9858 21.4901 69.0909 20.6446 69.0861 19.4312L69.1005 19.4073Z" fill="#BC0000"/>
</svg>
